G04 #@! TF.GenerationSoftware,KiCad,Pcbnew,(5.1.4)-1*
G04 #@! TF.CreationDate,2021-03-24T15:31:25+01:00*
G04 #@! TF.ProjectId,HRM,48524d2e-6b69-4636-9164-5f7063625858,rev?*
G04 #@! TF.SameCoordinates,Original*
G04 #@! TF.FileFunction,Legend,Top*
G04 #@! TF.FilePolarity,Positive*
%FSLAX46Y46*%
G04 Gerber Fmt 4.6, Leading zero omitted, Abs format (unit mm)*
G04 Created by KiCad (PCBNEW (5.1.4)-1) date 2021-03-24 15:31:25*
%MOMM*%
%LPD*%
G04 APERTURE LIST*
%ADD10C,0.127000*%
%ADD11C,0.203200*%
%ADD12C,0.177800*%
%ADD13C,0.150000*%
%ADD14C,0.120000*%
%ADD15C,0.254000*%
G04 APERTURE END LIST*
D10*
X121339428Y-118397261D02*
X120976571Y-118397261D01*
X121158000Y-118397261D02*
X121158000Y-117762261D01*
X121097523Y-117852976D01*
X121037047Y-117913452D01*
X120976571Y-117943690D01*
X198555428Y-105951261D02*
X198192571Y-105951261D01*
X198374000Y-105951261D02*
X198374000Y-105316261D01*
X198313523Y-105406976D01*
X198253047Y-105467452D01*
X198192571Y-105497690D01*
D11*
X133764142Y-128705428D02*
X133909285Y-128753809D01*
X133957666Y-128802190D01*
X134006047Y-128898952D01*
X134006047Y-129044095D01*
X133957666Y-129140857D01*
X133909285Y-129189238D01*
X133812523Y-129237619D01*
X133425476Y-129237619D01*
X133425476Y-128221619D01*
X133764142Y-128221619D01*
X133860904Y-128270000D01*
X133909285Y-128318380D01*
X133957666Y-128415142D01*
X133957666Y-128511904D01*
X133909285Y-128608666D01*
X133860904Y-128657047D01*
X133764142Y-128705428D01*
X133425476Y-128705428D01*
X134635000Y-128221619D02*
X134828523Y-128221619D01*
X134925285Y-128270000D01*
X135022047Y-128366761D01*
X135070428Y-128560285D01*
X135070428Y-128898952D01*
X135022047Y-129092476D01*
X134925285Y-129189238D01*
X134828523Y-129237619D01*
X134635000Y-129237619D01*
X134538238Y-129189238D01*
X134441476Y-129092476D01*
X134393095Y-128898952D01*
X134393095Y-128560285D01*
X134441476Y-128366761D01*
X134538238Y-128270000D01*
X134635000Y-128221619D01*
X135699380Y-128221619D02*
X135892904Y-128221619D01*
X135989666Y-128270000D01*
X136086428Y-128366761D01*
X136134809Y-128560285D01*
X136134809Y-128898952D01*
X136086428Y-129092476D01*
X135989666Y-129189238D01*
X135892904Y-129237619D01*
X135699380Y-129237619D01*
X135602619Y-129189238D01*
X135505857Y-129092476D01*
X135457476Y-128898952D01*
X135457476Y-128560285D01*
X135505857Y-128366761D01*
X135602619Y-128270000D01*
X135699380Y-128221619D01*
X136425095Y-128221619D02*
X137005666Y-128221619D01*
X136715380Y-129237619D02*
X136715380Y-128221619D01*
X119967380Y-129237619D02*
X119628714Y-128753809D01*
X119386809Y-129237619D02*
X119386809Y-128221619D01*
X119773857Y-128221619D01*
X119870619Y-128270000D01*
X119919000Y-128318380D01*
X119967380Y-128415142D01*
X119967380Y-128560285D01*
X119919000Y-128657047D01*
X119870619Y-128705428D01*
X119773857Y-128753809D01*
X119386809Y-128753809D01*
X120402809Y-128705428D02*
X120741476Y-128705428D01*
X120886619Y-129237619D02*
X120402809Y-129237619D01*
X120402809Y-128221619D01*
X120886619Y-128221619D01*
X121273666Y-129189238D02*
X121418809Y-129237619D01*
X121660714Y-129237619D01*
X121757476Y-129189238D01*
X121805857Y-129140857D01*
X121854238Y-129044095D01*
X121854238Y-128947333D01*
X121805857Y-128850571D01*
X121757476Y-128802190D01*
X121660714Y-128753809D01*
X121467190Y-128705428D01*
X121370428Y-128657047D01*
X121322047Y-128608666D01*
X121273666Y-128511904D01*
X121273666Y-128415142D01*
X121322047Y-128318380D01*
X121370428Y-128270000D01*
X121467190Y-128221619D01*
X121709095Y-128221619D01*
X121854238Y-128270000D01*
X122289666Y-128705428D02*
X122628333Y-128705428D01*
X122773476Y-129237619D02*
X122289666Y-129237619D01*
X122289666Y-128221619D01*
X122773476Y-128221619D01*
X123063761Y-128221619D02*
X123644333Y-128221619D01*
X123354047Y-129237619D02*
X123354047Y-128221619D01*
X184561238Y-124030619D02*
X184222571Y-123546809D01*
X183980666Y-124030619D02*
X183980666Y-123014619D01*
X184367714Y-123014619D01*
X184464476Y-123063000D01*
X184512857Y-123111380D01*
X184561238Y-123208142D01*
X184561238Y-123353285D01*
X184512857Y-123450047D01*
X184464476Y-123498428D01*
X184367714Y-123546809D01*
X183980666Y-123546809D01*
X184899904Y-124030619D02*
X185432095Y-123353285D01*
X184899904Y-123353285D02*
X185432095Y-124030619D01*
X188401476Y-123014619D02*
X188982047Y-123014619D01*
X188691761Y-124030619D02*
X188691761Y-123014619D01*
X189223952Y-124030619D02*
X189756142Y-123353285D01*
X189223952Y-123353285D02*
X189756142Y-124030619D01*
X158671380Y-138508619D02*
X158671380Y-137492619D01*
X159010047Y-138218333D01*
X159348714Y-137492619D01*
X159348714Y-138508619D01*
X159784142Y-138218333D02*
X160267952Y-138218333D01*
X159687380Y-138508619D02*
X160026047Y-137492619D01*
X160364714Y-138508619D01*
X160606619Y-137492619D02*
X161283952Y-138508619D01*
X161283952Y-137492619D02*
X160606619Y-138508619D01*
X161816142Y-137928047D02*
X161719380Y-137879666D01*
X161671000Y-137831285D01*
X161622619Y-137734523D01*
X161622619Y-137686142D01*
X161671000Y-137589380D01*
X161719380Y-137541000D01*
X161816142Y-137492619D01*
X162009666Y-137492619D01*
X162106428Y-137541000D01*
X162154809Y-137589380D01*
X162203190Y-137686142D01*
X162203190Y-137734523D01*
X162154809Y-137831285D01*
X162106428Y-137879666D01*
X162009666Y-137928047D01*
X161816142Y-137928047D01*
X161719380Y-137976428D01*
X161671000Y-138024809D01*
X161622619Y-138121571D01*
X161622619Y-138315095D01*
X161671000Y-138411857D01*
X161719380Y-138460238D01*
X161816142Y-138508619D01*
X162009666Y-138508619D01*
X162106428Y-138460238D01*
X162154809Y-138411857D01*
X162203190Y-138315095D01*
X162203190Y-138121571D01*
X162154809Y-138024809D01*
X162106428Y-137976428D01*
X162009666Y-137928047D01*
X163074047Y-137492619D02*
X162880523Y-137492619D01*
X162783761Y-137541000D01*
X162735380Y-137589380D01*
X162638619Y-137734523D01*
X162590238Y-137928047D01*
X162590238Y-138315095D01*
X162638619Y-138411857D01*
X162687000Y-138460238D01*
X162783761Y-138508619D01*
X162977285Y-138508619D01*
X163074047Y-138460238D01*
X163122428Y-138411857D01*
X163170809Y-138315095D01*
X163170809Y-138073190D01*
X163122428Y-137976428D01*
X163074047Y-137928047D01*
X162977285Y-137879666D01*
X162783761Y-137879666D01*
X162687000Y-137928047D01*
X162638619Y-137976428D01*
X162590238Y-138073190D01*
X164138428Y-138508619D02*
X163557857Y-138508619D01*
X163848142Y-138508619D02*
X163848142Y-137492619D01*
X163751380Y-137637761D01*
X163654619Y-137734523D01*
X163557857Y-137782904D01*
X165057666Y-137492619D02*
X164573857Y-137492619D01*
X164525476Y-137976428D01*
X164573857Y-137928047D01*
X164670619Y-137879666D01*
X164912523Y-137879666D01*
X165009285Y-137928047D01*
X165057666Y-137976428D01*
X165106047Y-138073190D01*
X165106047Y-138315095D01*
X165057666Y-138411857D01*
X165009285Y-138460238D01*
X164912523Y-138508619D01*
X164670619Y-138508619D01*
X164573857Y-138460238D01*
X164525476Y-138411857D01*
X165735000Y-137492619D02*
X165831761Y-137492619D01*
X165928523Y-137541000D01*
X165976904Y-137589380D01*
X166025285Y-137686142D01*
X166073666Y-137879666D01*
X166073666Y-138121571D01*
X166025285Y-138315095D01*
X165976904Y-138411857D01*
X165928523Y-138460238D01*
X165831761Y-138508619D01*
X165735000Y-138508619D01*
X165638238Y-138460238D01*
X165589857Y-138411857D01*
X165541476Y-138315095D01*
X165493095Y-138121571D01*
X165493095Y-137879666D01*
X165541476Y-137686142D01*
X165589857Y-137589380D01*
X165638238Y-137541000D01*
X165735000Y-137492619D01*
X167234809Y-138460238D02*
X167331571Y-138508619D01*
X167525095Y-138508619D01*
X167621857Y-138460238D01*
X167670238Y-138363476D01*
X167670238Y-138315095D01*
X167621857Y-138218333D01*
X167525095Y-138169952D01*
X167379952Y-138169952D01*
X167283190Y-138121571D01*
X167234809Y-138024809D01*
X167234809Y-137976428D01*
X167283190Y-137879666D01*
X167379952Y-137831285D01*
X167525095Y-137831285D01*
X167621857Y-137879666D01*
X168492714Y-138460238D02*
X168395952Y-138508619D01*
X168202428Y-138508619D01*
X168105666Y-138460238D01*
X168057285Y-138363476D01*
X168057285Y-137976428D01*
X168105666Y-137879666D01*
X168202428Y-137831285D01*
X168395952Y-137831285D01*
X168492714Y-137879666D01*
X168541095Y-137976428D01*
X168541095Y-138073190D01*
X168057285Y-138169952D01*
X168976523Y-137831285D02*
X168976523Y-138508619D01*
X168976523Y-137928047D02*
X169024904Y-137879666D01*
X169121666Y-137831285D01*
X169266809Y-137831285D01*
X169363571Y-137879666D01*
X169411952Y-137976428D01*
X169411952Y-138508619D01*
X169847380Y-138460238D02*
X169944142Y-138508619D01*
X170137666Y-138508619D01*
X170234428Y-138460238D01*
X170282809Y-138363476D01*
X170282809Y-138315095D01*
X170234428Y-138218333D01*
X170137666Y-138169952D01*
X169992523Y-138169952D01*
X169895761Y-138121571D01*
X169847380Y-138024809D01*
X169847380Y-137976428D01*
X169895761Y-137879666D01*
X169992523Y-137831285D01*
X170137666Y-137831285D01*
X170234428Y-137879666D01*
X170863380Y-138508619D02*
X170766619Y-138460238D01*
X170718238Y-138411857D01*
X170669857Y-138315095D01*
X170669857Y-138024809D01*
X170718238Y-137928047D01*
X170766619Y-137879666D01*
X170863380Y-137831285D01*
X171008523Y-137831285D01*
X171105285Y-137879666D01*
X171153666Y-137928047D01*
X171202047Y-138024809D01*
X171202047Y-138315095D01*
X171153666Y-138411857D01*
X171105285Y-138460238D01*
X171008523Y-138508619D01*
X170863380Y-138508619D01*
X171637476Y-138508619D02*
X171637476Y-137831285D01*
X171637476Y-138024809D02*
X171685857Y-137928047D01*
X171734238Y-137879666D01*
X171831000Y-137831285D01*
X171927761Y-137831285D01*
X174803761Y-146437619D02*
X174803761Y-145421619D01*
X174803761Y-145905428D02*
X175384333Y-145905428D01*
X175384333Y-146437619D02*
X175384333Y-145421619D01*
X176448714Y-146437619D02*
X176110047Y-145953809D01*
X175868142Y-146437619D02*
X175868142Y-145421619D01*
X176255190Y-145421619D01*
X176351952Y-145470000D01*
X176400333Y-145518380D01*
X176448714Y-145615142D01*
X176448714Y-145760285D01*
X176400333Y-145857047D01*
X176351952Y-145905428D01*
X176255190Y-145953809D01*
X175868142Y-145953809D01*
X176884142Y-146437619D02*
X176884142Y-145421619D01*
X177222809Y-146147333D01*
X177561476Y-145421619D01*
X177561476Y-146437619D01*
X179254809Y-146437619D02*
X179254809Y-145421619D01*
X179254809Y-146389238D02*
X179158047Y-146437619D01*
X178964523Y-146437619D01*
X178867761Y-146389238D01*
X178819380Y-146340857D01*
X178771000Y-146244095D01*
X178771000Y-145953809D01*
X178819380Y-145857047D01*
X178867761Y-145808666D01*
X178964523Y-145760285D01*
X179158047Y-145760285D01*
X179254809Y-145808666D01*
X180125666Y-146389238D02*
X180028904Y-146437619D01*
X179835380Y-146437619D01*
X179738619Y-146389238D01*
X179690238Y-146292476D01*
X179690238Y-145905428D01*
X179738619Y-145808666D01*
X179835380Y-145760285D01*
X180028904Y-145760285D01*
X180125666Y-145808666D01*
X180174047Y-145905428D01*
X180174047Y-146002190D01*
X179690238Y-146098952D01*
X180512714Y-145760285D02*
X180754619Y-146437619D01*
X180996523Y-145760285D01*
X181383571Y-146437619D02*
X181383571Y-145760285D01*
X181383571Y-145421619D02*
X181335190Y-145470000D01*
X181383571Y-145518380D01*
X181431952Y-145470000D01*
X181383571Y-145421619D01*
X181383571Y-145518380D01*
X182302809Y-146389238D02*
X182206047Y-146437619D01*
X182012523Y-146437619D01*
X181915761Y-146389238D01*
X181867380Y-146340857D01*
X181819000Y-146244095D01*
X181819000Y-145953809D01*
X181867380Y-145857047D01*
X181915761Y-145808666D01*
X182012523Y-145760285D01*
X182206047Y-145760285D01*
X182302809Y-145808666D01*
X183125285Y-146389238D02*
X183028523Y-146437619D01*
X182835000Y-146437619D01*
X182738238Y-146389238D01*
X182689857Y-146292476D01*
X182689857Y-145905428D01*
X182738238Y-145808666D01*
X182835000Y-145760285D01*
X183028523Y-145760285D01*
X183125285Y-145808666D01*
X183173666Y-145905428D01*
X183173666Y-146002190D01*
X182689857Y-146098952D01*
X184383190Y-146050571D02*
X185157285Y-146050571D01*
X186318428Y-145760285D02*
X186560333Y-146437619D01*
X186802238Y-145760285D01*
X187576333Y-146389238D02*
X187479571Y-146437619D01*
X187286047Y-146437619D01*
X187189285Y-146389238D01*
X187140904Y-146292476D01*
X187140904Y-145905428D01*
X187189285Y-145808666D01*
X187286047Y-145760285D01*
X187479571Y-145760285D01*
X187576333Y-145808666D01*
X187624714Y-145905428D01*
X187624714Y-146002190D01*
X187140904Y-146098952D01*
X188060142Y-146437619D02*
X188060142Y-145760285D01*
X188060142Y-145953809D02*
X188108523Y-145857047D01*
X188156904Y-145808666D01*
X188253666Y-145760285D01*
X188350428Y-145760285D01*
X188689095Y-146340857D02*
X188737476Y-146389238D01*
X188689095Y-146437619D01*
X188640714Y-146389238D01*
X188689095Y-146340857D01*
X188689095Y-146437619D01*
X190479190Y-146437619D02*
X189898619Y-146437619D01*
X190188904Y-146437619D02*
X190188904Y-145421619D01*
X190092142Y-145566761D01*
X189995380Y-145663523D01*
X189898619Y-145711904D01*
X190914619Y-146340857D02*
X190963000Y-146389238D01*
X190914619Y-146437619D01*
X190866238Y-146389238D01*
X190914619Y-146340857D01*
X190914619Y-146437619D01*
X191591952Y-145421619D02*
X191688714Y-145421619D01*
X191785476Y-145470000D01*
X191833857Y-145518380D01*
X191882238Y-145615142D01*
X191930619Y-145808666D01*
X191930619Y-146050571D01*
X191882238Y-146244095D01*
X191833857Y-146340857D01*
X191785476Y-146389238D01*
X191688714Y-146437619D01*
X191591952Y-146437619D01*
X191495190Y-146389238D01*
X191446809Y-146340857D01*
X191398428Y-146244095D01*
X191350047Y-146050571D01*
X191350047Y-145808666D01*
X191398428Y-145615142D01*
X191446809Y-145518380D01*
X191495190Y-145470000D01*
X191591952Y-145421619D01*
X177280904Y-148541619D02*
X177280904Y-147525619D01*
X177522809Y-147525619D01*
X177667952Y-147574000D01*
X177764714Y-147670761D01*
X177813095Y-147767523D01*
X177861476Y-147961047D01*
X177861476Y-148106190D01*
X177813095Y-148299714D01*
X177764714Y-148396476D01*
X177667952Y-148493238D01*
X177522809Y-148541619D01*
X177280904Y-148541619D01*
X178683952Y-148493238D02*
X178587190Y-148541619D01*
X178393666Y-148541619D01*
X178296904Y-148493238D01*
X178248523Y-148396476D01*
X178248523Y-148009428D01*
X178296904Y-147912666D01*
X178393666Y-147864285D01*
X178587190Y-147864285D01*
X178683952Y-147912666D01*
X178732333Y-148009428D01*
X178732333Y-148106190D01*
X178248523Y-148202952D01*
X179119380Y-148493238D02*
X179216142Y-148541619D01*
X179409666Y-148541619D01*
X179506428Y-148493238D01*
X179554809Y-148396476D01*
X179554809Y-148348095D01*
X179506428Y-148251333D01*
X179409666Y-148202952D01*
X179264523Y-148202952D01*
X179167761Y-148154571D01*
X179119380Y-148057809D01*
X179119380Y-148009428D01*
X179167761Y-147912666D01*
X179264523Y-147864285D01*
X179409666Y-147864285D01*
X179506428Y-147912666D01*
X179990238Y-148541619D02*
X179990238Y-147864285D01*
X179990238Y-147525619D02*
X179941857Y-147574000D01*
X179990238Y-147622380D01*
X180038619Y-147574000D01*
X179990238Y-147525619D01*
X179990238Y-147622380D01*
X180909476Y-147864285D02*
X180909476Y-148686761D01*
X180861095Y-148783523D01*
X180812714Y-148831904D01*
X180715952Y-148880285D01*
X180570809Y-148880285D01*
X180474047Y-148831904D01*
X180909476Y-148493238D02*
X180812714Y-148541619D01*
X180619190Y-148541619D01*
X180522428Y-148493238D01*
X180474047Y-148444857D01*
X180425666Y-148348095D01*
X180425666Y-148057809D01*
X180474047Y-147961047D01*
X180522428Y-147912666D01*
X180619190Y-147864285D01*
X180812714Y-147864285D01*
X180909476Y-147912666D01*
X181393285Y-147864285D02*
X181393285Y-148541619D01*
X181393285Y-147961047D02*
X181441666Y-147912666D01*
X181538428Y-147864285D01*
X181683571Y-147864285D01*
X181780333Y-147912666D01*
X181828714Y-148009428D01*
X181828714Y-148541619D01*
X182699571Y-148493238D02*
X182602809Y-148541619D01*
X182409285Y-148541619D01*
X182312523Y-148493238D01*
X182264142Y-148396476D01*
X182264142Y-148009428D01*
X182312523Y-147912666D01*
X182409285Y-147864285D01*
X182602809Y-147864285D01*
X182699571Y-147912666D01*
X182747952Y-148009428D01*
X182747952Y-148106190D01*
X182264142Y-148202952D01*
X183618809Y-148541619D02*
X183618809Y-147525619D01*
X183618809Y-148493238D02*
X183522047Y-148541619D01*
X183328523Y-148541619D01*
X183231761Y-148493238D01*
X183183380Y-148444857D01*
X183135000Y-148348095D01*
X183135000Y-148057809D01*
X183183380Y-147961047D01*
X183231761Y-147912666D01*
X183328523Y-147864285D01*
X183522047Y-147864285D01*
X183618809Y-147912666D01*
X184876714Y-148541619D02*
X184876714Y-147525619D01*
X184876714Y-147912666D02*
X184973476Y-147864285D01*
X185167000Y-147864285D01*
X185263761Y-147912666D01*
X185312142Y-147961047D01*
X185360523Y-148057809D01*
X185360523Y-148348095D01*
X185312142Y-148444857D01*
X185263761Y-148493238D01*
X185167000Y-148541619D01*
X184973476Y-148541619D01*
X184876714Y-148493238D01*
X185699190Y-147864285D02*
X185941095Y-148541619D01*
X186183000Y-147864285D02*
X185941095Y-148541619D01*
X185844333Y-148783523D01*
X185795952Y-148831904D01*
X185699190Y-148880285D01*
X187537666Y-147525619D02*
X187731190Y-147525619D01*
X187827952Y-147574000D01*
X187924714Y-147670761D01*
X187973095Y-147864285D01*
X187973095Y-148202952D01*
X187924714Y-148396476D01*
X187827952Y-148493238D01*
X187731190Y-148541619D01*
X187537666Y-148541619D01*
X187440904Y-148493238D01*
X187344142Y-148396476D01*
X187295761Y-148202952D01*
X187295761Y-147864285D01*
X187344142Y-147670761D01*
X187440904Y-147574000D01*
X187537666Y-147525619D01*
X188747190Y-148009428D02*
X188892333Y-148057809D01*
X188940714Y-148106190D01*
X188989095Y-148202952D01*
X188989095Y-148348095D01*
X188940714Y-148444857D01*
X188892333Y-148493238D01*
X188795571Y-148541619D01*
X188408523Y-148541619D01*
X188408523Y-147525619D01*
X188747190Y-147525619D01*
X188843952Y-147574000D01*
X188892333Y-147622380D01*
X188940714Y-147719142D01*
X188940714Y-147815904D01*
X188892333Y-147912666D01*
X188843952Y-147961047D01*
X188747190Y-148009428D01*
X188408523Y-148009428D01*
X189424523Y-147525619D02*
X189424523Y-148348095D01*
X189472904Y-148444857D01*
X189521285Y-148493238D01*
X189618047Y-148541619D01*
X189811571Y-148541619D01*
X189908333Y-148493238D01*
X189956714Y-148444857D01*
X190005095Y-148348095D01*
X190005095Y-147525619D01*
D12*
X196856047Y-98249619D02*
X197049571Y-98249619D01*
X197146333Y-98298000D01*
X197243095Y-98394761D01*
X197291476Y-98588285D01*
X197291476Y-98926952D01*
X197243095Y-99120476D01*
X197146333Y-99217238D01*
X197049571Y-99265619D01*
X196856047Y-99265619D01*
X196759285Y-99217238D01*
X196662523Y-99120476D01*
X196614142Y-98926952D01*
X196614142Y-98588285D01*
X196662523Y-98394761D01*
X196759285Y-98298000D01*
X196856047Y-98249619D01*
X197726904Y-99265619D02*
X197726904Y-98249619D01*
X198307476Y-99265619D01*
X198307476Y-98249619D01*
D10*
X200977500Y-98651785D02*
X200947261Y-98682023D01*
X200856547Y-98712261D01*
X200796071Y-98712261D01*
X200705357Y-98682023D01*
X200644880Y-98621547D01*
X200614642Y-98561071D01*
X200584404Y-98440119D01*
X200584404Y-98349404D01*
X200614642Y-98228452D01*
X200644880Y-98167976D01*
X200705357Y-98107500D01*
X200796071Y-98077261D01*
X200856547Y-98077261D01*
X200947261Y-98107500D01*
X200977500Y-98137738D01*
X201249642Y-98712261D02*
X201249642Y-98077261D01*
X201521785Y-98712261D02*
X201521785Y-98379642D01*
X201491547Y-98319166D01*
X201431071Y-98288928D01*
X201340357Y-98288928D01*
X201279880Y-98319166D01*
X201249642Y-98349404D01*
X202096309Y-98712261D02*
X202096309Y-98379642D01*
X202066071Y-98319166D01*
X202005595Y-98288928D01*
X201884642Y-98288928D01*
X201824166Y-98319166D01*
X202096309Y-98682023D02*
X202035833Y-98712261D01*
X201884642Y-98712261D01*
X201824166Y-98682023D01*
X201793928Y-98621547D01*
X201793928Y-98561071D01*
X201824166Y-98500595D01*
X201884642Y-98470357D01*
X202035833Y-98470357D01*
X202096309Y-98440119D01*
X202398690Y-98712261D02*
X202398690Y-98288928D01*
X202398690Y-98409880D02*
X202428928Y-98349404D01*
X202459166Y-98319166D01*
X202519642Y-98288928D01*
X202580119Y-98288928D01*
X203063928Y-98288928D02*
X203063928Y-98802976D01*
X203033690Y-98863452D01*
X203003452Y-98893690D01*
X202942976Y-98923928D01*
X202852261Y-98923928D01*
X202791785Y-98893690D01*
X203063928Y-98682023D02*
X203003452Y-98712261D01*
X202882500Y-98712261D01*
X202822023Y-98682023D01*
X202791785Y-98651785D01*
X202761547Y-98591309D01*
X202761547Y-98409880D01*
X202791785Y-98349404D01*
X202822023Y-98319166D01*
X202882500Y-98288928D01*
X203003452Y-98288928D01*
X203063928Y-98319166D01*
X203366309Y-98712261D02*
X203366309Y-98288928D01*
X203366309Y-98077261D02*
X203336071Y-98107500D01*
X203366309Y-98137738D01*
X203396547Y-98107500D01*
X203366309Y-98077261D01*
X203366309Y-98137738D01*
X203668690Y-98288928D02*
X203668690Y-98712261D01*
X203668690Y-98349404D02*
X203698928Y-98319166D01*
X203759404Y-98288928D01*
X203850119Y-98288928D01*
X203910595Y-98319166D01*
X203940833Y-98379642D01*
X203940833Y-98712261D01*
X204515357Y-98288928D02*
X204515357Y-98802976D01*
X204485119Y-98863452D01*
X204454880Y-98893690D01*
X204394404Y-98923928D01*
X204303690Y-98923928D01*
X204243214Y-98893690D01*
X204515357Y-98682023D02*
X204454880Y-98712261D01*
X204333928Y-98712261D01*
X204273452Y-98682023D01*
X204243214Y-98651785D01*
X204212976Y-98591309D01*
X204212976Y-98409880D01*
X204243214Y-98349404D01*
X204273452Y-98319166D01*
X204333928Y-98288928D01*
X204454880Y-98288928D01*
X204515357Y-98319166D01*
X206350809Y-98778785D02*
X206320571Y-98809023D01*
X206229857Y-98839261D01*
X206169380Y-98839261D01*
X206078666Y-98809023D01*
X206018190Y-98748547D01*
X205987952Y-98688071D01*
X205957714Y-98567119D01*
X205957714Y-98476404D01*
X205987952Y-98355452D01*
X206018190Y-98294976D01*
X206078666Y-98234500D01*
X206169380Y-98204261D01*
X206229857Y-98204261D01*
X206320571Y-98234500D01*
X206350809Y-98264738D01*
X206622952Y-98839261D02*
X206622952Y-98204261D01*
X206895095Y-98839261D02*
X206895095Y-98506642D01*
X206864857Y-98446166D01*
X206804380Y-98415928D01*
X206713666Y-98415928D01*
X206653190Y-98446166D01*
X206622952Y-98476404D01*
X207469619Y-98839261D02*
X207469619Y-98506642D01*
X207439380Y-98446166D01*
X207378904Y-98415928D01*
X207257952Y-98415928D01*
X207197476Y-98446166D01*
X207469619Y-98809023D02*
X207409142Y-98839261D01*
X207257952Y-98839261D01*
X207197476Y-98809023D01*
X207167238Y-98748547D01*
X207167238Y-98688071D01*
X207197476Y-98627595D01*
X207257952Y-98597357D01*
X207409142Y-98597357D01*
X207469619Y-98567119D01*
X207772000Y-98839261D02*
X207772000Y-98415928D01*
X207772000Y-98536880D02*
X207802238Y-98476404D01*
X207832476Y-98446166D01*
X207892952Y-98415928D01*
X207953428Y-98415928D01*
X208437238Y-98415928D02*
X208437238Y-98929976D01*
X208407000Y-98990452D01*
X208376761Y-99020690D01*
X208316285Y-99050928D01*
X208225571Y-99050928D01*
X208165095Y-99020690D01*
X208437238Y-98809023D02*
X208376761Y-98839261D01*
X208255809Y-98839261D01*
X208195333Y-98809023D01*
X208165095Y-98778785D01*
X208134857Y-98718309D01*
X208134857Y-98536880D01*
X208165095Y-98476404D01*
X208195333Y-98446166D01*
X208255809Y-98415928D01*
X208376761Y-98415928D01*
X208437238Y-98446166D01*
X208981523Y-98809023D02*
X208921047Y-98839261D01*
X208800095Y-98839261D01*
X208739619Y-98809023D01*
X208709380Y-98748547D01*
X208709380Y-98506642D01*
X208739619Y-98446166D01*
X208800095Y-98415928D01*
X208921047Y-98415928D01*
X208981523Y-98446166D01*
X209011761Y-98506642D01*
X209011761Y-98567119D01*
X208709380Y-98627595D01*
X209556047Y-98839261D02*
X209556047Y-98204261D01*
X209556047Y-98809023D02*
X209495571Y-98839261D01*
X209374619Y-98839261D01*
X209314142Y-98809023D01*
X209283904Y-98778785D01*
X209253666Y-98718309D01*
X209253666Y-98536880D01*
X209283904Y-98476404D01*
X209314142Y-98446166D01*
X209374619Y-98415928D01*
X209495571Y-98415928D01*
X209556047Y-98446166D01*
D13*
X155354000Y-138772000D02*
X155343000Y-150578000D01*
X173642000Y-138772000D02*
X155354000Y-138772000D01*
X173643000Y-150578000D02*
X173642000Y-138772000D01*
X155343000Y-150578000D02*
X173632000Y-150578000D01*
D14*
X202520000Y-103396500D02*
X202520000Y-104158500D01*
X202520000Y-103396500D02*
X199980000Y-103396500D01*
X199980000Y-103396500D02*
X199980000Y-104158500D01*
X199980000Y-108603500D02*
X199980000Y-107841500D01*
X202520000Y-108603500D02*
X202520000Y-107841500D01*
X199980000Y-108603500D02*
X202520000Y-108603500D01*
X149740000Y-116050000D02*
X149740000Y-101350000D01*
X179140000Y-116050000D02*
X149740000Y-116050000D01*
X179140000Y-101350000D02*
X179140000Y-116050000D01*
X149740000Y-101350000D02*
X179140000Y-101350000D01*
X146750000Y-127500000D02*
X146750000Y-94000000D01*
X182150000Y-127500000D02*
X146750000Y-127500000D01*
X182150000Y-94000000D02*
X182150000Y-127500000D01*
X146750000Y-94000000D02*
X182150000Y-94000000D01*
X124980000Y-121405000D02*
X124980000Y-127865000D01*
X118520000Y-121405000D02*
X124980000Y-121405000D01*
X118520000Y-127865000D02*
X124980000Y-127865000D01*
X118520000Y-121405000D02*
X118520000Y-127865000D01*
X131770000Y-121405000D02*
X131770000Y-127865000D01*
X131770000Y-127865000D02*
X138230000Y-127865000D01*
X131770000Y-121405000D02*
X138230000Y-121405000D01*
X138230000Y-121405000D02*
X138230000Y-127865000D01*
X145995000Y-128723000D02*
X145995000Y-135183000D01*
X145995000Y-135183000D02*
X152455000Y-135183000D01*
X145995000Y-128723000D02*
X152455000Y-128723000D01*
X152455000Y-128723000D02*
X152455000Y-135183000D01*
X179125000Y-128723000D02*
X179125000Y-135183000D01*
X172665000Y-128723000D02*
X179125000Y-128723000D01*
X172665000Y-135183000D02*
X179125000Y-135183000D01*
X172665000Y-128723000D02*
X172665000Y-135183000D01*
X119888000Y-118745000D02*
X119888000Y-120777000D01*
X123952000Y-120777000D02*
X123952000Y-118745000D01*
X123952000Y-120777000D02*
X123317000Y-120777000D01*
X123952000Y-118745000D02*
X123317000Y-118745000D01*
X120523000Y-120777000D02*
X119888000Y-120777000D01*
X120523000Y-118745000D02*
X119888000Y-118745000D01*
X204494500Y-121591500D02*
X206526500Y-121591500D01*
X206526500Y-117527500D02*
X204494500Y-117527500D01*
X206526500Y-117527500D02*
X206526500Y-118162500D01*
X204494500Y-117527500D02*
X204494500Y-118162500D01*
X206526500Y-120956500D02*
X206526500Y-121591500D01*
X204494500Y-120956500D02*
X204494500Y-121591500D01*
X197540000Y-108712000D02*
X198175000Y-108712000D01*
X197540000Y-106680000D02*
X198175000Y-106680000D01*
X194111000Y-108712000D02*
X194746000Y-108712000D01*
X194111000Y-106680000D02*
X194746000Y-106680000D01*
X194111000Y-106680000D02*
X194111000Y-108712000D01*
X198175000Y-108712000D02*
X198175000Y-106680000D01*
X150710500Y-142439000D02*
X150710500Y-141804000D01*
X148678500Y-142439000D02*
X148678500Y-141804000D01*
X150710500Y-145868000D02*
X150710500Y-145233000D01*
X148678500Y-145868000D02*
X148678500Y-145233000D01*
X148678500Y-145868000D02*
X150710500Y-145868000D01*
X150710500Y-141804000D02*
X148678500Y-141804000D01*
X169580000Y-145287000D02*
X169580000Y-144652000D01*
X167548000Y-145287000D02*
X167548000Y-144652000D01*
X169580000Y-148716000D02*
X169580000Y-148081000D01*
X167548000Y-148716000D02*
X167548000Y-148081000D01*
X167548000Y-148716000D02*
X169580000Y-148716000D01*
X169580000Y-144652000D02*
X167548000Y-144652000D01*
X169580000Y-141223000D02*
X169580000Y-140588000D01*
X167548000Y-141223000D02*
X167548000Y-140588000D01*
X169580000Y-144652000D02*
X169580000Y-144017000D01*
X167548000Y-144652000D02*
X167548000Y-144017000D01*
X167548000Y-144652000D02*
X169580000Y-144652000D01*
X169580000Y-140588000D02*
X167548000Y-140588000D01*
X165884000Y-148932000D02*
X166519000Y-148932000D01*
X165884000Y-146900000D02*
X166519000Y-146900000D01*
X162455000Y-148932000D02*
X163090000Y-148932000D01*
X162455000Y-146900000D02*
X163090000Y-146900000D01*
X162455000Y-146900000D02*
X162455000Y-148932000D01*
X166519000Y-148932000D02*
X166519000Y-146900000D01*
X159537000Y-148662000D02*
X159537000Y-149297000D01*
X161569000Y-148662000D02*
X161569000Y-149297000D01*
X159537000Y-145233000D02*
X159537000Y-145868000D01*
X161569000Y-145233000D02*
X161569000Y-145868000D01*
X161569000Y-145233000D02*
X159537000Y-145233000D01*
X159537000Y-149297000D02*
X161569000Y-149297000D01*
X161569000Y-141169000D02*
X159537000Y-141169000D01*
X159537000Y-145233000D02*
X161569000Y-145233000D01*
X159537000Y-145233000D02*
X159537000Y-144598000D01*
X161569000Y-145233000D02*
X161569000Y-144598000D01*
X159537000Y-141804000D02*
X159537000Y-141169000D01*
X161569000Y-141804000D02*
X161569000Y-141169000D01*
D13*
X195750000Y-115500000D02*
X195750000Y-115250000D01*
X195750000Y-115250000D02*
X200250000Y-115250000D01*
X200250000Y-115250000D02*
X200250000Y-115500000D01*
X195750000Y-118000000D02*
X195750000Y-118250000D01*
X195750000Y-118250000D02*
X200250000Y-118250000D01*
X200250000Y-118250000D02*
X200250000Y-118000000D01*
X197250000Y-115500000D02*
X197250000Y-118250000D01*
X197250000Y-115250000D02*
X197250000Y-115500000D01*
D14*
X198381000Y-116242000D02*
X198381000Y-117258000D01*
X198381000Y-116242000D02*
X197619000Y-116750000D01*
X197619000Y-116750000D02*
X198381000Y-117258000D01*
X197619000Y-116242000D02*
X197619000Y-117258000D01*
X207929000Y-108952000D02*
X207929000Y-110095000D01*
X207929000Y-115048000D02*
X207929000Y-113905000D01*
X201071000Y-115048000D02*
X201071000Y-113905000D01*
X201071000Y-108952000D02*
X201071000Y-110095000D01*
X203103000Y-108952000D02*
X203103000Y-115048000D01*
X201071000Y-115048000D02*
X207929000Y-115048000D01*
X207929000Y-108952000D02*
X201071000Y-108952000D01*
X204119000Y-112000000D02*
X204881000Y-111492000D01*
X204881000Y-111492000D02*
X204881000Y-112508000D01*
X204881000Y-112508000D02*
X204119000Y-112000000D01*
X204119000Y-111492000D02*
X204119000Y-112508000D01*
X204494500Y-117527500D02*
X202462500Y-117527500D01*
X202462500Y-121591500D02*
X204494500Y-121591500D01*
X202462500Y-121591500D02*
X202462500Y-120956500D01*
X204494500Y-121591500D02*
X204494500Y-120956500D01*
X202462500Y-118162500D02*
X202462500Y-117527500D01*
X204494500Y-118162500D02*
X204494500Y-117527500D01*
X208558500Y-117527500D02*
X208558500Y-115495500D01*
X204494500Y-115495500D02*
X204494500Y-117527500D01*
X204494500Y-115495500D02*
X205129500Y-115495500D01*
X204494500Y-117527500D02*
X205129500Y-117527500D01*
X207923500Y-115495500D02*
X208558500Y-115495500D01*
X207923500Y-117527500D02*
X208558500Y-117527500D01*
X210237500Y-123015000D02*
X210237500Y-122565000D01*
X212087500Y-123015000D02*
X210237500Y-123015000D01*
X214637500Y-115215000D02*
X214387500Y-115215000D01*
X214637500Y-123015000D02*
X214387500Y-123015000D01*
X212087500Y-115215000D02*
X210237500Y-115215000D01*
X210237500Y-115215000D02*
X210237500Y-115665000D01*
X209687500Y-120815000D02*
X209687500Y-120365000D01*
X209687500Y-120815000D02*
X210137500Y-120815000D01*
D13*
X214141556Y-151478000D02*
G75*
G03X214141556Y-151478000I-1648556J0D01*
G01*
X118141556Y-95478000D02*
G75*
G03X118141556Y-95478000I-1648556J0D01*
G01*
X118141556Y-151478000D02*
G75*
G03X118141556Y-151478000I-1648556J0D01*
G01*
X214141556Y-95478000D02*
G75*
G03X214141556Y-95478000I-1648556J0D01*
G01*
D14*
X207579500Y-95619000D02*
X207579500Y-96381000D01*
X207617600Y-96000000D02*
X207998600Y-96381000D01*
X207998600Y-95619000D02*
X207617600Y-96000000D01*
X207998600Y-96381000D02*
X207998600Y-95619000D01*
X206210000Y-97080000D02*
X206210000Y-97236000D01*
X206210000Y-94764000D02*
X206210000Y-94920000D01*
X208811130Y-97079837D02*
G75*
G02X206729039Y-97080000I-1041130J1079837D01*
G01*
X208811130Y-94920163D02*
G75*
G03X206729039Y-94920000I-1041130J-1079837D01*
G01*
X209442335Y-97078608D02*
G75*
G02X206210000Y-97235516I-1672335J1078608D01*
G01*
X209442335Y-94921392D02*
G75*
G03X206210000Y-94764484I-1672335J-1078608D01*
G01*
X204442335Y-94921392D02*
G75*
G03X201210000Y-94764484I-1672335J-1078608D01*
G01*
X204442335Y-97078608D02*
G75*
G02X201210000Y-97235516I-1672335J1078608D01*
G01*
X203811130Y-94920163D02*
G75*
G03X201729039Y-94920000I-1041130J-1079837D01*
G01*
X203811130Y-97079837D02*
G75*
G02X201729039Y-97080000I-1041130J1079837D01*
G01*
X201210000Y-94764000D02*
X201210000Y-94920000D01*
X201210000Y-97080000D02*
X201210000Y-97236000D01*
X202998600Y-96381000D02*
X202998600Y-95619000D01*
X202998600Y-95619000D02*
X202617600Y-96000000D01*
X202617600Y-96000000D02*
X202998600Y-96381000D01*
X202579500Y-95619000D02*
X202579500Y-96381000D01*
X190181608Y-122195335D02*
G75*
G03X190338516Y-118963000I-1078608J1672335D01*
G01*
X188024392Y-122195335D02*
G75*
G02X187867484Y-118963000I1078608J1672335D01*
G01*
X190182837Y-121564130D02*
G75*
G03X190183000Y-119482039I-1079837J1041130D01*
G01*
X188023163Y-121564130D02*
G75*
G02X188023000Y-119482039I1079837J1041130D01*
G01*
X190339000Y-118963000D02*
X190183000Y-118963000D01*
X188023000Y-118963000D02*
X187867000Y-118963000D01*
X188722000Y-120751600D02*
X189484000Y-120751600D01*
X189484000Y-120751600D02*
X189103000Y-120370600D01*
X189103000Y-120370600D02*
X188722000Y-120751600D01*
X189484000Y-120332500D02*
X188722000Y-120332500D01*
X185039000Y-120329500D02*
X184277000Y-120329500D01*
X184658000Y-120367600D02*
X184277000Y-120748600D01*
X185039000Y-120748600D02*
X184658000Y-120367600D01*
X184277000Y-120748600D02*
X185039000Y-120748600D01*
X183578000Y-118960000D02*
X183422000Y-118960000D01*
X185894000Y-118960000D02*
X185738000Y-118960000D01*
X183578163Y-121561130D02*
G75*
G02X183578000Y-119479039I1079837J1041130D01*
G01*
X185737837Y-121561130D02*
G75*
G03X185738000Y-119479039I-1079837J1041130D01*
G01*
X183579392Y-122192335D02*
G75*
G02X183422484Y-118960000I1078608J1672335D01*
G01*
X185736608Y-122192335D02*
G75*
G03X185893516Y-118960000I-1078608J1672335D01*
G01*
X197329500Y-95619000D02*
X197329500Y-96381000D01*
X197367600Y-96000000D02*
X197748600Y-96381000D01*
X197748600Y-95619000D02*
X197367600Y-96000000D01*
X197748600Y-96381000D02*
X197748600Y-95619000D01*
X195960000Y-97080000D02*
X195960000Y-97236000D01*
X195960000Y-94764000D02*
X195960000Y-94920000D01*
X198561130Y-97079837D02*
G75*
G02X196479039Y-97080000I-1041130J1079837D01*
G01*
X198561130Y-94920163D02*
G75*
G03X196479039Y-94920000I-1041130J-1079837D01*
G01*
X199192335Y-97078608D02*
G75*
G02X195960000Y-97235516I-1672335J1078608D01*
G01*
X199192335Y-94921392D02*
G75*
G03X195960000Y-94764484I-1672335J-1078608D01*
G01*
X188722000Y-127825500D02*
X189484000Y-127825500D01*
X189103000Y-127787400D02*
X189484000Y-127406400D01*
X188722000Y-127406400D02*
X189103000Y-127787400D01*
X189484000Y-127406400D02*
X188722000Y-127406400D01*
X190183000Y-129195000D02*
X190339000Y-129195000D01*
X187867000Y-129195000D02*
X188023000Y-129195000D01*
X190182837Y-126593870D02*
G75*
G02X190183000Y-128675961I-1079837J-1041130D01*
G01*
X188023163Y-126593870D02*
G75*
G03X188023000Y-128675961I1079837J-1041130D01*
G01*
X190181608Y-125962665D02*
G75*
G02X190338516Y-129195000I-1078608J-1672335D01*
G01*
X188024392Y-125962665D02*
G75*
G03X187867484Y-129195000I1078608J-1672335D01*
G01*
X183579392Y-125962665D02*
G75*
G03X183422484Y-129195000I1078608J-1672335D01*
G01*
X185736608Y-125962665D02*
G75*
G02X185893516Y-129195000I-1078608J-1672335D01*
G01*
X183578163Y-126593870D02*
G75*
G03X183578000Y-128675961I1079837J-1041130D01*
G01*
X185737837Y-126593870D02*
G75*
G02X185738000Y-128675961I-1079837J-1041130D01*
G01*
X183422000Y-129195000D02*
X183578000Y-129195000D01*
X185738000Y-129195000D02*
X185894000Y-129195000D01*
X185039000Y-127406400D02*
X184277000Y-127406400D01*
X184277000Y-127406400D02*
X184658000Y-127787400D01*
X184658000Y-127787400D02*
X185039000Y-127406400D01*
X184277000Y-127825500D02*
X185039000Y-127825500D01*
X194250000Y-100690000D02*
X192300000Y-100690000D01*
X194250000Y-100690000D02*
X196200000Y-100690000D01*
X194250000Y-105810000D02*
X192300000Y-105810000D01*
X194250000Y-105810000D02*
X197700000Y-105810000D01*
X190410500Y-109057000D02*
X191870500Y-109057000D01*
X190410500Y-112217000D02*
X192570500Y-112217000D01*
X190410500Y-112217000D02*
X190410500Y-111287000D01*
X190410500Y-109057000D02*
X190410500Y-109987000D01*
X186361000Y-98933000D02*
X186361000Y-99568000D01*
X188393000Y-98933000D02*
X188393000Y-99568000D01*
X186361000Y-95504000D02*
X186361000Y-96139000D01*
X188393000Y-95504000D02*
X188393000Y-96139000D01*
X188393000Y-95504000D02*
X186361000Y-95504000D01*
X186361000Y-99568000D02*
X188393000Y-99568000D01*
X184277000Y-99568000D02*
X186309000Y-99568000D01*
X186309000Y-95504000D02*
X184277000Y-95504000D01*
X186309000Y-95504000D02*
X186309000Y-96139000D01*
X184277000Y-95504000D02*
X184277000Y-96139000D01*
X186309000Y-98933000D02*
X186309000Y-99568000D01*
X184277000Y-98933000D02*
X184277000Y-99568000D01*
X193421000Y-108712000D02*
X194056000Y-108712000D01*
X193421000Y-106680000D02*
X194056000Y-106680000D01*
X189992000Y-108712000D02*
X190627000Y-108712000D01*
X189992000Y-106680000D02*
X190627000Y-106680000D01*
X189992000Y-106680000D02*
X189992000Y-108712000D01*
X194056000Y-108712000D02*
X194056000Y-106680000D01*
X187960000Y-108712000D02*
X189992000Y-108712000D01*
X189992000Y-104648000D02*
X187960000Y-104648000D01*
X189992000Y-104648000D02*
X189992000Y-105283000D01*
X187960000Y-104648000D02*
X187960000Y-105283000D01*
X189992000Y-108077000D02*
X189992000Y-108712000D01*
X187960000Y-108077000D02*
X187960000Y-108712000D01*
X193075500Y-112776000D02*
X195107500Y-112776000D01*
X195107500Y-108712000D02*
X193075500Y-108712000D01*
X195107500Y-108712000D02*
X195107500Y-109347000D01*
X193075500Y-108712000D02*
X193075500Y-109347000D01*
X195107500Y-112141000D02*
X195107500Y-112776000D01*
X193075500Y-112141000D02*
X193075500Y-112776000D01*
X173644000Y-146684000D02*
X173644000Y-144652000D01*
X169580000Y-144652000D02*
X169580000Y-146684000D01*
X169580000Y-144652000D02*
X170215000Y-144652000D01*
X169580000Y-146684000D02*
X170215000Y-146684000D01*
X173009000Y-144652000D02*
X173644000Y-144652000D01*
X173009000Y-146684000D02*
X173644000Y-146684000D01*
X152908000Y-145349000D02*
X152908000Y-147381000D01*
X156972000Y-147381000D02*
X156972000Y-145349000D01*
X156972000Y-147381000D02*
X156337000Y-147381000D01*
X156972000Y-145349000D02*
X156337000Y-145349000D01*
X153543000Y-147381000D02*
X152908000Y-147381000D01*
X153543000Y-145349000D02*
X152908000Y-145349000D01*
X196938000Y-124195000D02*
X196938000Y-122163000D01*
X192874000Y-122163000D02*
X192874000Y-124195000D01*
X192874000Y-122163000D02*
X193509000Y-122163000D01*
X192874000Y-124195000D02*
X193509000Y-124195000D01*
X196303000Y-122163000D02*
X196938000Y-122163000D01*
X196303000Y-124195000D02*
X196938000Y-124195000D01*
X173644000Y-144652000D02*
X173644000Y-142620000D01*
X169580000Y-142620000D02*
X169580000Y-144652000D01*
X169580000Y-142620000D02*
X170215000Y-142620000D01*
X169580000Y-144652000D02*
X170215000Y-144652000D01*
X173009000Y-142620000D02*
X173644000Y-142620000D01*
X173009000Y-144652000D02*
X173644000Y-144652000D01*
X193509000Y-124195000D02*
X192874000Y-124195000D01*
X193509000Y-126227000D02*
X192874000Y-126227000D01*
X196938000Y-124195000D02*
X196303000Y-124195000D01*
X196938000Y-126227000D02*
X196303000Y-126227000D01*
X196938000Y-126227000D02*
X196938000Y-124195000D01*
X192874000Y-124195000D02*
X192874000Y-126227000D01*
D13*
X202653000Y-99217000D02*
X213879000Y-99217000D01*
X202598000Y-107517000D02*
X213879000Y-107517000D01*
X213879000Y-107517000D02*
X213879000Y-99217000D01*
X202598000Y-107517000D02*
X202598000Y-99217000D01*
X213879000Y-105117000D02*
X219479000Y-105117000D01*
X213879000Y-101617000D02*
X219479000Y-101617000D01*
X219489000Y-105117000D02*
X219489000Y-101617000D01*
X219489000Y-104167000D02*
X224879000Y-104867000D01*
X219489000Y-102567000D02*
X224879000Y-101867000D01*
X224889000Y-101867000D02*
G75*
G02X224889000Y-104867000I0J-1500000D01*
G01*
D14*
X193989000Y-97342000D02*
X193989000Y-94682000D01*
X191389000Y-97342000D02*
X193989000Y-97342000D01*
X191389000Y-94682000D02*
X193989000Y-94682000D01*
X191389000Y-97342000D02*
X191389000Y-94682000D01*
X190119000Y-97342000D02*
X188789000Y-97342000D01*
X188789000Y-97342000D02*
X188789000Y-96012000D01*
X197772500Y-112217000D02*
X196312500Y-112217000D01*
X197772500Y-109057000D02*
X195612500Y-109057000D01*
X197772500Y-109057000D02*
X197772500Y-109987000D01*
X197772500Y-112217000D02*
X197772500Y-111287000D01*
X152133000Y-142863000D02*
X153733000Y-142863000D01*
X153683000Y-142863000D02*
X153733000Y-142863000D01*
X153733000Y-142863000D02*
X153733000Y-143013000D01*
X152133000Y-145063000D02*
X153733000Y-145063000D01*
X152133000Y-142863000D02*
X152133000Y-143013000D01*
X152133000Y-145063000D02*
X152133000Y-144913000D01*
X153733000Y-145063000D02*
X153733000Y-144913000D01*
D13*
X120630000Y-98885000D02*
X120630000Y-116885000D01*
X114630000Y-116885000D02*
X140130000Y-116885000D01*
X114630000Y-98885000D02*
X140130000Y-98885000D01*
X140130000Y-98885000D02*
X140130000Y-116885000D01*
X114630000Y-98885000D02*
X114630000Y-116885000D01*
D14*
X197446000Y-122099500D02*
X196684000Y-122099500D01*
X197446000Y-122099500D02*
X197446000Y-119559500D01*
X197446000Y-119559500D02*
X196684000Y-119559500D01*
X192239000Y-119559500D02*
X193001000Y-119559500D01*
X192239000Y-122099500D02*
X193001000Y-122099500D01*
X192239000Y-119559500D02*
X192239000Y-122099500D01*
X159545000Y-141756500D02*
X159545000Y-142518500D01*
X159545000Y-141756500D02*
X157005000Y-141756500D01*
X157005000Y-141756500D02*
X157005000Y-142518500D01*
X157005000Y-146963500D02*
X157005000Y-146201500D01*
X159545000Y-146963500D02*
X159545000Y-146201500D01*
X157005000Y-146963500D02*
X159545000Y-146963500D01*
X146646500Y-145233000D02*
X146646500Y-145868000D01*
X148678500Y-145233000D02*
X148678500Y-145868000D01*
X146646500Y-141804000D02*
X146646500Y-142439000D01*
X148678500Y-141804000D02*
X148678500Y-142439000D01*
X148678500Y-141804000D02*
X146646500Y-141804000D01*
X146646500Y-145868000D02*
X148678500Y-145868000D01*
X162837000Y-140665000D02*
X162837000Y-140815000D01*
X166137000Y-140665000D02*
X166137000Y-140815000D01*
X166137000Y-146465000D02*
X166137000Y-146365000D01*
X162837000Y-146465000D02*
X162837000Y-146365000D01*
X166137000Y-140665000D02*
X162837000Y-140665000D01*
X166137000Y-146465000D02*
X162837000Y-146465000D01*
X192750000Y-152600000D02*
X192750000Y-131600000D01*
X208750000Y-152600000D02*
X192750000Y-152600000D01*
X208750000Y-131600000D02*
X208750000Y-152600000D01*
X192750000Y-131600000D02*
X208750000Y-131600000D01*
X120000000Y-131600000D02*
X136000000Y-131600000D01*
X136000000Y-131600000D02*
X136000000Y-152600000D01*
X136000000Y-152600000D02*
X120000000Y-152600000D01*
X120000000Y-152600000D02*
X120000000Y-131600000D01*
X124908000Y-94047000D02*
X124908000Y-96707000D01*
X135128000Y-94047000D02*
X124908000Y-94047000D01*
X135128000Y-96707000D02*
X124908000Y-96707000D01*
X135128000Y-94047000D02*
X135128000Y-96707000D01*
X136398000Y-94047000D02*
X137728000Y-94047000D01*
X137728000Y-94047000D02*
X137728000Y-95377000D01*
X176973000Y-149548000D02*
X176973000Y-152208000D01*
X179573000Y-149548000D02*
X176973000Y-149548000D01*
X179573000Y-152208000D02*
X176973000Y-152208000D01*
X179573000Y-149548000D02*
X179573000Y-152208000D01*
X180843000Y-149548000D02*
X182173000Y-149548000D01*
X182173000Y-149548000D02*
X182173000Y-150878000D01*
X165790000Y-128723000D02*
X165790000Y-135183000D01*
X159330000Y-128723000D02*
X165790000Y-128723000D01*
X159330000Y-135183000D02*
X165790000Y-135183000D01*
X159330000Y-128723000D02*
X159330000Y-135183000D01*
D13*
X173105034Y-140315000D02*
G75*
G03X173105034Y-140315000I-1118034J0D01*
G01*
X158105034Y-140315000D02*
G75*
G03X158105034Y-140315000I-1118034J0D01*
G01*
X173105034Y-148792000D02*
G75*
G03X173105034Y-148792000I-1118034J0D01*
G01*
X158105034Y-148792000D02*
G75*
G03X158105034Y-148792000I-1118034J0D01*
G01*
D10*
X200974833Y-102805042D02*
X200763166Y-102805042D01*
X200763166Y-103137661D02*
X200763166Y-102502661D01*
X201065547Y-102502661D01*
X201640071Y-103137661D02*
X201277214Y-103137661D01*
X201458642Y-103137661D02*
X201458642Y-102502661D01*
X201398166Y-102593376D01*
X201337690Y-102653852D01*
X201277214Y-102684090D01*
X145838333Y-94140261D02*
X145838333Y-94593833D01*
X145808095Y-94684547D01*
X145747619Y-94745023D01*
X145656904Y-94775261D01*
X145596428Y-94775261D01*
X146412857Y-94351928D02*
X146412857Y-94775261D01*
X146261666Y-94110023D02*
X146110476Y-94563595D01*
X146503571Y-94563595D01*
X171944166Y-94726785D02*
X171913928Y-94757023D01*
X171823214Y-94787261D01*
X171762738Y-94787261D01*
X171672023Y-94757023D01*
X171611547Y-94696547D01*
X171581309Y-94636071D01*
X171551071Y-94515119D01*
X171551071Y-94424404D01*
X171581309Y-94303452D01*
X171611547Y-94242976D01*
X171672023Y-94182500D01*
X171762738Y-94152261D01*
X171823214Y-94152261D01*
X171913928Y-94182500D01*
X171944166Y-94212738D01*
X172186071Y-94757023D02*
X172276785Y-94787261D01*
X172427976Y-94787261D01*
X172488452Y-94757023D01*
X172518690Y-94726785D01*
X172548928Y-94666309D01*
X172548928Y-94605833D01*
X172518690Y-94545357D01*
X172488452Y-94515119D01*
X172427976Y-94484880D01*
X172307023Y-94454642D01*
X172246547Y-94424404D01*
X172216309Y-94394166D01*
X172186071Y-94333690D01*
X172186071Y-94273214D01*
X172216309Y-94212738D01*
X172246547Y-94182500D01*
X172307023Y-94152261D01*
X172458214Y-94152261D01*
X172548928Y-94182500D01*
X169166190Y-94787261D02*
X169166190Y-94152261D01*
X169317380Y-94152261D01*
X169408095Y-94182500D01*
X169468571Y-94242976D01*
X169498809Y-94303452D01*
X169529047Y-94424404D01*
X169529047Y-94515119D01*
X169498809Y-94636071D01*
X169468571Y-94696547D01*
X169408095Y-94757023D01*
X169317380Y-94787261D01*
X169166190Y-94787261D01*
X170164047Y-94726785D02*
X170133809Y-94757023D01*
X170043095Y-94787261D01*
X169982619Y-94787261D01*
X169891904Y-94757023D01*
X169831428Y-94696547D01*
X169801190Y-94636071D01*
X169770952Y-94515119D01*
X169770952Y-94424404D01*
X169801190Y-94303452D01*
X169831428Y-94242976D01*
X169891904Y-94182500D01*
X169982619Y-94152261D01*
X170043095Y-94152261D01*
X170133809Y-94182500D01*
X170164047Y-94212738D01*
X166656904Y-94787261D02*
X166445238Y-94484880D01*
X166294047Y-94787261D02*
X166294047Y-94152261D01*
X166535952Y-94152261D01*
X166596428Y-94182500D01*
X166626666Y-94212738D01*
X166656904Y-94273214D01*
X166656904Y-94363928D01*
X166626666Y-94424404D01*
X166596428Y-94454642D01*
X166535952Y-94484880D01*
X166294047Y-94484880D01*
X166929047Y-94454642D02*
X167140714Y-94454642D01*
X167231428Y-94787261D02*
X166929047Y-94787261D01*
X166929047Y-94152261D01*
X167231428Y-94152261D01*
X167473333Y-94757023D02*
X167564047Y-94787261D01*
X167715238Y-94787261D01*
X167775714Y-94757023D01*
X167805952Y-94726785D01*
X167836190Y-94666309D01*
X167836190Y-94605833D01*
X167805952Y-94545357D01*
X167775714Y-94515119D01*
X167715238Y-94484880D01*
X167594285Y-94454642D01*
X167533809Y-94424404D01*
X167503571Y-94394166D01*
X167473333Y-94333690D01*
X167473333Y-94273214D01*
X167503571Y-94212738D01*
X167533809Y-94182500D01*
X167594285Y-94152261D01*
X167745476Y-94152261D01*
X167836190Y-94182500D01*
X163452142Y-94787261D02*
X163452142Y-94152261D01*
X163663809Y-94605833D01*
X163875476Y-94152261D01*
X163875476Y-94787261D01*
X164298809Y-94152261D02*
X164419761Y-94152261D01*
X164480238Y-94182500D01*
X164540714Y-94242976D01*
X164570952Y-94363928D01*
X164570952Y-94575595D01*
X164540714Y-94696547D01*
X164480238Y-94757023D01*
X164419761Y-94787261D01*
X164298809Y-94787261D01*
X164238333Y-94757023D01*
X164177857Y-94696547D01*
X164147619Y-94575595D01*
X164147619Y-94363928D01*
X164177857Y-94242976D01*
X164238333Y-94182500D01*
X164298809Y-94152261D01*
X164812857Y-94757023D02*
X164903571Y-94787261D01*
X165054761Y-94787261D01*
X165115238Y-94757023D01*
X165145476Y-94726785D01*
X165175714Y-94666309D01*
X165175714Y-94605833D01*
X165145476Y-94545357D01*
X165115238Y-94515119D01*
X165054761Y-94484880D01*
X164933809Y-94454642D01*
X164873333Y-94424404D01*
X164843095Y-94394166D01*
X164812857Y-94333690D01*
X164812857Y-94273214D01*
X164843095Y-94212738D01*
X164873333Y-94182500D01*
X164933809Y-94152261D01*
X165085000Y-94152261D01*
X165175714Y-94182500D01*
X165447857Y-94787261D02*
X165447857Y-94152261D01*
X161472023Y-94726785D02*
X161441785Y-94757023D01*
X161351071Y-94787261D01*
X161290595Y-94787261D01*
X161199880Y-94757023D01*
X161139404Y-94696547D01*
X161109166Y-94636071D01*
X161078928Y-94515119D01*
X161078928Y-94424404D01*
X161109166Y-94303452D01*
X161139404Y-94242976D01*
X161199880Y-94182500D01*
X161290595Y-94152261D01*
X161351071Y-94152261D01*
X161441785Y-94182500D01*
X161472023Y-94212738D01*
X162046547Y-94787261D02*
X161744166Y-94787261D01*
X161744166Y-94152261D01*
X162258214Y-94787261D02*
X162258214Y-94152261D01*
X162621071Y-94787261D02*
X162348928Y-94424404D01*
X162621071Y-94152261D02*
X162258214Y-94515119D01*
X158403333Y-94152261D02*
X158615000Y-94787261D01*
X158826666Y-94152261D01*
X159401190Y-94726785D02*
X159370952Y-94757023D01*
X159280238Y-94787261D01*
X159219761Y-94787261D01*
X159129047Y-94757023D01*
X159068571Y-94696547D01*
X159038333Y-94636071D01*
X159008095Y-94515119D01*
X159008095Y-94424404D01*
X159038333Y-94303452D01*
X159068571Y-94242976D01*
X159129047Y-94182500D01*
X159219761Y-94152261D01*
X159280238Y-94152261D01*
X159370952Y-94182500D01*
X159401190Y-94212738D01*
X160036190Y-94726785D02*
X160005952Y-94757023D01*
X159915238Y-94787261D01*
X159854761Y-94787261D01*
X159764047Y-94757023D01*
X159703571Y-94696547D01*
X159673333Y-94636071D01*
X159643095Y-94515119D01*
X159643095Y-94424404D01*
X159673333Y-94303452D01*
X159703571Y-94242976D01*
X159764047Y-94182500D01*
X159854761Y-94152261D01*
X159915238Y-94152261D01*
X160005952Y-94182500D01*
X160036190Y-94212738D01*
X156366190Y-94182500D02*
X156305714Y-94152261D01*
X156215000Y-94152261D01*
X156124285Y-94182500D01*
X156063809Y-94242976D01*
X156033571Y-94303452D01*
X156003333Y-94424404D01*
X156003333Y-94515119D01*
X156033571Y-94636071D01*
X156063809Y-94696547D01*
X156124285Y-94757023D01*
X156215000Y-94787261D01*
X156275476Y-94787261D01*
X156366190Y-94757023D01*
X156396428Y-94726785D01*
X156396428Y-94515119D01*
X156275476Y-94515119D01*
X156668571Y-94787261D02*
X156668571Y-94152261D01*
X157031428Y-94787261D01*
X157031428Y-94152261D01*
X157333809Y-94787261D02*
X157333809Y-94152261D01*
X157485000Y-94152261D01*
X157575714Y-94182500D01*
X157636190Y-94242976D01*
X157666428Y-94303452D01*
X157696666Y-94424404D01*
X157696666Y-94515119D01*
X157666428Y-94636071D01*
X157636190Y-94696547D01*
X157575714Y-94757023D01*
X157485000Y-94787261D01*
X157333809Y-94787261D01*
X116389452Y-120604642D02*
X116480166Y-120634880D01*
X116510404Y-120665119D01*
X116540642Y-120725595D01*
X116540642Y-120816309D01*
X116510404Y-120876785D01*
X116480166Y-120907023D01*
X116419690Y-120937261D01*
X116177785Y-120937261D01*
X116177785Y-120302261D01*
X116389452Y-120302261D01*
X116449928Y-120332500D01*
X116480166Y-120362738D01*
X116510404Y-120423214D01*
X116510404Y-120483690D01*
X116480166Y-120544166D01*
X116449928Y-120574404D01*
X116389452Y-120604642D01*
X116177785Y-120604642D01*
X116722071Y-120302261D02*
X117084928Y-120302261D01*
X116903500Y-120937261D02*
X116903500Y-120302261D01*
X117296595Y-120937261D02*
X117296595Y-120302261D01*
X117659452Y-120937261D01*
X117659452Y-120302261D01*
X118264214Y-120302261D02*
X117961833Y-120302261D01*
X117931595Y-120604642D01*
X117961833Y-120574404D01*
X118022309Y-120544166D01*
X118173500Y-120544166D01*
X118233976Y-120574404D01*
X118264214Y-120604642D01*
X118294452Y-120665119D01*
X118294452Y-120816309D01*
X118264214Y-120876785D01*
X118233976Y-120907023D01*
X118173500Y-120937261D01*
X118022309Y-120937261D01*
X117961833Y-120907023D01*
X117931595Y-120876785D01*
X134042452Y-120731642D02*
X134133166Y-120761880D01*
X134163404Y-120792119D01*
X134193642Y-120852595D01*
X134193642Y-120943309D01*
X134163404Y-121003785D01*
X134133166Y-121034023D01*
X134072690Y-121064261D01*
X133830785Y-121064261D01*
X133830785Y-120429261D01*
X134042452Y-120429261D01*
X134102928Y-120459500D01*
X134133166Y-120489738D01*
X134163404Y-120550214D01*
X134163404Y-120610690D01*
X134133166Y-120671166D01*
X134102928Y-120701404D01*
X134042452Y-120731642D01*
X133830785Y-120731642D01*
X134375071Y-120429261D02*
X134737928Y-120429261D01*
X134556500Y-121064261D02*
X134556500Y-120429261D01*
X134949595Y-121064261D02*
X134949595Y-120429261D01*
X135312452Y-121064261D01*
X135312452Y-120429261D01*
X135886976Y-120640928D02*
X135886976Y-121064261D01*
X135735785Y-120399023D02*
X135584595Y-120852595D01*
X135977690Y-120852595D01*
D11*
X147767523Y-136071428D02*
X147912666Y-136119809D01*
X147961047Y-136168190D01*
X148009428Y-136264952D01*
X148009428Y-136410095D01*
X147961047Y-136506857D01*
X147912666Y-136555238D01*
X147815904Y-136603619D01*
X147428857Y-136603619D01*
X147428857Y-135587619D01*
X147767523Y-135587619D01*
X147864285Y-135636000D01*
X147912666Y-135684380D01*
X147961047Y-135781142D01*
X147961047Y-135877904D01*
X147912666Y-135974666D01*
X147864285Y-136023047D01*
X147767523Y-136071428D01*
X147428857Y-136071428D01*
X148299714Y-135587619D02*
X148880285Y-135587619D01*
X148590000Y-136603619D02*
X148590000Y-135587619D01*
X149218952Y-136603619D02*
X149218952Y-135587619D01*
X149799523Y-136603619D01*
X149799523Y-135587619D01*
X150815523Y-136603619D02*
X150234952Y-136603619D01*
X150525238Y-136603619D02*
X150525238Y-135587619D01*
X150428476Y-135732761D01*
X150331714Y-135829523D01*
X150234952Y-135877904D01*
X174564523Y-135944428D02*
X174709666Y-135992809D01*
X174758047Y-136041190D01*
X174806428Y-136137952D01*
X174806428Y-136283095D01*
X174758047Y-136379857D01*
X174709666Y-136428238D01*
X174612904Y-136476619D01*
X174225857Y-136476619D01*
X174225857Y-135460619D01*
X174564523Y-135460619D01*
X174661285Y-135509000D01*
X174709666Y-135557380D01*
X174758047Y-135654142D01*
X174758047Y-135750904D01*
X174709666Y-135847666D01*
X174661285Y-135896047D01*
X174564523Y-135944428D01*
X174225857Y-135944428D01*
X175096714Y-135460619D02*
X175677285Y-135460619D01*
X175387000Y-136476619D02*
X175387000Y-135460619D01*
X176015952Y-136476619D02*
X176015952Y-135460619D01*
X176596523Y-136476619D01*
X176596523Y-135460619D01*
X176983571Y-135460619D02*
X177612523Y-135460619D01*
X177273857Y-135847666D01*
X177419000Y-135847666D01*
X177515761Y-135896047D01*
X177564142Y-135944428D01*
X177612523Y-136041190D01*
X177612523Y-136283095D01*
X177564142Y-136379857D01*
X177515761Y-136428238D01*
X177419000Y-136476619D01*
X177128714Y-136476619D01*
X177031952Y-136428238D01*
X176983571Y-136379857D01*
D10*
X119020166Y-119860785D02*
X118989928Y-119891023D01*
X118899214Y-119921261D01*
X118838738Y-119921261D01*
X118748023Y-119891023D01*
X118687547Y-119830547D01*
X118657309Y-119770071D01*
X118627071Y-119649119D01*
X118627071Y-119558404D01*
X118657309Y-119437452D01*
X118687547Y-119376976D01*
X118748023Y-119316500D01*
X118838738Y-119286261D01*
X118899214Y-119286261D01*
X118989928Y-119316500D01*
X119020166Y-119346738D01*
X119624928Y-119921261D02*
X119262071Y-119921261D01*
X119443500Y-119921261D02*
X119443500Y-119286261D01*
X119383023Y-119376976D01*
X119322547Y-119437452D01*
X119262071Y-119467690D01*
X205341166Y-122389785D02*
X205310928Y-122420023D01*
X205220214Y-122450261D01*
X205159738Y-122450261D01*
X205069023Y-122420023D01*
X205008547Y-122359547D01*
X204978309Y-122299071D01*
X204948071Y-122178119D01*
X204948071Y-122087404D01*
X204978309Y-121966452D01*
X205008547Y-121905976D01*
X205069023Y-121845500D01*
X205159738Y-121815261D01*
X205220214Y-121815261D01*
X205310928Y-121845500D01*
X205341166Y-121875738D01*
X205643547Y-122450261D02*
X205764500Y-122450261D01*
X205824976Y-122420023D01*
X205855214Y-122389785D01*
X205915690Y-122299071D01*
X205945928Y-122178119D01*
X205945928Y-121936214D01*
X205915690Y-121875738D01*
X205885452Y-121845500D01*
X205824976Y-121815261D01*
X205704023Y-121815261D01*
X205643547Y-121845500D01*
X205613309Y-121875738D01*
X205583071Y-121936214D01*
X205583071Y-122087404D01*
X205613309Y-122147880D01*
X205643547Y-122178119D01*
X205704023Y-122208357D01*
X205824976Y-122208357D01*
X205885452Y-122178119D01*
X205915690Y-122147880D01*
X205945928Y-122087404D01*
X198981785Y-107977214D02*
X199012023Y-108007452D01*
X199042261Y-108098166D01*
X199042261Y-108158642D01*
X199012023Y-108249357D01*
X198951547Y-108309833D01*
X198891071Y-108340071D01*
X198770119Y-108370309D01*
X198679404Y-108370309D01*
X198558452Y-108340071D01*
X198497976Y-108309833D01*
X198437500Y-108249357D01*
X198407261Y-108158642D01*
X198407261Y-108098166D01*
X198437500Y-108007452D01*
X198467738Y-107977214D01*
X199042261Y-107372452D02*
X199042261Y-107735309D01*
X199042261Y-107553880D02*
X198407261Y-107553880D01*
X198497976Y-107614357D01*
X198558452Y-107674833D01*
X198588690Y-107735309D01*
X198407261Y-107160785D02*
X198407261Y-106767690D01*
X198649166Y-106979357D01*
X198649166Y-106888642D01*
X198679404Y-106828166D01*
X198709642Y-106797928D01*
X198770119Y-106767690D01*
X198921309Y-106767690D01*
X198981785Y-106797928D01*
X199012023Y-106828166D01*
X199042261Y-106888642D01*
X199042261Y-107070071D01*
X199012023Y-107130547D01*
X198981785Y-107160785D01*
X149324785Y-141323785D02*
X149294547Y-141354023D01*
X149203833Y-141384261D01*
X149143357Y-141384261D01*
X149052642Y-141354023D01*
X148992166Y-141293547D01*
X148961928Y-141233071D01*
X148931690Y-141112119D01*
X148931690Y-141021404D01*
X148961928Y-140900452D01*
X148992166Y-140839976D01*
X149052642Y-140779500D01*
X149143357Y-140749261D01*
X149203833Y-140749261D01*
X149294547Y-140779500D01*
X149324785Y-140809738D01*
X149929547Y-141384261D02*
X149566690Y-141384261D01*
X149748119Y-141384261D02*
X149748119Y-140749261D01*
X149687642Y-140839976D01*
X149627166Y-140900452D01*
X149566690Y-140930690D01*
X150473833Y-140960928D02*
X150473833Y-141384261D01*
X150322642Y-140719023D02*
X150171452Y-141172595D01*
X150564547Y-141172595D01*
X168247785Y-149578785D02*
X168217547Y-149609023D01*
X168126833Y-149639261D01*
X168066357Y-149639261D01*
X167975642Y-149609023D01*
X167915166Y-149548547D01*
X167884928Y-149488071D01*
X167854690Y-149367119D01*
X167854690Y-149276404D01*
X167884928Y-149155452D01*
X167915166Y-149094976D01*
X167975642Y-149034500D01*
X168066357Y-149004261D01*
X168126833Y-149004261D01*
X168217547Y-149034500D01*
X168247785Y-149064738D01*
X168852547Y-149639261D02*
X168489690Y-149639261D01*
X168671119Y-149639261D02*
X168671119Y-149004261D01*
X168610642Y-149094976D01*
X168550166Y-149155452D01*
X168489690Y-149185690D01*
X169396833Y-149004261D02*
X169275880Y-149004261D01*
X169215404Y-149034500D01*
X169185166Y-149064738D01*
X169124690Y-149155452D01*
X169094452Y-149276404D01*
X169094452Y-149518309D01*
X169124690Y-149578785D01*
X169154928Y-149609023D01*
X169215404Y-149639261D01*
X169336357Y-149639261D01*
X169396833Y-149609023D01*
X169427071Y-149578785D01*
X169457309Y-149518309D01*
X169457309Y-149367119D01*
X169427071Y-149306642D01*
X169396833Y-149276404D01*
X169336357Y-149246166D01*
X169215404Y-149246166D01*
X169154928Y-149276404D01*
X169124690Y-149306642D01*
X169094452Y-149367119D01*
X168153785Y-140268785D02*
X168123547Y-140299023D01*
X168032833Y-140329261D01*
X167972357Y-140329261D01*
X167881642Y-140299023D01*
X167821166Y-140238547D01*
X167790928Y-140178071D01*
X167760690Y-140057119D01*
X167760690Y-139966404D01*
X167790928Y-139845452D01*
X167821166Y-139784976D01*
X167881642Y-139724500D01*
X167972357Y-139694261D01*
X168032833Y-139694261D01*
X168123547Y-139724500D01*
X168153785Y-139754738D01*
X168758547Y-140329261D02*
X168395690Y-140329261D01*
X168577119Y-140329261D02*
X168577119Y-139694261D01*
X168516642Y-139784976D01*
X168456166Y-139845452D01*
X168395690Y-139875690D01*
X168970214Y-139694261D02*
X169393547Y-139694261D01*
X169121404Y-140329261D01*
X164056785Y-149705785D02*
X164026547Y-149736023D01*
X163935833Y-149766261D01*
X163875357Y-149766261D01*
X163784642Y-149736023D01*
X163724166Y-149675547D01*
X163693928Y-149615071D01*
X163663690Y-149494119D01*
X163663690Y-149403404D01*
X163693928Y-149282452D01*
X163724166Y-149221976D01*
X163784642Y-149161500D01*
X163875357Y-149131261D01*
X163935833Y-149131261D01*
X164026547Y-149161500D01*
X164056785Y-149191738D01*
X164661547Y-149766261D02*
X164298690Y-149766261D01*
X164480119Y-149766261D02*
X164480119Y-149131261D01*
X164419642Y-149221976D01*
X164359166Y-149282452D01*
X164298690Y-149312690D01*
X164963928Y-149766261D02*
X165084880Y-149766261D01*
X165145357Y-149736023D01*
X165175595Y-149705785D01*
X165236071Y-149615071D01*
X165266309Y-149494119D01*
X165266309Y-149252214D01*
X165236071Y-149191738D01*
X165205833Y-149161500D01*
X165145357Y-149131261D01*
X165024404Y-149131261D01*
X164963928Y-149161500D01*
X164933690Y-149191738D01*
X164903452Y-149252214D01*
X164903452Y-149403404D01*
X164933690Y-149463880D01*
X164963928Y-149494119D01*
X165024404Y-149524357D01*
X165145357Y-149524357D01*
X165205833Y-149494119D01*
X165236071Y-149463880D01*
X165266309Y-149403404D01*
X160152785Y-140903785D02*
X160122547Y-140934023D01*
X160031833Y-140964261D01*
X159971357Y-140964261D01*
X159880642Y-140934023D01*
X159820166Y-140873547D01*
X159789928Y-140813071D01*
X159759690Y-140692119D01*
X159759690Y-140601404D01*
X159789928Y-140480452D01*
X159820166Y-140419976D01*
X159880642Y-140359500D01*
X159971357Y-140329261D01*
X160031833Y-140329261D01*
X160122547Y-140359500D01*
X160152785Y-140389738D01*
X160394690Y-140389738D02*
X160424928Y-140359500D01*
X160485404Y-140329261D01*
X160636595Y-140329261D01*
X160697071Y-140359500D01*
X160727309Y-140389738D01*
X160757547Y-140450214D01*
X160757547Y-140510690D01*
X160727309Y-140601404D01*
X160364452Y-140964261D01*
X160757547Y-140964261D01*
X161362309Y-140964261D02*
X160999452Y-140964261D01*
X161180880Y-140964261D02*
X161180880Y-140329261D01*
X161120404Y-140419976D01*
X161059928Y-140480452D01*
X160999452Y-140510690D01*
X159230785Y-148744214D02*
X159261023Y-148774452D01*
X159291261Y-148865166D01*
X159291261Y-148925642D01*
X159261023Y-149016357D01*
X159200547Y-149076833D01*
X159140071Y-149107071D01*
X159019119Y-149137309D01*
X158928404Y-149137309D01*
X158807452Y-149107071D01*
X158746976Y-149076833D01*
X158686500Y-149016357D01*
X158656261Y-148925642D01*
X158656261Y-148865166D01*
X158686500Y-148774452D01*
X158716738Y-148744214D01*
X158716738Y-148502309D02*
X158686500Y-148472071D01*
X158656261Y-148411595D01*
X158656261Y-148260404D01*
X158686500Y-148199928D01*
X158716738Y-148169690D01*
X158777214Y-148139452D01*
X158837690Y-148139452D01*
X158928404Y-148169690D01*
X159291261Y-148532547D01*
X159291261Y-148139452D01*
X158867928Y-147595166D02*
X159291261Y-147595166D01*
X158626023Y-147746357D02*
X159079595Y-147897547D01*
X159079595Y-147504452D01*
X197031309Y-115037261D02*
X197031309Y-114402261D01*
X197182500Y-114402261D01*
X197273214Y-114432500D01*
X197333690Y-114492976D01*
X197363928Y-114553452D01*
X197394166Y-114674404D01*
X197394166Y-114765119D01*
X197363928Y-114886071D01*
X197333690Y-114946547D01*
X197273214Y-115007023D01*
X197182500Y-115037261D01*
X197031309Y-115037261D01*
X197998928Y-115037261D02*
X197636071Y-115037261D01*
X197817500Y-115037261D02*
X197817500Y-114402261D01*
X197757023Y-114492976D01*
X197696547Y-114553452D01*
X197636071Y-114583690D01*
X199713309Y-109620261D02*
X199713309Y-108985261D01*
X199864500Y-108985261D01*
X199955214Y-109015500D01*
X200015690Y-109075976D01*
X200045928Y-109136452D01*
X200076166Y-109257404D01*
X200076166Y-109348119D01*
X200045928Y-109469071D01*
X200015690Y-109529547D01*
X199955214Y-109590023D01*
X199864500Y-109620261D01*
X199713309Y-109620261D01*
X200318071Y-109045738D02*
X200348309Y-109015500D01*
X200408785Y-108985261D01*
X200559976Y-108985261D01*
X200620452Y-109015500D01*
X200650690Y-109045738D01*
X200680928Y-109106214D01*
X200680928Y-109166690D01*
X200650690Y-109257404D01*
X200287833Y-109620261D01*
X200680928Y-109620261D01*
X203012833Y-122117642D02*
X202801166Y-122117642D01*
X202801166Y-122450261D02*
X202801166Y-121815261D01*
X203103547Y-121815261D01*
X203557119Y-122117642D02*
X203647833Y-122147880D01*
X203678071Y-122178119D01*
X203708309Y-122238595D01*
X203708309Y-122329309D01*
X203678071Y-122389785D01*
X203647833Y-122420023D01*
X203587357Y-122450261D01*
X203345452Y-122450261D01*
X203345452Y-121815261D01*
X203557119Y-121815261D01*
X203617595Y-121845500D01*
X203647833Y-121875738D01*
X203678071Y-121936214D01*
X203678071Y-121996690D01*
X203647833Y-122057166D01*
X203617595Y-122087404D01*
X203557119Y-122117642D01*
X203345452Y-122117642D01*
X204313071Y-122450261D02*
X203950214Y-122450261D01*
X204131642Y-122450261D02*
X204131642Y-121815261D01*
X204071166Y-121905976D01*
X204010690Y-121966452D01*
X203950214Y-121996690D01*
X203814142Y-117040666D02*
X203814142Y-117252333D01*
X204146761Y-117252333D02*
X203511761Y-117252333D01*
X203511761Y-116949952D01*
X203814142Y-116496380D02*
X203844380Y-116405666D01*
X203874619Y-116375428D01*
X203935095Y-116345190D01*
X204025809Y-116345190D01*
X204086285Y-116375428D01*
X204116523Y-116405666D01*
X204146761Y-116466142D01*
X204146761Y-116708047D01*
X203511761Y-116708047D01*
X203511761Y-116496380D01*
X203542000Y-116435904D01*
X203572238Y-116405666D01*
X203632714Y-116375428D01*
X203693190Y-116375428D01*
X203753666Y-116405666D01*
X203783904Y-116435904D01*
X203814142Y-116496380D01*
X203814142Y-116708047D01*
X203572238Y-116103285D02*
X203542000Y-116073047D01*
X203511761Y-116012571D01*
X203511761Y-115861380D01*
X203542000Y-115800904D01*
X203572238Y-115770666D01*
X203632714Y-115740428D01*
X203693190Y-115740428D01*
X203783904Y-115770666D01*
X204146761Y-116133523D01*
X204146761Y-115740428D01*
X210608333Y-114206261D02*
X210608333Y-114659833D01*
X210578095Y-114750547D01*
X210517619Y-114811023D01*
X210426904Y-114841261D01*
X210366428Y-114841261D01*
X211243333Y-114841261D02*
X210880476Y-114841261D01*
X211061904Y-114841261D02*
X211061904Y-114206261D01*
X211001428Y-114296976D01*
X210940952Y-114357452D01*
X210880476Y-114387690D01*
X209360104Y-94305361D02*
X209057723Y-94305361D01*
X209057723Y-93670361D01*
X209571771Y-93972742D02*
X209783438Y-93972742D01*
X209874152Y-94305361D02*
X209571771Y-94305361D01*
X209571771Y-93670361D01*
X209874152Y-93670361D01*
X210146295Y-94305361D02*
X210146295Y-93670361D01*
X210297485Y-93670361D01*
X210388200Y-93700600D01*
X210448676Y-93761076D01*
X210478914Y-93821552D01*
X210509152Y-93942504D01*
X210509152Y-94033219D01*
X210478914Y-94154171D01*
X210448676Y-94214647D01*
X210388200Y-94275123D01*
X210297485Y-94305361D01*
X210146295Y-94305361D01*
X211053438Y-93670361D02*
X210932485Y-93670361D01*
X210872009Y-93700600D01*
X210841771Y-93730838D01*
X210781295Y-93821552D01*
X210751057Y-93942504D01*
X210751057Y-94184409D01*
X210781295Y-94244885D01*
X210811533Y-94275123D01*
X210872009Y-94305361D01*
X210992961Y-94305361D01*
X211053438Y-94275123D01*
X211083676Y-94244885D01*
X211113914Y-94184409D01*
X211113914Y-94033219D01*
X211083676Y-93972742D01*
X211053438Y-93942504D01*
X210992961Y-93912266D01*
X210872009Y-93912266D01*
X210811533Y-93942504D01*
X210781295Y-93972742D01*
X210751057Y-94033219D01*
X204534104Y-94406961D02*
X204231723Y-94406961D01*
X204231723Y-93771961D01*
X204745771Y-94074342D02*
X204957438Y-94074342D01*
X205048152Y-94406961D02*
X204745771Y-94406961D01*
X204745771Y-93771961D01*
X205048152Y-93771961D01*
X205320295Y-94406961D02*
X205320295Y-93771961D01*
X205471485Y-93771961D01*
X205562200Y-93802200D01*
X205622676Y-93862676D01*
X205652914Y-93923152D01*
X205683152Y-94044104D01*
X205683152Y-94134819D01*
X205652914Y-94255771D01*
X205622676Y-94316247D01*
X205562200Y-94376723D01*
X205471485Y-94406961D01*
X205320295Y-94406961D01*
X205894819Y-93771961D02*
X206318152Y-93771961D01*
X206046009Y-94406961D01*
X188372404Y-118016261D02*
X188070023Y-118016261D01*
X188070023Y-117381261D01*
X188584071Y-117683642D02*
X188795738Y-117683642D01*
X188886452Y-118016261D02*
X188584071Y-118016261D01*
X188584071Y-117381261D01*
X188886452Y-117381261D01*
X189158595Y-118016261D02*
X189158595Y-117381261D01*
X189309785Y-117381261D01*
X189400500Y-117411500D01*
X189460976Y-117471976D01*
X189491214Y-117532452D01*
X189521452Y-117653404D01*
X189521452Y-117744119D01*
X189491214Y-117865071D01*
X189460976Y-117925547D01*
X189400500Y-117986023D01*
X189309785Y-118016261D01*
X189158595Y-118016261D01*
X189733119Y-117381261D02*
X190126214Y-117381261D01*
X189914547Y-117623166D01*
X190005261Y-117623166D01*
X190065738Y-117653404D01*
X190095976Y-117683642D01*
X190126214Y-117744119D01*
X190126214Y-117895309D01*
X190095976Y-117955785D01*
X190065738Y-117986023D01*
X190005261Y-118016261D01*
X189823833Y-118016261D01*
X189763357Y-117986023D01*
X189733119Y-117955785D01*
X183982404Y-118016261D02*
X183680023Y-118016261D01*
X183680023Y-117381261D01*
X184194071Y-117683642D02*
X184405738Y-117683642D01*
X184496452Y-118016261D02*
X184194071Y-118016261D01*
X184194071Y-117381261D01*
X184496452Y-117381261D01*
X184768595Y-118016261D02*
X184768595Y-117381261D01*
X184919785Y-117381261D01*
X185010500Y-117411500D01*
X185070976Y-117471976D01*
X185101214Y-117532452D01*
X185131452Y-117653404D01*
X185131452Y-117744119D01*
X185101214Y-117865071D01*
X185070976Y-117925547D01*
X185010500Y-117986023D01*
X184919785Y-118016261D01*
X184768595Y-118016261D01*
X185675738Y-117592928D02*
X185675738Y-118016261D01*
X185524547Y-117351023D02*
X185373357Y-117804595D01*
X185766452Y-117804595D01*
X199289004Y-94368861D02*
X198986623Y-94368861D01*
X198986623Y-93733861D01*
X199500671Y-94036242D02*
X199712338Y-94036242D01*
X199803052Y-94368861D02*
X199500671Y-94368861D01*
X199500671Y-93733861D01*
X199803052Y-93733861D01*
X200075195Y-94368861D02*
X200075195Y-93733861D01*
X200226385Y-93733861D01*
X200317100Y-93764100D01*
X200377576Y-93824576D01*
X200407814Y-93885052D01*
X200438052Y-94006004D01*
X200438052Y-94096719D01*
X200407814Y-94217671D01*
X200377576Y-94278147D01*
X200317100Y-94338623D01*
X200226385Y-94368861D01*
X200075195Y-94368861D01*
X201012576Y-93733861D02*
X200710195Y-93733861D01*
X200679957Y-94036242D01*
X200710195Y-94006004D01*
X200770671Y-93975766D01*
X200921861Y-93975766D01*
X200982338Y-94006004D01*
X201012576Y-94036242D01*
X201042814Y-94096719D01*
X201042814Y-94247909D01*
X201012576Y-94308385D01*
X200982338Y-94338623D01*
X200921861Y-94368861D01*
X200770671Y-94368861D01*
X200710195Y-94338623D01*
X200679957Y-94308385D01*
D11*
X188347047Y-131396619D02*
X187863238Y-131396619D01*
X187863238Y-130380619D01*
X188685714Y-130864428D02*
X189024380Y-130864428D01*
X189169523Y-131396619D02*
X188685714Y-131396619D01*
X188685714Y-130380619D01*
X189169523Y-130380619D01*
X189604952Y-131396619D02*
X189604952Y-130380619D01*
X189846857Y-130380619D01*
X189992000Y-130429000D01*
X190088761Y-130525761D01*
X190137142Y-130622523D01*
X190185523Y-130816047D01*
X190185523Y-130961190D01*
X190137142Y-131154714D01*
X190088761Y-131251476D01*
X189992000Y-131348238D01*
X189846857Y-131396619D01*
X189604952Y-131396619D01*
X191153142Y-131396619D02*
X190572571Y-131396619D01*
X190862857Y-131396619D02*
X190862857Y-130380619D01*
X190766095Y-130525761D01*
X190669333Y-130622523D01*
X190572571Y-130670904D01*
X183140047Y-131396619D02*
X182656238Y-131396619D01*
X182656238Y-130380619D01*
X183478714Y-130864428D02*
X183817380Y-130864428D01*
X183962523Y-131396619D02*
X183478714Y-131396619D01*
X183478714Y-130380619D01*
X183962523Y-130380619D01*
X184397952Y-131396619D02*
X184397952Y-130380619D01*
X184639857Y-130380619D01*
X184785000Y-130429000D01*
X184881761Y-130525761D01*
X184930142Y-130622523D01*
X184978523Y-130816047D01*
X184978523Y-130961190D01*
X184930142Y-131154714D01*
X184881761Y-131251476D01*
X184785000Y-131348238D01*
X184639857Y-131396619D01*
X184397952Y-131396619D01*
X185365571Y-130477380D02*
X185413952Y-130429000D01*
X185510714Y-130380619D01*
X185752619Y-130380619D01*
X185849380Y-130429000D01*
X185897761Y-130477380D01*
X185946142Y-130574142D01*
X185946142Y-130670904D01*
X185897761Y-130816047D01*
X185317190Y-131396619D01*
X185946142Y-131396619D01*
D10*
X194249523Y-100423738D02*
X194189047Y-100393500D01*
X194128571Y-100333023D01*
X194037857Y-100242309D01*
X193977380Y-100212071D01*
X193916904Y-100212071D01*
X193947142Y-100363261D02*
X193886666Y-100333023D01*
X193826190Y-100272547D01*
X193795952Y-100151595D01*
X193795952Y-99939928D01*
X193826190Y-99818976D01*
X193886666Y-99758500D01*
X193947142Y-99728261D01*
X194068095Y-99728261D01*
X194128571Y-99758500D01*
X194189047Y-99818976D01*
X194219285Y-99939928D01*
X194219285Y-100151595D01*
X194189047Y-100272547D01*
X194128571Y-100333023D01*
X194068095Y-100363261D01*
X193947142Y-100363261D01*
X194824047Y-100363261D02*
X194461190Y-100363261D01*
X194642619Y-100363261D02*
X194642619Y-99728261D01*
X194582142Y-99818976D01*
X194521666Y-99879452D01*
X194461190Y-99909690D01*
X191189523Y-113097738D02*
X191129047Y-113067500D01*
X191068571Y-113007023D01*
X190977857Y-112916309D01*
X190917380Y-112886071D01*
X190856904Y-112886071D01*
X190887142Y-113037261D02*
X190826666Y-113007023D01*
X190766190Y-112946547D01*
X190735952Y-112825595D01*
X190735952Y-112613928D01*
X190766190Y-112492976D01*
X190826666Y-112432500D01*
X190887142Y-112402261D01*
X191008095Y-112402261D01*
X191068571Y-112432500D01*
X191129047Y-112492976D01*
X191159285Y-112613928D01*
X191159285Y-112825595D01*
X191129047Y-112946547D01*
X191068571Y-113007023D01*
X191008095Y-113037261D01*
X190887142Y-113037261D01*
X191401190Y-112462738D02*
X191431428Y-112432500D01*
X191491904Y-112402261D01*
X191643095Y-112402261D01*
X191703571Y-112432500D01*
X191733809Y-112462738D01*
X191764047Y-112523214D01*
X191764047Y-112583690D01*
X191733809Y-112674404D01*
X191370952Y-113037261D01*
X191764047Y-113037261D01*
X187398166Y-95283261D02*
X187186500Y-94980880D01*
X187035309Y-95283261D02*
X187035309Y-94648261D01*
X187277214Y-94648261D01*
X187337690Y-94678500D01*
X187367928Y-94708738D01*
X187398166Y-94769214D01*
X187398166Y-94859928D01*
X187367928Y-94920404D01*
X187337690Y-94950642D01*
X187277214Y-94980880D01*
X187035309Y-94980880D01*
X187942452Y-94859928D02*
X187942452Y-95283261D01*
X187791261Y-94618023D02*
X187640071Y-95071595D01*
X188033166Y-95071595D01*
X185314166Y-100363261D02*
X185102500Y-100060880D01*
X184951309Y-100363261D02*
X184951309Y-99728261D01*
X185193214Y-99728261D01*
X185253690Y-99758500D01*
X185283928Y-99788738D01*
X185314166Y-99849214D01*
X185314166Y-99939928D01*
X185283928Y-100000404D01*
X185253690Y-100030642D01*
X185193214Y-100060880D01*
X184951309Y-100060880D01*
X185858452Y-99728261D02*
X185737500Y-99728261D01*
X185677023Y-99758500D01*
X185646785Y-99788738D01*
X185586309Y-99879452D01*
X185556071Y-100000404D01*
X185556071Y-100242309D01*
X185586309Y-100302785D01*
X185616547Y-100333023D01*
X185677023Y-100363261D01*
X185797976Y-100363261D01*
X185858452Y-100333023D01*
X185888690Y-100302785D01*
X185918928Y-100242309D01*
X185918928Y-100091119D01*
X185888690Y-100030642D01*
X185858452Y-100000404D01*
X185797976Y-99970166D01*
X185677023Y-99970166D01*
X185616547Y-100000404D01*
X185586309Y-100030642D01*
X185556071Y-100091119D01*
X190521166Y-106459261D02*
X190309500Y-106156880D01*
X190158309Y-106459261D02*
X190158309Y-105824261D01*
X190400214Y-105824261D01*
X190460690Y-105854500D01*
X190490928Y-105884738D01*
X190521166Y-105945214D01*
X190521166Y-106035928D01*
X190490928Y-106096404D01*
X190460690Y-106126642D01*
X190400214Y-106156880D01*
X190158309Y-106156880D01*
X190884023Y-106096404D02*
X190823547Y-106066166D01*
X190793309Y-106035928D01*
X190763071Y-105975452D01*
X190763071Y-105945214D01*
X190793309Y-105884738D01*
X190823547Y-105854500D01*
X190884023Y-105824261D01*
X191004976Y-105824261D01*
X191065452Y-105854500D01*
X191095690Y-105884738D01*
X191125928Y-105945214D01*
X191125928Y-105975452D01*
X191095690Y-106035928D01*
X191065452Y-106066166D01*
X191004976Y-106096404D01*
X190884023Y-106096404D01*
X190823547Y-106126642D01*
X190793309Y-106156880D01*
X190763071Y-106217357D01*
X190763071Y-106338309D01*
X190793309Y-106398785D01*
X190823547Y-106429023D01*
X190884023Y-106459261D01*
X191004976Y-106459261D01*
X191065452Y-106429023D01*
X191095690Y-106398785D01*
X191125928Y-106338309D01*
X191125928Y-106217357D01*
X191095690Y-106156880D01*
X191065452Y-106126642D01*
X191004976Y-106096404D01*
X188743166Y-109634261D02*
X188531500Y-109331880D01*
X188380309Y-109634261D02*
X188380309Y-108999261D01*
X188622214Y-108999261D01*
X188682690Y-109029500D01*
X188712928Y-109059738D01*
X188743166Y-109120214D01*
X188743166Y-109210928D01*
X188712928Y-109271404D01*
X188682690Y-109301642D01*
X188622214Y-109331880D01*
X188380309Y-109331880D01*
X189045547Y-109634261D02*
X189166500Y-109634261D01*
X189226976Y-109604023D01*
X189257214Y-109573785D01*
X189317690Y-109483071D01*
X189347928Y-109362119D01*
X189347928Y-109120214D01*
X189317690Y-109059738D01*
X189287452Y-109029500D01*
X189226976Y-108999261D01*
X189106023Y-108999261D01*
X189045547Y-109029500D01*
X189015309Y-109059738D01*
X188985071Y-109120214D01*
X188985071Y-109271404D01*
X189015309Y-109331880D01*
X189045547Y-109362119D01*
X189106023Y-109392357D01*
X189226976Y-109392357D01*
X189287452Y-109362119D01*
X189317690Y-109331880D01*
X189347928Y-109271404D01*
X193774785Y-113698261D02*
X193563119Y-113395880D01*
X193411928Y-113698261D02*
X193411928Y-113063261D01*
X193653833Y-113063261D01*
X193714309Y-113093500D01*
X193744547Y-113123738D01*
X193774785Y-113184214D01*
X193774785Y-113274928D01*
X193744547Y-113335404D01*
X193714309Y-113365642D01*
X193653833Y-113395880D01*
X193411928Y-113395880D01*
X194379547Y-113698261D02*
X194016690Y-113698261D01*
X194198119Y-113698261D02*
X194198119Y-113063261D01*
X194137642Y-113153976D01*
X194077166Y-113214452D01*
X194016690Y-113244690D01*
X194772642Y-113063261D02*
X194833119Y-113063261D01*
X194893595Y-113093500D01*
X194923833Y-113123738D01*
X194954071Y-113184214D01*
X194984309Y-113305166D01*
X194984309Y-113456357D01*
X194954071Y-113577309D01*
X194923833Y-113637785D01*
X194893595Y-113668023D01*
X194833119Y-113698261D01*
X194772642Y-113698261D01*
X194712166Y-113668023D01*
X194681928Y-113637785D01*
X194651690Y-113577309D01*
X194621452Y-113456357D01*
X194621452Y-113305166D01*
X194651690Y-113184214D01*
X194681928Y-113123738D01*
X194712166Y-113093500D01*
X194772642Y-113063261D01*
X171676785Y-147353261D02*
X171465119Y-147050880D01*
X171313928Y-147353261D02*
X171313928Y-146718261D01*
X171555833Y-146718261D01*
X171616309Y-146748500D01*
X171646547Y-146778738D01*
X171676785Y-146839214D01*
X171676785Y-146929928D01*
X171646547Y-146990404D01*
X171616309Y-147020642D01*
X171555833Y-147050880D01*
X171313928Y-147050880D01*
X172281547Y-147353261D02*
X171918690Y-147353261D01*
X172100119Y-147353261D02*
X172100119Y-146718261D01*
X172039642Y-146808976D01*
X171979166Y-146869452D01*
X171918690Y-146899690D01*
X172886309Y-147353261D02*
X172523452Y-147353261D01*
X172704880Y-147353261D02*
X172704880Y-146718261D01*
X172644404Y-146808976D01*
X172583928Y-146869452D01*
X172523452Y-146899690D01*
X153642785Y-148369261D02*
X153431119Y-148066880D01*
X153279928Y-148369261D02*
X153279928Y-147734261D01*
X153521833Y-147734261D01*
X153582309Y-147764500D01*
X153612547Y-147794738D01*
X153642785Y-147855214D01*
X153642785Y-147945928D01*
X153612547Y-148006404D01*
X153582309Y-148036642D01*
X153521833Y-148066880D01*
X153279928Y-148066880D01*
X154247547Y-148369261D02*
X153884690Y-148369261D01*
X154066119Y-148369261D02*
X154066119Y-147734261D01*
X154005642Y-147824976D01*
X153945166Y-147885452D01*
X153884690Y-147915690D01*
X154489452Y-147794738D02*
X154519690Y-147764500D01*
X154580166Y-147734261D01*
X154731357Y-147734261D01*
X154791833Y-147764500D01*
X154822071Y-147794738D01*
X154852309Y-147855214D01*
X154852309Y-147915690D01*
X154822071Y-148006404D01*
X154459214Y-148369261D01*
X154852309Y-148369261D01*
X197672785Y-123402761D02*
X197461119Y-123100380D01*
X197309928Y-123402761D02*
X197309928Y-122767761D01*
X197551833Y-122767761D01*
X197612309Y-122798000D01*
X197642547Y-122828238D01*
X197672785Y-122888714D01*
X197672785Y-122979428D01*
X197642547Y-123039904D01*
X197612309Y-123070142D01*
X197551833Y-123100380D01*
X197309928Y-123100380D01*
X197914690Y-122828238D02*
X197944928Y-122798000D01*
X198005404Y-122767761D01*
X198156595Y-122767761D01*
X198217071Y-122798000D01*
X198247309Y-122828238D01*
X198277547Y-122888714D01*
X198277547Y-122949190D01*
X198247309Y-123039904D01*
X197884452Y-123402761D01*
X198277547Y-123402761D01*
X198489214Y-122767761D02*
X198882309Y-122767761D01*
X198670642Y-123009666D01*
X198761357Y-123009666D01*
X198821833Y-123039904D01*
X198852071Y-123070142D01*
X198882309Y-123130619D01*
X198882309Y-123281809D01*
X198852071Y-123342285D01*
X198821833Y-123372523D01*
X198761357Y-123402761D01*
X198579928Y-123402761D01*
X198519452Y-123372523D01*
X198489214Y-123342285D01*
X171295785Y-142527261D02*
X171084119Y-142224880D01*
X170932928Y-142527261D02*
X170932928Y-141892261D01*
X171174833Y-141892261D01*
X171235309Y-141922500D01*
X171265547Y-141952738D01*
X171295785Y-142013214D01*
X171295785Y-142103928D01*
X171265547Y-142164404D01*
X171235309Y-142194642D01*
X171174833Y-142224880D01*
X170932928Y-142224880D01*
X171900547Y-142527261D02*
X171537690Y-142527261D01*
X171719119Y-142527261D02*
X171719119Y-141892261D01*
X171658642Y-141982976D01*
X171598166Y-142043452D01*
X171537690Y-142073690D01*
X172444833Y-141892261D02*
X172323880Y-141892261D01*
X172263404Y-141922500D01*
X172233166Y-141952738D01*
X172172690Y-142043452D01*
X172142452Y-142164404D01*
X172142452Y-142406309D01*
X172172690Y-142466785D01*
X172202928Y-142497023D01*
X172263404Y-142527261D01*
X172384357Y-142527261D01*
X172444833Y-142497023D01*
X172475071Y-142466785D01*
X172505309Y-142406309D01*
X172505309Y-142255119D01*
X172475071Y-142194642D01*
X172444833Y-142164404D01*
X172384357Y-142134166D01*
X172263404Y-142134166D01*
X172202928Y-142164404D01*
X172172690Y-142194642D01*
X172142452Y-142255119D01*
X197672785Y-125434761D02*
X197461119Y-125132380D01*
X197309928Y-125434761D02*
X197309928Y-124799761D01*
X197551833Y-124799761D01*
X197612309Y-124830000D01*
X197642547Y-124860238D01*
X197672785Y-124920714D01*
X197672785Y-125011428D01*
X197642547Y-125071904D01*
X197612309Y-125102142D01*
X197551833Y-125132380D01*
X197309928Y-125132380D01*
X197914690Y-124860238D02*
X197944928Y-124830000D01*
X198005404Y-124799761D01*
X198156595Y-124799761D01*
X198217071Y-124830000D01*
X198247309Y-124860238D01*
X198277547Y-124920714D01*
X198277547Y-124981190D01*
X198247309Y-125071904D01*
X197884452Y-125434761D01*
X198277547Y-125434761D01*
X198852071Y-124799761D02*
X198549690Y-124799761D01*
X198519452Y-125102142D01*
X198549690Y-125071904D01*
X198610166Y-125041666D01*
X198761357Y-125041666D01*
X198821833Y-125071904D01*
X198852071Y-125102142D01*
X198882309Y-125162619D01*
X198882309Y-125313809D01*
X198852071Y-125374285D01*
X198821833Y-125404523D01*
X198761357Y-125434761D01*
X198610166Y-125434761D01*
X198549690Y-125404523D01*
X198519452Y-125374285D01*
X212153333Y-98861523D02*
X212244047Y-98891761D01*
X212395238Y-98891761D01*
X212455714Y-98861523D01*
X212485952Y-98831285D01*
X212516190Y-98770809D01*
X212516190Y-98710333D01*
X212485952Y-98649857D01*
X212455714Y-98619619D01*
X212395238Y-98589380D01*
X212274285Y-98559142D01*
X212213809Y-98528904D01*
X212183571Y-98498666D01*
X212153333Y-98438190D01*
X212153333Y-98377714D01*
X212183571Y-98317238D01*
X212213809Y-98287000D01*
X212274285Y-98256761D01*
X212425476Y-98256761D01*
X212516190Y-98287000D01*
X212727857Y-98256761D02*
X212879047Y-98891761D01*
X213000000Y-98438190D01*
X213120952Y-98891761D01*
X213272142Y-98256761D01*
X213846666Y-98891761D02*
X213483809Y-98891761D01*
X213665238Y-98891761D02*
X213665238Y-98256761D01*
X213604761Y-98347476D01*
X213544285Y-98407952D01*
X213483809Y-98438190D01*
X190350571Y-97696261D02*
X190713428Y-97696261D01*
X190532000Y-98331261D02*
X190532000Y-97696261D01*
X190925095Y-98331261D02*
X190925095Y-97696261D01*
X190925095Y-97998642D02*
X191287952Y-97998642D01*
X191287952Y-98331261D02*
X191287952Y-97696261D01*
X191922952Y-98331261D02*
X191560095Y-98331261D01*
X191741523Y-98331261D02*
X191741523Y-97696261D01*
X191681047Y-97786976D01*
X191620571Y-97847452D01*
X191560095Y-97877690D01*
X196516190Y-112402261D02*
X196516190Y-112916309D01*
X196546428Y-112976785D01*
X196576666Y-113007023D01*
X196637142Y-113037261D01*
X196758095Y-113037261D01*
X196818571Y-113007023D01*
X196848809Y-112976785D01*
X196879047Y-112916309D01*
X196879047Y-112402261D01*
X197120952Y-112402261D02*
X197514047Y-112402261D01*
X197302380Y-112644166D01*
X197393095Y-112644166D01*
X197453571Y-112674404D01*
X197483809Y-112704642D01*
X197514047Y-112765119D01*
X197514047Y-112916309D01*
X197483809Y-112976785D01*
X197453571Y-113007023D01*
X197393095Y-113037261D01*
X197211666Y-113037261D01*
X197151190Y-113007023D01*
X197120952Y-112976785D01*
X152830190Y-141964261D02*
X152830190Y-142478309D01*
X152860428Y-142538785D01*
X152890666Y-142569023D01*
X152951142Y-142599261D01*
X153072095Y-142599261D01*
X153132571Y-142569023D01*
X153162809Y-142538785D01*
X153193047Y-142478309D01*
X153193047Y-141964261D01*
X153767571Y-142175928D02*
X153767571Y-142599261D01*
X153616380Y-141934023D02*
X153465190Y-142387595D01*
X153858285Y-142387595D01*
X151717428Y-142662761D02*
X151354571Y-142662761D01*
X151536000Y-142662761D02*
X151536000Y-142027761D01*
X151475523Y-142118476D01*
X151415047Y-142178952D01*
X151354571Y-142209190D01*
X118009190Y-97880261D02*
X118009190Y-98394309D01*
X118039428Y-98454785D01*
X118069666Y-98485023D01*
X118130142Y-98515261D01*
X118251095Y-98515261D01*
X118311571Y-98485023D01*
X118341809Y-98454785D01*
X118372047Y-98394309D01*
X118372047Y-97880261D01*
X118976809Y-97880261D02*
X118674428Y-97880261D01*
X118644190Y-98182642D01*
X118674428Y-98152404D01*
X118734904Y-98122166D01*
X118886095Y-98122166D01*
X118946571Y-98152404D01*
X118976809Y-98182642D01*
X119007047Y-98243119D01*
X119007047Y-98394309D01*
X118976809Y-98454785D01*
X118946571Y-98485023D01*
X118886095Y-98515261D01*
X118734904Y-98515261D01*
X118674428Y-98485023D01*
X118644190Y-98454785D01*
D15*
X117721285Y-114809523D02*
X117721285Y-114386190D01*
X118386523Y-114204761D02*
X118386523Y-114809523D01*
X117116523Y-114809523D01*
X117116523Y-114204761D01*
X118326047Y-113720952D02*
X118386523Y-113539523D01*
X118386523Y-113237142D01*
X118326047Y-113116190D01*
X118265571Y-113055714D01*
X118144619Y-112995238D01*
X118023666Y-112995238D01*
X117902714Y-113055714D01*
X117842238Y-113116190D01*
X117781761Y-113237142D01*
X117721285Y-113479047D01*
X117660809Y-113600000D01*
X117600333Y-113660476D01*
X117479380Y-113720952D01*
X117358428Y-113720952D01*
X117237476Y-113660476D01*
X117177000Y-113600000D01*
X117116523Y-113479047D01*
X117116523Y-113176666D01*
X117177000Y-112995238D01*
X118386523Y-112450952D02*
X117116523Y-112450952D01*
X117116523Y-111967142D01*
X117177000Y-111846190D01*
X117237476Y-111785714D01*
X117358428Y-111725238D01*
X117539857Y-111725238D01*
X117660809Y-111785714D01*
X117721285Y-111846190D01*
X117781761Y-111967142D01*
X117781761Y-112450952D01*
X117116523Y-111301904D02*
X117116523Y-110515714D01*
X117600333Y-110939047D01*
X117600333Y-110757619D01*
X117660809Y-110636666D01*
X117721285Y-110576190D01*
X117842238Y-110515714D01*
X118144619Y-110515714D01*
X118265571Y-110576190D01*
X118326047Y-110636666D01*
X118386523Y-110757619D01*
X118386523Y-111120476D01*
X118326047Y-111241428D01*
X118265571Y-111301904D01*
X117237476Y-110031904D02*
X117177000Y-109971428D01*
X117116523Y-109850476D01*
X117116523Y-109548095D01*
X117177000Y-109427142D01*
X117237476Y-109366666D01*
X117358428Y-109306190D01*
X117479380Y-109306190D01*
X117660809Y-109366666D01*
X118386523Y-110092380D01*
X118386523Y-109306190D01*
X117902714Y-108761904D02*
X117902714Y-107794285D01*
X117116523Y-107310476D02*
X118386523Y-107008095D01*
X117479380Y-106766190D01*
X118386523Y-106524285D01*
X117116523Y-106221904D01*
X118386523Y-105012380D02*
X117781761Y-105435714D01*
X118386523Y-105738095D02*
X117116523Y-105738095D01*
X117116523Y-105254285D01*
X117177000Y-105133333D01*
X117237476Y-105072857D01*
X117358428Y-105012380D01*
X117539857Y-105012380D01*
X117660809Y-105072857D01*
X117721285Y-105133333D01*
X117781761Y-105254285D01*
X117781761Y-105738095D01*
X117116523Y-104226190D02*
X117116523Y-103984285D01*
X117177000Y-103863333D01*
X117297952Y-103742380D01*
X117539857Y-103681904D01*
X117963190Y-103681904D01*
X118205095Y-103742380D01*
X118326047Y-103863333D01*
X118386523Y-103984285D01*
X118386523Y-104226190D01*
X118326047Y-104347142D01*
X118205095Y-104468095D01*
X117963190Y-104528571D01*
X117539857Y-104528571D01*
X117297952Y-104468095D01*
X117177000Y-104347142D01*
X117116523Y-104226190D01*
X117116523Y-102895714D02*
X117116523Y-102653809D01*
X117177000Y-102532857D01*
X117297952Y-102411904D01*
X117539857Y-102351428D01*
X117963190Y-102351428D01*
X118205095Y-102411904D01*
X118326047Y-102532857D01*
X118386523Y-102653809D01*
X118386523Y-102895714D01*
X118326047Y-103016666D01*
X118205095Y-103137619D01*
X117963190Y-103198095D01*
X117539857Y-103198095D01*
X117297952Y-103137619D01*
X117177000Y-103016666D01*
X117116523Y-102895714D01*
X118386523Y-101807142D02*
X117116523Y-101807142D01*
X118023666Y-101383809D01*
X117116523Y-100960476D01*
X118386523Y-100960476D01*
D10*
X198142685Y-120749785D02*
X198112447Y-120780023D01*
X198021733Y-120810261D01*
X197961257Y-120810261D01*
X197870542Y-120780023D01*
X197810066Y-120719547D01*
X197779828Y-120659071D01*
X197749590Y-120538119D01*
X197749590Y-120447404D01*
X197779828Y-120326452D01*
X197810066Y-120265976D01*
X197870542Y-120205500D01*
X197961257Y-120175261D01*
X198021733Y-120175261D01*
X198112447Y-120205500D01*
X198142685Y-120235738D01*
X198384590Y-120235738D02*
X198414828Y-120205500D01*
X198475304Y-120175261D01*
X198626495Y-120175261D01*
X198686971Y-120205500D01*
X198717209Y-120235738D01*
X198747447Y-120296214D01*
X198747447Y-120356690D01*
X198717209Y-120447404D01*
X198354352Y-120810261D01*
X198747447Y-120810261D01*
X198989352Y-120235738D02*
X199019590Y-120205500D01*
X199080066Y-120175261D01*
X199231257Y-120175261D01*
X199291733Y-120205500D01*
X199321971Y-120235738D01*
X199352209Y-120296214D01*
X199352209Y-120356690D01*
X199321971Y-120447404D01*
X198959114Y-120810261D01*
X199352209Y-120810261D01*
X159103785Y-141124214D02*
X159134023Y-141154452D01*
X159164261Y-141245166D01*
X159164261Y-141305642D01*
X159134023Y-141396357D01*
X159073547Y-141456833D01*
X159013071Y-141487071D01*
X158892119Y-141517309D01*
X158801404Y-141517309D01*
X158680452Y-141487071D01*
X158619976Y-141456833D01*
X158559500Y-141396357D01*
X158529261Y-141305642D01*
X158529261Y-141245166D01*
X158559500Y-141154452D01*
X158589738Y-141124214D01*
X158589738Y-140882309D02*
X158559500Y-140852071D01*
X158529261Y-140791595D01*
X158529261Y-140640404D01*
X158559500Y-140579928D01*
X158589738Y-140549690D01*
X158650214Y-140519452D01*
X158710690Y-140519452D01*
X158801404Y-140549690D01*
X159164261Y-140912547D01*
X159164261Y-140519452D01*
X158529261Y-139944928D02*
X158529261Y-140247309D01*
X158831642Y-140277547D01*
X158801404Y-140247309D01*
X158771166Y-140186833D01*
X158771166Y-140035642D01*
X158801404Y-139975166D01*
X158831642Y-139944928D01*
X158892119Y-139914690D01*
X159043309Y-139914690D01*
X159103785Y-139944928D01*
X159134023Y-139975166D01*
X159164261Y-140035642D01*
X159164261Y-140186833D01*
X159134023Y-140247309D01*
X159103785Y-140277547D01*
X147044833Y-141051642D02*
X146833166Y-141051642D01*
X146833166Y-141384261D02*
X146833166Y-140749261D01*
X147135547Y-140749261D01*
X147589119Y-141051642D02*
X147679833Y-141081880D01*
X147710071Y-141112119D01*
X147740309Y-141172595D01*
X147740309Y-141263309D01*
X147710071Y-141323785D01*
X147679833Y-141354023D01*
X147619357Y-141384261D01*
X147377452Y-141384261D01*
X147377452Y-140749261D01*
X147589119Y-140749261D01*
X147649595Y-140779500D01*
X147679833Y-140809738D01*
X147710071Y-140870214D01*
X147710071Y-140930690D01*
X147679833Y-140991166D01*
X147649595Y-141021404D01*
X147589119Y-141051642D01*
X147377452Y-141051642D01*
X147951976Y-140749261D02*
X148345071Y-140749261D01*
X148133404Y-140991166D01*
X148224119Y-140991166D01*
X148284595Y-141021404D01*
X148314833Y-141051642D01*
X148345071Y-141112119D01*
X148345071Y-141263309D01*
X148314833Y-141323785D01*
X148284595Y-141354023D01*
X148224119Y-141384261D01*
X148042690Y-141384261D01*
X147982214Y-141354023D01*
X147951976Y-141323785D01*
X163954690Y-139757761D02*
X163954690Y-140271809D01*
X163984928Y-140332285D01*
X164015166Y-140362523D01*
X164075642Y-140392761D01*
X164196595Y-140392761D01*
X164257071Y-140362523D01*
X164287309Y-140332285D01*
X164317547Y-140271809D01*
X164317547Y-139757761D01*
X164559452Y-139757761D02*
X164982785Y-139757761D01*
X164710642Y-140392761D01*
X167068428Y-146602261D02*
X166705571Y-146602261D01*
X166887000Y-146602261D02*
X166887000Y-145967261D01*
X166826523Y-146057976D01*
X166766047Y-146118452D01*
X166705571Y-146148690D01*
X192804547Y-130999642D02*
X193016214Y-130999642D01*
X193106928Y-131332261D02*
X192804547Y-131332261D01*
X192804547Y-130697261D01*
X193106928Y-130697261D01*
X193711690Y-131332261D02*
X193348833Y-131332261D01*
X193530261Y-131332261D02*
X193530261Y-130697261D01*
X193469785Y-130787976D01*
X193409309Y-130848452D01*
X193348833Y-130878690D01*
X135104547Y-131032642D02*
X135316214Y-131032642D01*
X135406928Y-131365261D02*
X135104547Y-131365261D01*
X135104547Y-130730261D01*
X135406928Y-130730261D01*
X135648833Y-130790738D02*
X135679071Y-130760500D01*
X135739547Y-130730261D01*
X135890738Y-130730261D01*
X135951214Y-130760500D01*
X135981452Y-130790738D01*
X136011690Y-130851214D01*
X136011690Y-130911690D01*
X135981452Y-131002404D01*
X135618595Y-131365261D01*
X136011690Y-131365261D01*
X123834261Y-95308666D02*
X124287833Y-95308666D01*
X124378547Y-95338904D01*
X124439023Y-95399380D01*
X124469261Y-95490095D01*
X124469261Y-95550571D01*
X123834261Y-94703904D02*
X123834261Y-95006285D01*
X124136642Y-95036523D01*
X124106404Y-95006285D01*
X124076166Y-94945809D01*
X124076166Y-94794619D01*
X124106404Y-94734142D01*
X124136642Y-94703904D01*
X124197119Y-94673666D01*
X124348309Y-94673666D01*
X124408785Y-94703904D01*
X124439023Y-94734142D01*
X124469261Y-94794619D01*
X124469261Y-94945809D01*
X124439023Y-95006285D01*
X124408785Y-95036523D01*
X176059333Y-151546261D02*
X176059333Y-151999833D01*
X176029095Y-152090547D01*
X175968619Y-152151023D01*
X175877904Y-152181261D01*
X175817428Y-152181261D01*
X176301238Y-151546261D02*
X176694333Y-151546261D01*
X176482666Y-151788166D01*
X176573380Y-151788166D01*
X176633857Y-151818404D01*
X176664095Y-151848642D01*
X176694333Y-151909119D01*
X176694333Y-152060309D01*
X176664095Y-152120785D01*
X176633857Y-152151023D01*
X176573380Y-152181261D01*
X176391952Y-152181261D01*
X176331476Y-152151023D01*
X176301238Y-152120785D01*
D11*
X161229523Y-135944428D02*
X161374666Y-135992809D01*
X161423047Y-136041190D01*
X161471428Y-136137952D01*
X161471428Y-136283095D01*
X161423047Y-136379857D01*
X161374666Y-136428238D01*
X161277904Y-136476619D01*
X160890857Y-136476619D01*
X160890857Y-135460619D01*
X161229523Y-135460619D01*
X161326285Y-135509000D01*
X161374666Y-135557380D01*
X161423047Y-135654142D01*
X161423047Y-135750904D01*
X161374666Y-135847666D01*
X161326285Y-135896047D01*
X161229523Y-135944428D01*
X160890857Y-135944428D01*
X161761714Y-135460619D02*
X162342285Y-135460619D01*
X162052000Y-136476619D02*
X162052000Y-135460619D01*
X162680952Y-136476619D02*
X162680952Y-135460619D01*
X163261523Y-136476619D01*
X163261523Y-135460619D01*
X163696952Y-135557380D02*
X163745333Y-135509000D01*
X163842095Y-135460619D01*
X164084000Y-135460619D01*
X164180761Y-135509000D01*
X164229142Y-135557380D01*
X164277523Y-135654142D01*
X164277523Y-135750904D01*
X164229142Y-135896047D01*
X163648571Y-136476619D01*
X164277523Y-136476619D01*
M02*
