M48
; DRILL file {KiCad (5.1.4)-1} date 3/24/2021 3:31:31 PM
; FORMAT={-:-/ absolute / inch / decimal}
; #@! TF.CreationDate,2021-03-24T15:31:31+01:00
; #@! TF.GenerationSoftware,Kicad,Pcbnew,(5.1.4)-1
; #@! TF.FileFunction,Plated,1,2,PTH
FMAT,2
INCH
T1C0.0120
T2C0.0236
T3C0.0300
T4C0.0335
T5C0.0354
T6C0.0360
T7C0.0394
T8C0.0433
T9C0.0591
T10C0.0984
%
G90
G05
T1
X4.535Y-3.835
X4.535Y-4.62
X4.535Y-4.735
X4.535Y-4.85
X4.535Y-4.96
X4.535Y-5.095
X4.535Y-5.21
X4.535Y-5.34
X4.535Y-5.46
X4.535Y-5.56
X4.535Y-5.69
X4.535Y-5.785
X4.535Y-5.895
X4.615Y-3.87
X4.645Y-4.62
X4.65Y-6.02
X4.66Y-3.705
X4.69Y-4.805
X4.695Y-5.32
X4.695Y-5.47
X4.695Y-5.62
X4.695Y-5.77
X4.695Y-5.945
X4.73Y-3.87
X4.735Y-4.62
X4.77Y-3.995
X4.77Y-4.11
X4.77Y-4.22
X4.77Y-4.34
X4.775Y-6.02
X4.845Y-4.92
X4.856Y-4.8613
X4.8836Y-5.0818
X4.905Y-3.705
X4.93Y-6.02
X4.9623Y-5.1133
X4.975Y-3.9926
X5.0083Y-4.7083
X5.03Y-3.82
X5.035Y-3.98
X5.04Y-4.955
X5.09Y-6.02
X5.12Y-3.705
X5.23Y-5.05
X5.25Y-4.96
X5.25Y-6.02
X5.26Y-3.96
X5.3207Y-3.8456
X5.3306Y-4.0398
X5.355Y-4.81
X5.3707Y-3.8456
X5.39Y-5.545
X5.39Y-5.635
X5.39Y-5.735
X5.39Y-5.845
X5.39Y-6.02
X5.3915Y-5.4755
X5.395Y-5.32
X5.395Y-5.405
X5.3954Y-5.2354
X5.4111Y-5.0661
X5.45Y-5.915
X5.455Y-3.705
X5.5135Y-4.9637
X5.535Y-6.02
X5.565Y-5.915
X5.595Y-4.95
X5.5962Y-4.0503
X5.5962Y-4.4911
X5.605Y-5.105
X5.62Y-3.705
X5.62Y-4.815
X5.62Y-5.22
X5.6277Y-3.948
X5.6277Y-4.3731
X5.69Y-6.02
X5.695Y-5.915
X5.73Y-5.6645
X5.76Y-5.45
X5.795Y-3.705
X5.8Y-3.95
X5.8Y-4.105
X5.8Y-4.33
X5.815Y-5.915
X5.815Y-6.02
X5.8167Y-5.5188
X5.865Y-5.45
X5.8875Y-4.7905
X5.895Y-5.215
X5.9111Y-4.4243
X5.925Y-3.96
X5.9308Y-5.5228
X5.9387Y-4.6881
X5.9387Y-4.8259
X5.945Y-5.095
X5.945Y-5.915
X5.945Y-6.02
X5.9623Y-4.7117
X5.98Y-4.105
X5.98Y-4.33
X5.98Y-4.51
X5.982Y-4.7629
X5.995Y-5.45
X6.0Y-5.735
X6.005Y-5.215
X6.06Y-3.705
X6.07Y-5.86
X6.07Y-5.915
X6.085Y-5.48
X6.085Y-5.57
X6.095Y-6.02
X6.108Y-4.9716
X6.115Y-5.435
X6.12Y-4.51
X6.13Y-5.48
X6.13Y-5.57
X6.135Y-5.91
X6.155Y-3.96
X6.1631Y-5.144
X6.165Y-5.23
X6.19Y-5.685
X6.2143Y-5.435
X6.2222Y-6.0206
X6.234Y-5.9125
X6.255Y-5.48
X6.255Y-5.685
X6.2891Y-5.3889
X6.29Y-4.625
X6.29Y-4.715
X6.295Y-5.225
X6.31Y-5.065
X6.3206Y-6.0206
X6.325Y-4.12
X6.325Y-5.9125
X6.34Y-3.705
X6.34Y-4.51
X6.345Y-5.48
X6.3481Y-5.1487
X6.3682Y-5.6204
X6.3699Y-5.6551
X6.385Y-4.935
X6.4072Y-5.9125
X6.4072Y-6.0206
X6.425Y-5.48
X6.44Y-5.225
X6.47Y-5.065
X6.475Y-5.585
X6.475Y-5.62
X6.475Y-5.655
X6.475Y-5.69
X6.475Y-5.725
X6.485Y-4.965
X6.495Y-3.705
X6.5017Y-6.0206
X6.505Y-5.9125
X6.51Y-5.48
X6.5135Y-5.1448
X6.525Y-4.115
X6.56Y-5.43
X6.5649Y-5.4829
X6.58Y-4.51
X6.5855Y-5.6307
X6.595Y-5.23
X6.6001Y-6.0206
X6.605Y-5.9125
X6.63Y-5.48
X6.6434Y-5.4007
X6.675Y-3.705
X6.7025Y-6.0206
X6.705Y-5.48
X6.705Y-5.57
X6.7064Y-5.9125
X6.72Y-4.115
X6.725Y-5.785
X6.74Y-4.95
X6.755Y-5.695
X6.793Y-5.435
X6.805Y-4.51
X6.8167Y-6.0206
X6.82Y-5.48
X6.82Y-5.81
X6.82Y-5.915
X6.86Y-3.705
X6.8639Y-4.7039
X6.8675Y-4.2575
X6.87Y-5.515
X6.8796Y-5.7039
X6.9348Y-5.9007
X6.94Y-6.02
X6.945Y-4.785
X6.945Y-4.945
X6.96Y-5.235
X6.965Y-5.45
X6.965Y-5.6
X6.97Y-5.79
X7.02Y-4.51
X7.0293Y-5.6999
X7.04Y-3.705
X7.055Y-5.87
X7.07Y-6.02
X7.075Y-5.52
X7.08Y-5.6
X7.095Y-4.36
X7.095Y-4.39
X7.095Y-4.42
X7.095Y-4.45
X7.12Y-4.375
X7.12Y-4.405
X7.12Y-4.435
X7.15Y-4.59
X7.15Y-4.735
X7.155Y-4.465
X7.185Y-4.95
X7.205Y-5.245
X7.205Y-5.445
X7.205Y-5.6
X7.21Y-3.705
X7.21Y-5.7039
X7.21Y-5.875
X7.21Y-6.02
X7.235Y-4.38
X7.251Y-3.9907
X7.2601Y-3.9285
X7.28Y-4.16
X7.3Y-5.52
X7.3Y-5.6
X7.3048Y-5.7039
X7.305Y-5.345
X7.325Y-6.02
X7.335Y-5.025
X7.3367Y-3.7549
X7.34Y-3.95
X7.345Y-4.73
X7.355Y-4.0
X7.38Y-4.385
X7.385Y-4.235
X7.3915Y-5.6
X7.4Y-5.245
X7.4Y-5.45
X7.4Y-5.875
X7.405Y-4.005
X7.43Y-3.8125
X7.4387Y-5.7078
X7.445Y-6.02
X7.4899Y-5.5976
X7.505Y-4.815
X7.525Y-4.785
X7.5686Y-5.5976
X7.57Y-5.145
X7.57Y-5.245
X7.57Y-5.345
X7.57Y-5.445
X7.57Y-5.525
X7.57Y-5.72
X7.57Y-5.795
X7.57Y-5.875
X7.57Y-5.955
X7.57Y-6.02
X7.585Y-4.62
X7.635Y-4.96
X7.665Y-3.83
X7.67Y-5.145
X7.695Y-4.755
X7.705Y-6.02
X7.7165Y-4.5526
X7.72Y-5.05
X7.77Y-5.145
X7.82Y-4.775
X7.825Y-6.02
X7.85Y-4.12
X7.85Y-4.15
X7.8504Y-4.18
X7.87Y-5.145
X7.875Y-3.815
X7.885Y-4.15
X7.885Y-4.18
X7.92Y-4.15
X7.92Y-4.18
X7.925Y-6.02
X7.935Y-4.875
X7.995Y-5.145
X8.015Y-6.02
X8.04Y-4.955
X8.11Y-6.02
X8.12Y-5.145
X8.18Y-4.885
X8.18Y-5.035
X8.21Y-6.02
X8.235Y-4.6831
X8.235Y-4.715
X8.245Y-5.145
X8.245Y-5.245
X8.245Y-5.345
X8.245Y-5.445
X8.245Y-5.545
X8.245Y-5.645
X8.245Y-5.745
X8.245Y-5.845
X8.245Y-5.945
X8.28Y-3.735
X8.305Y-6.02
X8.42Y-3.825
X8.42Y-3.93
X8.42Y-4.105
X8.42Y-4.205
X8.42Y-4.3
X8.42Y-4.4
X8.42Y-4.505
X8.42Y-4.88
X8.42Y-4.96
X8.42Y-5.045
X8.42Y-5.145
X8.42Y-5.27
X8.42Y-5.375
X8.42Y-5.48
X8.42Y-5.565
X8.42Y-5.66
X8.42Y-5.74
X8.42Y-5.825
X8.42Y-5.9
T3
X6.1744Y-3.7795
X6.2744Y-3.7795
X6.3744Y-3.7795
X6.4744Y-3.7795
X6.5744Y-3.7795
X6.6744Y-3.7795
X6.7744Y-3.7795
T4
X8.2889Y-4.5911
X8.2889Y-4.788
T5
X7.445Y-4.975
X7.445Y-5.075
X7.27Y-4.975
X7.27Y-5.075
X7.9331Y-3.7795
X8.0331Y-3.7795
X8.1299Y-3.7795
X8.2299Y-3.7795
X7.445Y-4.695
X7.445Y-4.795
X7.7264Y-3.7795
X7.8264Y-3.7795
X7.27Y-4.6949
X7.27Y-4.7949
T6
X4.8688Y-4.5279
X4.985Y-4.4637
X5.415Y-4.305
X5.6823Y-4.662
X5.7379Y-5.7354
X6.149Y-4.116
X6.2234Y-3.9696
T7
X8.3135Y-4.3211
X8.3135Y-4.4196
X4.97Y-3.755
X5.07Y-3.755
X5.17Y-3.755
X5.27Y-3.755
X5.37Y-3.755
X7.0198Y-5.9401
X7.1198Y-5.9401
X7.485Y-3.78
X7.585Y-3.78
T8
X8.0535Y-3.9696
X8.0535Y-4.0696
X8.0535Y-4.1696
X8.2535Y-3.9696
X8.2535Y-4.1696
T9
X6.7711Y-5.5242
X6.1806Y-5.5242
X6.1806Y-5.858
X6.7711Y-5.858
T10
X5.876Y-3.7992
X5.876Y-4.9213
X7.0728Y-3.7992
X7.0728Y-4.9213
X8.3659Y-5.9637
X8.3659Y-3.759
X4.5863Y-3.759
X4.5863Y-5.9637
T2
G00X8.3814Y-4.5518
M15
G01X8.409Y-4.5518
M16
G05
G00X8.409Y-4.8274
M15
G01X8.3814Y-4.8274
M16
G05
T6
G00X5.0333Y-4.1974
M15
G01X5.0333Y-4.1974
M16
G05
G00X5.0333Y-4.3224
M15
G01X5.0333Y-4.3224
M16
G05
G00X5.1083Y-4.2474
M15
G01X5.1083Y-4.2474
M16
G05
G00X5.1833Y-4.1974
M15
G01X5.1833Y-4.1974
M16
G05
G00X5.1833Y-4.3224
M15
G01X5.1833Y-4.3224
M16
G05
T0
M30
