G04 #@! TF.GenerationSoftware,KiCad,Pcbnew,(5.1.4)-1*
G04 #@! TF.CreationDate,2021-03-24T15:31:25+01:00*
G04 #@! TF.ProjectId,HRM,48524d2e-6b69-4636-9164-5f7063625858,rev?*
G04 #@! TF.SameCoordinates,Original*
G04 #@! TF.FileFunction,Legend,Bot*
G04 #@! TF.FilePolarity,Positive*
%FSLAX46Y46*%
G04 Gerber Fmt 4.6, Leading zero omitted, Abs format (unit mm)*
G04 Created by KiCad (PCBNEW (5.1.4)-1) date 2021-03-24 15:31:25*
%MOMM*%
%LPD*%
G04 APERTURE LIST*
%ADD10C,0.127000*%
%ADD11C,0.120000*%
%ADD12C,0.150000*%
G04 APERTURE END LIST*
D10*
X190826571Y-125255261D02*
X191189428Y-125255261D01*
X191008000Y-125255261D02*
X191008000Y-124620261D01*
X191068476Y-124710976D01*
X191128952Y-124771452D01*
X191189428Y-124801690D01*
X183818571Y-103506761D02*
X184181428Y-103506761D01*
X184000000Y-103506761D02*
X184000000Y-102871761D01*
X184060476Y-102962476D01*
X184120952Y-103022952D01*
X184181428Y-103053190D01*
D11*
X159481500Y-141986000D02*
X161513500Y-141986000D01*
X161513500Y-146050000D02*
X159481500Y-146050000D01*
X161513500Y-146050000D02*
X161513500Y-145415000D01*
X159481500Y-146050000D02*
X159481500Y-145415000D01*
X161513500Y-142621000D02*
X161513500Y-141986000D01*
X159481500Y-142621000D02*
X159481500Y-141986000D01*
X179782000Y-108729000D02*
X179782000Y-110761000D01*
X175718000Y-110761000D02*
X175718000Y-108729000D01*
X175718000Y-110761000D02*
X176353000Y-110761000D01*
X175718000Y-108729000D02*
X176353000Y-108729000D01*
X179147000Y-110761000D02*
X179782000Y-110761000D01*
X179147000Y-108729000D02*
X179782000Y-108729000D01*
X171234000Y-102603000D02*
X171234000Y-101968000D01*
X173266000Y-102603000D02*
X173266000Y-101968000D01*
X171234000Y-106032000D02*
X171234000Y-105397000D01*
X173266000Y-106032000D02*
X173266000Y-105397000D01*
X173266000Y-106032000D02*
X171234000Y-106032000D01*
X171234000Y-101968000D02*
X173266000Y-101968000D01*
X206844000Y-115368500D02*
X207479000Y-115368500D01*
X206844000Y-117400500D02*
X207479000Y-117400500D01*
X203415000Y-115368500D02*
X204050000Y-115368500D01*
X203415000Y-117400500D02*
X204050000Y-117400500D01*
X203415000Y-117400500D02*
X203415000Y-115368500D01*
X207479000Y-115368500D02*
X207479000Y-117400500D01*
X207479000Y-121464500D02*
X207479000Y-123496500D01*
X203415000Y-123496500D02*
X203415000Y-121464500D01*
X203415000Y-123496500D02*
X204050000Y-123496500D01*
X203415000Y-121464500D02*
X204050000Y-121464500D01*
X206844000Y-123496500D02*
X207479000Y-123496500D01*
X206844000Y-121464500D02*
X207479000Y-121464500D01*
X196811000Y-115432000D02*
X196811000Y-117464000D01*
X192747000Y-117464000D02*
X192747000Y-115432000D01*
X192747000Y-117464000D02*
X193382000Y-117464000D01*
X192747000Y-115432000D02*
X193382000Y-115432000D01*
X196176000Y-117464000D02*
X196811000Y-117464000D01*
X196176000Y-115432000D02*
X196811000Y-115432000D01*
X125984000Y-130175000D02*
X123952000Y-130175000D01*
X123952000Y-126111000D02*
X125984000Y-126111000D01*
X123952000Y-126111000D02*
X123952000Y-126746000D01*
X125984000Y-126111000D02*
X125984000Y-126746000D01*
X123952000Y-129540000D02*
X123952000Y-130175000D01*
X125984000Y-129540000D02*
X125984000Y-130175000D01*
X198462000Y-122036000D02*
X200494000Y-122036000D01*
X200494000Y-126100000D02*
X198462000Y-126100000D01*
X200494000Y-126100000D02*
X200494000Y-125465000D01*
X198462000Y-126100000D02*
X198462000Y-125465000D01*
X200494000Y-122671000D02*
X200494000Y-122036000D01*
X198462000Y-122671000D02*
X198462000Y-122036000D01*
X200494000Y-122671000D02*
X200494000Y-122036000D01*
X202526000Y-122671000D02*
X202526000Y-122036000D01*
X200494000Y-126100000D02*
X200494000Y-125465000D01*
X202526000Y-126100000D02*
X202526000Y-125465000D01*
X202526000Y-126100000D02*
X200494000Y-126100000D01*
X200494000Y-122036000D02*
X202526000Y-122036000D01*
X158242000Y-130048000D02*
X158242000Y-130683000D01*
X156210000Y-130048000D02*
X156210000Y-130683000D01*
X158242000Y-126619000D02*
X158242000Y-127254000D01*
X156210000Y-126619000D02*
X156210000Y-127254000D01*
X156210000Y-126619000D02*
X158242000Y-126619000D01*
X158242000Y-130683000D02*
X156210000Y-130683000D01*
X166370000Y-130683000D02*
X164338000Y-130683000D01*
X164338000Y-126619000D02*
X166370000Y-126619000D01*
X164338000Y-126619000D02*
X164338000Y-127254000D01*
X166370000Y-126619000D02*
X166370000Y-127254000D01*
X164338000Y-130048000D02*
X164338000Y-130683000D01*
X166370000Y-130048000D02*
X166370000Y-130683000D01*
X132080000Y-130175000D02*
X130048000Y-130175000D01*
X130048000Y-126111000D02*
X132080000Y-126111000D01*
X130048000Y-126111000D02*
X130048000Y-126746000D01*
X132080000Y-126111000D02*
X132080000Y-126746000D01*
X130048000Y-129540000D02*
X130048000Y-130175000D01*
X132080000Y-129540000D02*
X132080000Y-130175000D01*
X201852000Y-111007000D02*
X201852000Y-114817000D01*
X201852000Y-114817000D02*
X213572000Y-114817000D01*
X213572000Y-114817000D02*
X213572000Y-113397000D01*
X213572000Y-113397000D02*
X209072000Y-113397000D01*
X209072000Y-113397000D02*
X209072000Y-111007000D01*
X201852000Y-111007000D02*
X201852000Y-107197000D01*
X201852000Y-107197000D02*
X213572000Y-107197000D01*
X213572000Y-107197000D02*
X213572000Y-108617000D01*
X213572000Y-108617000D02*
X209072000Y-108617000D01*
X209072000Y-108617000D02*
X209072000Y-111007000D01*
X207962000Y-112507000D02*
X202462000Y-112507000D01*
X202462000Y-112507000D02*
X202462000Y-112007000D01*
X202462000Y-112007000D02*
X207962000Y-112007000D01*
X207962000Y-112007000D02*
X207962000Y-112507000D01*
X207962000Y-110007000D02*
X202462000Y-110007000D01*
X202462000Y-110007000D02*
X202462000Y-109507000D01*
X202462000Y-109507000D02*
X207962000Y-109507000D01*
X207962000Y-109507000D02*
X207962000Y-110007000D01*
X212662000Y-112257000D02*
X213262000Y-112557000D01*
X213262000Y-112557000D02*
X213262000Y-111957000D01*
X213262000Y-111957000D02*
X212662000Y-112257000D01*
X174242000Y-116403000D02*
X174242000Y-117333000D01*
X174242000Y-119563000D02*
X174242000Y-118633000D01*
X174242000Y-119563000D02*
X172082000Y-119563000D01*
X174242000Y-116403000D02*
X172782000Y-116403000D01*
X174242000Y-119705000D02*
X174242000Y-120635000D01*
X174242000Y-122865000D02*
X174242000Y-121935000D01*
X174242000Y-122865000D02*
X172082000Y-122865000D01*
X174242000Y-119705000D02*
X172782000Y-119705000D01*
X207479000Y-117400500D02*
X207479000Y-119432500D01*
X203415000Y-119432500D02*
X203415000Y-117400500D01*
X203415000Y-119432500D02*
X204050000Y-119432500D01*
X203415000Y-117400500D02*
X204050000Y-117400500D01*
X206844000Y-119432500D02*
X207479000Y-119432500D01*
X206844000Y-117400500D02*
X207479000Y-117400500D01*
X206844000Y-119432500D02*
X207479000Y-119432500D01*
X206844000Y-121464500D02*
X207479000Y-121464500D01*
X203415000Y-119432500D02*
X204050000Y-119432500D01*
X203415000Y-121464500D02*
X204050000Y-121464500D01*
X203415000Y-121464500D02*
X203415000Y-119432500D01*
X207479000Y-119432500D02*
X207479000Y-121464500D01*
X182299000Y-95599500D02*
X184331000Y-95599500D01*
X184331000Y-99663500D02*
X182299000Y-99663500D01*
X184331000Y-99663500D02*
X184331000Y-99028500D01*
X182299000Y-99663500D02*
X182299000Y-99028500D01*
X184331000Y-96234500D02*
X184331000Y-95599500D01*
X182299000Y-96234500D02*
X182299000Y-95599500D01*
X184331000Y-96234500D02*
X184331000Y-95599500D01*
X186363000Y-96234500D02*
X186363000Y-95599500D01*
X184331000Y-99663500D02*
X184331000Y-99028500D01*
X186363000Y-99663500D02*
X186363000Y-99028500D01*
X186363000Y-99663500D02*
X184331000Y-99663500D01*
X184331000Y-95599500D02*
X186363000Y-95599500D01*
X188393000Y-99028500D02*
X188393000Y-99663500D01*
X186361000Y-99028500D02*
X186361000Y-99663500D01*
X188393000Y-95599500D02*
X188393000Y-96234500D01*
X186361000Y-95599500D02*
X186361000Y-96234500D01*
X186361000Y-95599500D02*
X188393000Y-95599500D01*
X188393000Y-99663500D02*
X186361000Y-99663500D01*
X162052000Y-109347000D02*
X162687000Y-109347000D01*
X162052000Y-111379000D02*
X162687000Y-111379000D01*
X158623000Y-109347000D02*
X159258000Y-109347000D01*
X158623000Y-111379000D02*
X159258000Y-111379000D01*
X158623000Y-111379000D02*
X158623000Y-109347000D01*
X162687000Y-109347000D02*
X162687000Y-111379000D01*
X128270000Y-124841000D02*
X126238000Y-124841000D01*
X126238000Y-120777000D02*
X128270000Y-120777000D01*
X126238000Y-120777000D02*
X126238000Y-121412000D01*
X128270000Y-120777000D02*
X128270000Y-121412000D01*
X126238000Y-124206000D02*
X126238000Y-124841000D01*
X128270000Y-124206000D02*
X128270000Y-124841000D01*
X158623000Y-109347000D02*
X158623000Y-107315000D01*
X162687000Y-107315000D02*
X162687000Y-109347000D01*
X162687000Y-107315000D02*
X162052000Y-107315000D01*
X162687000Y-109347000D02*
X162052000Y-109347000D01*
X159258000Y-107315000D02*
X158623000Y-107315000D01*
X159258000Y-109347000D02*
X158623000Y-109347000D01*
X125984000Y-126746000D02*
X125984000Y-126111000D01*
X128016000Y-126746000D02*
X128016000Y-126111000D01*
X125984000Y-130175000D02*
X125984000Y-129540000D01*
X128016000Y-130175000D02*
X128016000Y-129540000D01*
X128016000Y-130175000D02*
X125984000Y-130175000D01*
X125984000Y-126111000D02*
X128016000Y-126111000D01*
X193421000Y-99949000D02*
X192786000Y-99949000D01*
X193421000Y-97917000D02*
X192786000Y-97917000D01*
X196850000Y-99949000D02*
X196215000Y-99949000D01*
X196850000Y-97917000D02*
X196215000Y-97917000D01*
X196850000Y-97917000D02*
X196850000Y-99949000D01*
X192786000Y-99949000D02*
X192786000Y-97917000D01*
X158350000Y-121725000D02*
X157715000Y-121725000D01*
X158350000Y-119693000D02*
X157715000Y-119693000D01*
X161779000Y-121725000D02*
X161144000Y-121725000D01*
X161779000Y-119693000D02*
X161144000Y-119693000D01*
X161779000Y-119693000D02*
X161779000Y-121725000D01*
X157715000Y-121725000D02*
X157715000Y-119693000D01*
X158350000Y-119693000D02*
X157715000Y-119693000D01*
X158350000Y-117661000D02*
X157715000Y-117661000D01*
X161779000Y-119693000D02*
X161144000Y-119693000D01*
X161779000Y-117661000D02*
X161144000Y-117661000D01*
X161779000Y-117661000D02*
X161779000Y-119693000D01*
X157715000Y-119693000D02*
X157715000Y-117661000D01*
X170942000Y-120904000D02*
X170942000Y-121539000D01*
X168910000Y-120904000D02*
X168910000Y-121539000D01*
X170942000Y-117475000D02*
X170942000Y-118110000D01*
X168910000Y-117475000D02*
X168910000Y-118110000D01*
X168910000Y-117475000D02*
X170942000Y-117475000D01*
X170942000Y-121539000D02*
X168910000Y-121539000D01*
X186055000Y-115316000D02*
X185420000Y-115316000D01*
X186055000Y-113284000D02*
X185420000Y-113284000D01*
X189484000Y-115316000D02*
X188849000Y-115316000D01*
X189484000Y-113284000D02*
X188849000Y-113284000D01*
X189484000Y-113284000D02*
X189484000Y-115316000D01*
X185420000Y-115316000D02*
X185420000Y-113284000D01*
X185420000Y-117348000D02*
X185420000Y-115316000D01*
X189484000Y-115316000D02*
X189484000Y-117348000D01*
X189484000Y-115316000D02*
X188849000Y-115316000D01*
X189484000Y-117348000D02*
X188849000Y-117348000D01*
X186055000Y-115316000D02*
X185420000Y-115316000D01*
X186055000Y-117348000D02*
X185420000Y-117348000D01*
X125476000Y-101473000D02*
X126111000Y-101473000D01*
X125476000Y-103505000D02*
X126111000Y-103505000D01*
X122047000Y-101473000D02*
X122682000Y-101473000D01*
X122047000Y-103505000D02*
X122682000Y-103505000D01*
X122047000Y-103505000D02*
X122047000Y-101473000D01*
X126111000Y-101473000D02*
X126111000Y-103505000D01*
X126111000Y-99441000D02*
X126111000Y-101473000D01*
X122047000Y-101473000D02*
X122047000Y-99441000D01*
X122047000Y-101473000D02*
X122682000Y-101473000D01*
X122047000Y-99441000D02*
X122682000Y-99441000D01*
X125476000Y-101473000D02*
X126111000Y-101473000D01*
X125476000Y-99441000D02*
X126111000Y-99441000D01*
X126111000Y-97409000D02*
X126111000Y-99441000D01*
X122047000Y-99441000D02*
X122047000Y-97409000D01*
X122047000Y-99441000D02*
X122682000Y-99441000D01*
X122047000Y-97409000D02*
X122682000Y-97409000D01*
X125476000Y-99441000D02*
X126111000Y-99441000D01*
X125476000Y-97409000D02*
X126111000Y-97409000D01*
X166878000Y-117475000D02*
X168910000Y-117475000D01*
X168910000Y-121539000D02*
X166878000Y-121539000D01*
X168910000Y-121539000D02*
X168910000Y-120904000D01*
X166878000Y-121539000D02*
X166878000Y-120904000D01*
X168910000Y-118110000D02*
X168910000Y-117475000D01*
X166878000Y-118110000D02*
X166878000Y-117475000D01*
X128016000Y-126111000D02*
X130048000Y-126111000D01*
X130048000Y-130175000D02*
X128016000Y-130175000D01*
X130048000Y-130175000D02*
X130048000Y-129540000D01*
X128016000Y-130175000D02*
X128016000Y-129540000D01*
X130048000Y-126746000D02*
X130048000Y-126111000D01*
X128016000Y-126746000D02*
X128016000Y-126111000D01*
X160274000Y-130048000D02*
X160274000Y-130683000D01*
X158242000Y-130048000D02*
X158242000Y-130683000D01*
X160274000Y-126619000D02*
X160274000Y-127254000D01*
X158242000Y-126619000D02*
X158242000Y-127254000D01*
X158242000Y-126619000D02*
X160274000Y-126619000D01*
X160274000Y-130683000D02*
X158242000Y-130683000D01*
X168402000Y-130048000D02*
X168402000Y-130683000D01*
X166370000Y-130048000D02*
X166370000Y-130683000D01*
X168402000Y-126619000D02*
X168402000Y-127254000D01*
X166370000Y-126619000D02*
X166370000Y-127254000D01*
X166370000Y-126619000D02*
X168402000Y-126619000D01*
X168402000Y-130683000D02*
X166370000Y-130683000D01*
D12*
X185831000Y-103624500D02*
X185831000Y-103399500D01*
X189181000Y-103624500D02*
X189181000Y-103324500D01*
X189181000Y-100274500D02*
X189181000Y-100574500D01*
X185831000Y-100274500D02*
X185831000Y-100574500D01*
X185831000Y-103624500D02*
X189181000Y-103624500D01*
X185831000Y-100274500D02*
X189181000Y-100274500D01*
X185831000Y-103399500D02*
X184606000Y-103399500D01*
D11*
X173564000Y-102030500D02*
X174824000Y-102030500D01*
X180384000Y-102030500D02*
X179124000Y-102030500D01*
X173564000Y-105790500D02*
X173564000Y-102030500D01*
X180384000Y-108040500D02*
X180384000Y-102030500D01*
X130808000Y-121229000D02*
X130808000Y-122159000D01*
X130808000Y-124389000D02*
X130808000Y-123459000D01*
X130808000Y-124389000D02*
X128648000Y-124389000D01*
X130808000Y-121229000D02*
X129348000Y-121229000D01*
D12*
X192767500Y-125528000D02*
X192767500Y-126638000D01*
X196917500Y-126638000D02*
X196917500Y-125528000D01*
X196917500Y-117688000D02*
X196917500Y-118798000D01*
X192767500Y-117688000D02*
X192767500Y-118798000D01*
X192767500Y-126638000D02*
X196917500Y-126638000D01*
X192767500Y-117688000D02*
X196917500Y-117688000D01*
X192767500Y-125528000D02*
X191642500Y-125528000D01*
D11*
X126022100Y-111760000D02*
X126022100Y-114300000D01*
X126022100Y-114300000D02*
X125260100Y-114300000D01*
X126022100Y-111760000D02*
X125260100Y-111760000D01*
X120815100Y-111760000D02*
X121577100Y-111760000D01*
X120815100Y-114300000D02*
X120815100Y-111760000D01*
X120815100Y-114300000D02*
X121577100Y-114300000D01*
X126022100Y-114300000D02*
X126022100Y-116840000D01*
X126022100Y-116840000D02*
X125260100Y-116840000D01*
X126022100Y-114300000D02*
X125260100Y-114300000D01*
X120815100Y-114300000D02*
X121577100Y-114300000D01*
X120815100Y-116840000D02*
X120815100Y-114300000D01*
X120815100Y-116840000D02*
X121577100Y-116840000D01*
X182133900Y-106648500D02*
X182133900Y-104108500D01*
X182133900Y-104108500D02*
X182895900Y-104108500D01*
X182133900Y-106648500D02*
X182895900Y-106648500D01*
X187340900Y-106648500D02*
X186578900Y-106648500D01*
X187340900Y-104108500D02*
X187340900Y-106648500D01*
X187340900Y-104108500D02*
X186578900Y-104108500D01*
X179853500Y-110761000D02*
X179091500Y-110761000D01*
X179853500Y-110761000D02*
X179853500Y-113301000D01*
X179853500Y-113301000D02*
X179091500Y-113301000D01*
X174646500Y-113301000D02*
X175408500Y-113301000D01*
X174646500Y-110761000D02*
X175408500Y-110761000D01*
X174646500Y-113301000D02*
X174646500Y-110761000D01*
X171270000Y-107124500D02*
X168730000Y-107124500D01*
X168730000Y-107124500D02*
X168730000Y-106362500D01*
X171270000Y-107124500D02*
X171270000Y-106362500D01*
X171270000Y-101917500D02*
X171270000Y-102679500D01*
X168730000Y-101917500D02*
X171270000Y-101917500D01*
X168730000Y-101917500D02*
X168730000Y-102679500D01*
X187569500Y-106648500D02*
X188331500Y-106648500D01*
X187569500Y-106648500D02*
X187569500Y-104108500D01*
X187569500Y-104108500D02*
X188331500Y-104108500D01*
X192776500Y-104108500D02*
X192014500Y-104108500D01*
X192776500Y-106648500D02*
X192014500Y-106648500D01*
X192776500Y-104108500D02*
X192776500Y-106648500D01*
X159481500Y-147138000D02*
X156941500Y-147138000D01*
X156941500Y-147138000D02*
X156941500Y-146376000D01*
X159481500Y-147138000D02*
X159481500Y-146376000D01*
X159481500Y-141931000D02*
X159481500Y-142693000D01*
X156941500Y-141931000D02*
X159481500Y-141931000D01*
X156941500Y-141931000D02*
X156941500Y-142693000D01*
X126238000Y-124841000D02*
X124206000Y-124841000D01*
X124206000Y-120777000D02*
X126238000Y-120777000D01*
X124206000Y-120777000D02*
X124206000Y-121412000D01*
X126238000Y-120777000D02*
X126238000Y-121412000D01*
X124206000Y-124206000D02*
X124206000Y-124841000D01*
X126238000Y-124206000D02*
X126238000Y-124841000D01*
X154909500Y-142375500D02*
X156941500Y-142375500D01*
X156941500Y-146439500D02*
X154909500Y-146439500D01*
X156941500Y-146439500D02*
X156941500Y-145804500D01*
X154909500Y-146439500D02*
X154909500Y-145804500D01*
X156941500Y-143010500D02*
X156941500Y-142375500D01*
X154909500Y-143010500D02*
X154909500Y-142375500D01*
X158623000Y-113411000D02*
X158623000Y-111379000D01*
X162687000Y-111379000D02*
X162687000Y-113411000D01*
X162687000Y-111379000D02*
X162052000Y-111379000D01*
X162687000Y-113411000D02*
X162052000Y-113411000D01*
X159258000Y-111379000D02*
X158623000Y-111379000D01*
X159258000Y-113411000D02*
X158623000Y-113411000D01*
X162306000Y-130683000D02*
X160274000Y-130683000D01*
X160274000Y-126619000D02*
X162306000Y-126619000D01*
X160274000Y-126619000D02*
X160274000Y-127254000D01*
X162306000Y-126619000D02*
X162306000Y-127254000D01*
X160274000Y-130048000D02*
X160274000Y-130683000D01*
X162306000Y-130048000D02*
X162306000Y-130683000D01*
X164338000Y-130683000D02*
X162306000Y-130683000D01*
X162306000Y-126619000D02*
X164338000Y-126619000D01*
X162306000Y-126619000D02*
X162306000Y-127254000D01*
X164338000Y-126619000D02*
X164338000Y-127254000D01*
X162306000Y-130048000D02*
X162306000Y-130683000D01*
X164338000Y-130048000D02*
X164338000Y-130683000D01*
D10*
X161063214Y-146784785D02*
X161093452Y-146815023D01*
X161184166Y-146845261D01*
X161244642Y-146845261D01*
X161335357Y-146815023D01*
X161395833Y-146754547D01*
X161426071Y-146694071D01*
X161456309Y-146573119D01*
X161456309Y-146482404D01*
X161426071Y-146361452D01*
X161395833Y-146300976D01*
X161335357Y-146240500D01*
X161244642Y-146210261D01*
X161184166Y-146210261D01*
X161093452Y-146240500D01*
X161063214Y-146270738D01*
X160821309Y-146270738D02*
X160791071Y-146240500D01*
X160730595Y-146210261D01*
X160579404Y-146210261D01*
X160518928Y-146240500D01*
X160488690Y-146270738D01*
X160458452Y-146331214D01*
X160458452Y-146391690D01*
X160488690Y-146482404D01*
X160851547Y-146845261D01*
X160458452Y-146845261D01*
X159914166Y-146210261D02*
X160035119Y-146210261D01*
X160095595Y-146240500D01*
X160125833Y-146270738D01*
X160186309Y-146361452D01*
X160216547Y-146482404D01*
X160216547Y-146724309D01*
X160186309Y-146784785D01*
X160156071Y-146815023D01*
X160095595Y-146845261D01*
X159974642Y-146845261D01*
X159914166Y-146815023D01*
X159883928Y-146784785D01*
X159853690Y-146724309D01*
X159853690Y-146573119D01*
X159883928Y-146512642D01*
X159914166Y-146482404D01*
X159974642Y-146452166D01*
X160095595Y-146452166D01*
X160156071Y-146482404D01*
X160186309Y-146512642D01*
X160216547Y-146573119D01*
X175111833Y-109954785D02*
X175142071Y-109985023D01*
X175232785Y-110015261D01*
X175293261Y-110015261D01*
X175383976Y-109985023D01*
X175444452Y-109924547D01*
X175474690Y-109864071D01*
X175504928Y-109743119D01*
X175504928Y-109652404D01*
X175474690Y-109531452D01*
X175444452Y-109470976D01*
X175383976Y-109410500D01*
X175293261Y-109380261D01*
X175232785Y-109380261D01*
X175142071Y-109410500D01*
X175111833Y-109440738D01*
X174567547Y-109380261D02*
X174688500Y-109380261D01*
X174748976Y-109410500D01*
X174779214Y-109440738D01*
X174839690Y-109531452D01*
X174869928Y-109652404D01*
X174869928Y-109894309D01*
X174839690Y-109954785D01*
X174809452Y-109985023D01*
X174748976Y-110015261D01*
X174628023Y-110015261D01*
X174567547Y-109985023D01*
X174537309Y-109954785D01*
X174507071Y-109894309D01*
X174507071Y-109743119D01*
X174537309Y-109682642D01*
X174567547Y-109652404D01*
X174628023Y-109622166D01*
X174748976Y-109622166D01*
X174809452Y-109652404D01*
X174839690Y-109682642D01*
X174869928Y-109743119D01*
X172317833Y-101572785D02*
X172348071Y-101603023D01*
X172438785Y-101633261D01*
X172499261Y-101633261D01*
X172589976Y-101603023D01*
X172650452Y-101542547D01*
X172680690Y-101482071D01*
X172710928Y-101361119D01*
X172710928Y-101270404D01*
X172680690Y-101149452D01*
X172650452Y-101088976D01*
X172589976Y-101028500D01*
X172499261Y-100998261D01*
X172438785Y-100998261D01*
X172348071Y-101028500D01*
X172317833Y-101058738D01*
X172106166Y-100998261D02*
X171682833Y-100998261D01*
X171954976Y-101633261D01*
X208942214Y-116685785D02*
X208972452Y-116716023D01*
X209063166Y-116746261D01*
X209123642Y-116746261D01*
X209214357Y-116716023D01*
X209274833Y-116655547D01*
X209305071Y-116595071D01*
X209335309Y-116474119D01*
X209335309Y-116383404D01*
X209305071Y-116262452D01*
X209274833Y-116201976D01*
X209214357Y-116141500D01*
X209123642Y-116111261D01*
X209063166Y-116111261D01*
X208972452Y-116141500D01*
X208942214Y-116171738D01*
X208337452Y-116746261D02*
X208700309Y-116746261D01*
X208518880Y-116746261D02*
X208518880Y-116111261D01*
X208579357Y-116201976D01*
X208639833Y-116262452D01*
X208700309Y-116292690D01*
X207944357Y-116111261D02*
X207883880Y-116111261D01*
X207823404Y-116141500D01*
X207793166Y-116171738D01*
X207762928Y-116232214D01*
X207732690Y-116353166D01*
X207732690Y-116504357D01*
X207762928Y-116625309D01*
X207793166Y-116685785D01*
X207823404Y-116716023D01*
X207883880Y-116746261D01*
X207944357Y-116746261D01*
X208004833Y-116716023D01*
X208035071Y-116685785D01*
X208065309Y-116625309D01*
X208095547Y-116504357D01*
X208095547Y-116353166D01*
X208065309Y-116232214D01*
X208035071Y-116171738D01*
X208004833Y-116141500D01*
X207944357Y-116111261D01*
X208942214Y-122781785D02*
X208972452Y-122812023D01*
X209063166Y-122842261D01*
X209123642Y-122842261D01*
X209214357Y-122812023D01*
X209274833Y-122751547D01*
X209305071Y-122691071D01*
X209335309Y-122570119D01*
X209335309Y-122479404D01*
X209305071Y-122358452D01*
X209274833Y-122297976D01*
X209214357Y-122237500D01*
X209123642Y-122207261D01*
X209063166Y-122207261D01*
X208972452Y-122237500D01*
X208942214Y-122267738D01*
X208337452Y-122842261D02*
X208700309Y-122842261D01*
X208518880Y-122842261D02*
X208518880Y-122207261D01*
X208579357Y-122297976D01*
X208639833Y-122358452D01*
X208700309Y-122388690D01*
X207732690Y-122842261D02*
X208095547Y-122842261D01*
X207914119Y-122842261D02*
X207914119Y-122207261D01*
X207974595Y-122297976D01*
X208035071Y-122358452D01*
X208095547Y-122388690D01*
X195226214Y-115288785D02*
X195256452Y-115319023D01*
X195347166Y-115349261D01*
X195407642Y-115349261D01*
X195498357Y-115319023D01*
X195558833Y-115258547D01*
X195589071Y-115198071D01*
X195619309Y-115077119D01*
X195619309Y-114986404D01*
X195589071Y-114865452D01*
X195558833Y-114804976D01*
X195498357Y-114744500D01*
X195407642Y-114714261D01*
X195347166Y-114714261D01*
X195256452Y-114744500D01*
X195226214Y-114774738D01*
X194984309Y-114774738D02*
X194954071Y-114744500D01*
X194893595Y-114714261D01*
X194742404Y-114714261D01*
X194681928Y-114744500D01*
X194651690Y-114774738D01*
X194621452Y-114835214D01*
X194621452Y-114895690D01*
X194651690Y-114986404D01*
X195014547Y-115349261D01*
X194621452Y-115349261D01*
X194409785Y-114714261D02*
X194016690Y-114714261D01*
X194228357Y-114956166D01*
X194137642Y-114956166D01*
X194077166Y-114986404D01*
X194046928Y-115016642D01*
X194016690Y-115077119D01*
X194016690Y-115228309D01*
X194046928Y-115288785D01*
X194077166Y-115319023D01*
X194137642Y-115349261D01*
X194319071Y-115349261D01*
X194379547Y-115319023D01*
X194409785Y-115288785D01*
X125249214Y-125829785D02*
X125279452Y-125860023D01*
X125370166Y-125890261D01*
X125430642Y-125890261D01*
X125521357Y-125860023D01*
X125581833Y-125799547D01*
X125612071Y-125739071D01*
X125642309Y-125618119D01*
X125642309Y-125527404D01*
X125612071Y-125406452D01*
X125581833Y-125345976D01*
X125521357Y-125285500D01*
X125430642Y-125255261D01*
X125370166Y-125255261D01*
X125279452Y-125285500D01*
X125249214Y-125315738D01*
X125007309Y-125315738D02*
X124977071Y-125285500D01*
X124916595Y-125255261D01*
X124765404Y-125255261D01*
X124704928Y-125285500D01*
X124674690Y-125315738D01*
X124644452Y-125376214D01*
X124644452Y-125436690D01*
X124674690Y-125527404D01*
X125037547Y-125890261D01*
X124644452Y-125890261D01*
X124281595Y-125527404D02*
X124342071Y-125497166D01*
X124372309Y-125466928D01*
X124402547Y-125406452D01*
X124402547Y-125376214D01*
X124372309Y-125315738D01*
X124342071Y-125285500D01*
X124281595Y-125255261D01*
X124160642Y-125255261D01*
X124100166Y-125285500D01*
X124069928Y-125315738D01*
X124039690Y-125376214D01*
X124039690Y-125406452D01*
X124069928Y-125466928D01*
X124100166Y-125497166D01*
X124160642Y-125527404D01*
X124281595Y-125527404D01*
X124342071Y-125557642D01*
X124372309Y-125587880D01*
X124402547Y-125648357D01*
X124402547Y-125769309D01*
X124372309Y-125829785D01*
X124342071Y-125860023D01*
X124281595Y-125890261D01*
X124160642Y-125890261D01*
X124100166Y-125860023D01*
X124069928Y-125829785D01*
X124039690Y-125769309D01*
X124039690Y-125648357D01*
X124069928Y-125587880D01*
X124100166Y-125557642D01*
X124160642Y-125527404D01*
X199798214Y-121765785D02*
X199828452Y-121796023D01*
X199919166Y-121826261D01*
X199979642Y-121826261D01*
X200070357Y-121796023D01*
X200130833Y-121735547D01*
X200161071Y-121675071D01*
X200191309Y-121554119D01*
X200191309Y-121463404D01*
X200161071Y-121342452D01*
X200130833Y-121281976D01*
X200070357Y-121221500D01*
X199979642Y-121191261D01*
X199919166Y-121191261D01*
X199828452Y-121221500D01*
X199798214Y-121251738D01*
X199556309Y-121251738D02*
X199526071Y-121221500D01*
X199465595Y-121191261D01*
X199314404Y-121191261D01*
X199253928Y-121221500D01*
X199223690Y-121251738D01*
X199193452Y-121312214D01*
X199193452Y-121372690D01*
X199223690Y-121463404D01*
X199586547Y-121826261D01*
X199193452Y-121826261D01*
X198891071Y-121826261D02*
X198770119Y-121826261D01*
X198709642Y-121796023D01*
X198679404Y-121765785D01*
X198618928Y-121675071D01*
X198588690Y-121554119D01*
X198588690Y-121312214D01*
X198618928Y-121251738D01*
X198649166Y-121221500D01*
X198709642Y-121191261D01*
X198830595Y-121191261D01*
X198891071Y-121221500D01*
X198921309Y-121251738D01*
X198951547Y-121312214D01*
X198951547Y-121463404D01*
X198921309Y-121523880D01*
X198891071Y-121554119D01*
X198830595Y-121584357D01*
X198709642Y-121584357D01*
X198649166Y-121554119D01*
X198618928Y-121523880D01*
X198588690Y-121463404D01*
X201957214Y-121765785D02*
X201987452Y-121796023D01*
X202078166Y-121826261D01*
X202138642Y-121826261D01*
X202229357Y-121796023D01*
X202289833Y-121735547D01*
X202320071Y-121675071D01*
X202350309Y-121554119D01*
X202350309Y-121463404D01*
X202320071Y-121342452D01*
X202289833Y-121281976D01*
X202229357Y-121221500D01*
X202138642Y-121191261D01*
X202078166Y-121191261D01*
X201987452Y-121221500D01*
X201957214Y-121251738D01*
X201745547Y-121191261D02*
X201352452Y-121191261D01*
X201564119Y-121433166D01*
X201473404Y-121433166D01*
X201412928Y-121463404D01*
X201382690Y-121493642D01*
X201352452Y-121554119D01*
X201352452Y-121705309D01*
X201382690Y-121765785D01*
X201412928Y-121796023D01*
X201473404Y-121826261D01*
X201654833Y-121826261D01*
X201715309Y-121796023D01*
X201745547Y-121765785D01*
X200959357Y-121191261D02*
X200898880Y-121191261D01*
X200838404Y-121221500D01*
X200808166Y-121251738D01*
X200777928Y-121312214D01*
X200747690Y-121433166D01*
X200747690Y-121584357D01*
X200777928Y-121705309D01*
X200808166Y-121765785D01*
X200838404Y-121796023D01*
X200898880Y-121826261D01*
X200959357Y-121826261D01*
X201019833Y-121796023D01*
X201050071Y-121765785D01*
X201080309Y-121705309D01*
X201110547Y-121584357D01*
X201110547Y-121433166D01*
X201080309Y-121312214D01*
X201050071Y-121251738D01*
X201019833Y-121221500D01*
X200959357Y-121191261D01*
X157380214Y-131671785D02*
X157410452Y-131702023D01*
X157501166Y-131732261D01*
X157561642Y-131732261D01*
X157652357Y-131702023D01*
X157712833Y-131641547D01*
X157743071Y-131581071D01*
X157773309Y-131460119D01*
X157773309Y-131369404D01*
X157743071Y-131248452D01*
X157712833Y-131187976D01*
X157652357Y-131127500D01*
X157561642Y-131097261D01*
X157501166Y-131097261D01*
X157410452Y-131127500D01*
X157380214Y-131157738D01*
X157168547Y-131097261D02*
X156775452Y-131097261D01*
X156987119Y-131339166D01*
X156896404Y-131339166D01*
X156835928Y-131369404D01*
X156805690Y-131399642D01*
X156775452Y-131460119D01*
X156775452Y-131611309D01*
X156805690Y-131671785D01*
X156835928Y-131702023D01*
X156896404Y-131732261D01*
X157077833Y-131732261D01*
X157138309Y-131702023D01*
X157168547Y-131671785D01*
X156533547Y-131157738D02*
X156503309Y-131127500D01*
X156442833Y-131097261D01*
X156291642Y-131097261D01*
X156231166Y-131127500D01*
X156200928Y-131157738D01*
X156170690Y-131218214D01*
X156170690Y-131278690D01*
X156200928Y-131369404D01*
X156563785Y-131732261D01*
X156170690Y-131732261D01*
X165889214Y-131671785D02*
X165919452Y-131702023D01*
X166010166Y-131732261D01*
X166070642Y-131732261D01*
X166161357Y-131702023D01*
X166221833Y-131641547D01*
X166252071Y-131581071D01*
X166282309Y-131460119D01*
X166282309Y-131369404D01*
X166252071Y-131248452D01*
X166221833Y-131187976D01*
X166161357Y-131127500D01*
X166070642Y-131097261D01*
X166010166Y-131097261D01*
X165919452Y-131127500D01*
X165889214Y-131157738D01*
X165677547Y-131097261D02*
X165284452Y-131097261D01*
X165496119Y-131339166D01*
X165405404Y-131339166D01*
X165344928Y-131369404D01*
X165314690Y-131399642D01*
X165284452Y-131460119D01*
X165284452Y-131611309D01*
X165314690Y-131671785D01*
X165344928Y-131702023D01*
X165405404Y-131732261D01*
X165586833Y-131732261D01*
X165647309Y-131702023D01*
X165677547Y-131671785D01*
X165072785Y-131097261D02*
X164679690Y-131097261D01*
X164891357Y-131339166D01*
X164800642Y-131339166D01*
X164740166Y-131369404D01*
X164709928Y-131399642D01*
X164679690Y-131460119D01*
X164679690Y-131611309D01*
X164709928Y-131671785D01*
X164740166Y-131702023D01*
X164800642Y-131732261D01*
X164982071Y-131732261D01*
X165042547Y-131702023D01*
X165072785Y-131671785D01*
X131599214Y-125829785D02*
X131629452Y-125860023D01*
X131720166Y-125890261D01*
X131780642Y-125890261D01*
X131871357Y-125860023D01*
X131931833Y-125799547D01*
X131962071Y-125739071D01*
X131992309Y-125618119D01*
X131992309Y-125527404D01*
X131962071Y-125406452D01*
X131931833Y-125345976D01*
X131871357Y-125285500D01*
X131780642Y-125255261D01*
X131720166Y-125255261D01*
X131629452Y-125285500D01*
X131599214Y-125315738D01*
X131387547Y-125255261D02*
X130994452Y-125255261D01*
X131206119Y-125497166D01*
X131115404Y-125497166D01*
X131054928Y-125527404D01*
X131024690Y-125557642D01*
X130994452Y-125618119D01*
X130994452Y-125769309D01*
X131024690Y-125829785D01*
X131054928Y-125860023D01*
X131115404Y-125890261D01*
X131296833Y-125890261D01*
X131357309Y-125860023D01*
X131387547Y-125829785D01*
X130389690Y-125890261D02*
X130752547Y-125890261D01*
X130571119Y-125890261D02*
X130571119Y-125255261D01*
X130631595Y-125345976D01*
X130692071Y-125406452D01*
X130752547Y-125436690D01*
D12*
X212804333Y-105878380D02*
X212804333Y-106592666D01*
X212851952Y-106735523D01*
X212947190Y-106830761D01*
X213090047Y-106878380D01*
X213185285Y-106878380D01*
X212375761Y-105973619D02*
X212328142Y-105926000D01*
X212232904Y-105878380D01*
X211994809Y-105878380D01*
X211899571Y-105926000D01*
X211851952Y-105973619D01*
X211804333Y-106068857D01*
X211804333Y-106164095D01*
X211851952Y-106306952D01*
X212423380Y-106878380D01*
X211804333Y-106878380D01*
D10*
X175193476Y-119473738D02*
X175253952Y-119443500D01*
X175314428Y-119383023D01*
X175405142Y-119292309D01*
X175465619Y-119262071D01*
X175526095Y-119262071D01*
X175495857Y-119413261D02*
X175556333Y-119383023D01*
X175616809Y-119322547D01*
X175647047Y-119201595D01*
X175647047Y-118989928D01*
X175616809Y-118868976D01*
X175556333Y-118808500D01*
X175495857Y-118778261D01*
X175374904Y-118778261D01*
X175314428Y-118808500D01*
X175253952Y-118868976D01*
X175223714Y-118989928D01*
X175223714Y-119201595D01*
X175253952Y-119322547D01*
X175314428Y-119383023D01*
X175374904Y-119413261D01*
X175495857Y-119413261D01*
X174649190Y-118778261D02*
X174951571Y-118778261D01*
X174981809Y-119080642D01*
X174951571Y-119050404D01*
X174891095Y-119020166D01*
X174739904Y-119020166D01*
X174679428Y-119050404D01*
X174649190Y-119080642D01*
X174618952Y-119141119D01*
X174618952Y-119292309D01*
X174649190Y-119352785D01*
X174679428Y-119383023D01*
X174739904Y-119413261D01*
X174891095Y-119413261D01*
X174951571Y-119383023D01*
X174981809Y-119352785D01*
X175320476Y-122902738D02*
X175380952Y-122872500D01*
X175441428Y-122812023D01*
X175532142Y-122721309D01*
X175592619Y-122691071D01*
X175653095Y-122691071D01*
X175622857Y-122842261D02*
X175683333Y-122812023D01*
X175743809Y-122751547D01*
X175774047Y-122630595D01*
X175774047Y-122418928D01*
X175743809Y-122297976D01*
X175683333Y-122237500D01*
X175622857Y-122207261D01*
X175501904Y-122207261D01*
X175441428Y-122237500D01*
X175380952Y-122297976D01*
X175350714Y-122418928D01*
X175350714Y-122630595D01*
X175380952Y-122751547D01*
X175441428Y-122812023D01*
X175501904Y-122842261D01*
X175622857Y-122842261D01*
X174806428Y-122207261D02*
X174927380Y-122207261D01*
X174987857Y-122237500D01*
X175018095Y-122267738D01*
X175078571Y-122358452D01*
X175108809Y-122479404D01*
X175108809Y-122721309D01*
X175078571Y-122781785D01*
X175048333Y-122812023D01*
X174987857Y-122842261D01*
X174866904Y-122842261D01*
X174806428Y-122812023D01*
X174776190Y-122781785D01*
X174745952Y-122721309D01*
X174745952Y-122570119D01*
X174776190Y-122509642D01*
X174806428Y-122479404D01*
X174866904Y-122449166D01*
X174987857Y-122449166D01*
X175048333Y-122479404D01*
X175078571Y-122509642D01*
X175108809Y-122570119D01*
X208385833Y-118651261D02*
X208597500Y-118348880D01*
X208748690Y-118651261D02*
X208748690Y-118016261D01*
X208506785Y-118016261D01*
X208446309Y-118046500D01*
X208416071Y-118076738D01*
X208385833Y-118137214D01*
X208385833Y-118227928D01*
X208416071Y-118288404D01*
X208446309Y-118318642D01*
X208506785Y-118348880D01*
X208748690Y-118348880D01*
X207781071Y-118651261D02*
X208143928Y-118651261D01*
X207962500Y-118651261D02*
X207962500Y-118016261D01*
X208022976Y-118106976D01*
X208083452Y-118167452D01*
X208143928Y-118197690D01*
X208385833Y-120937261D02*
X208597500Y-120634880D01*
X208748690Y-120937261D02*
X208748690Y-120302261D01*
X208506785Y-120302261D01*
X208446309Y-120332500D01*
X208416071Y-120362738D01*
X208385833Y-120423214D01*
X208385833Y-120513928D01*
X208416071Y-120574404D01*
X208446309Y-120604642D01*
X208506785Y-120634880D01*
X208748690Y-120634880D01*
X208143928Y-120362738D02*
X208113690Y-120332500D01*
X208053214Y-120302261D01*
X207902023Y-120302261D01*
X207841547Y-120332500D01*
X207811309Y-120362738D01*
X207781071Y-120423214D01*
X207781071Y-120483690D01*
X207811309Y-120574404D01*
X208174166Y-120937261D01*
X207781071Y-120937261D01*
X183293833Y-95378761D02*
X183505500Y-95076380D01*
X183656690Y-95378761D02*
X183656690Y-94743761D01*
X183414785Y-94743761D01*
X183354309Y-94774000D01*
X183324071Y-94804238D01*
X183293833Y-94864714D01*
X183293833Y-94955428D01*
X183324071Y-95015904D01*
X183354309Y-95046142D01*
X183414785Y-95076380D01*
X183656690Y-95076380D01*
X183082166Y-94743761D02*
X182689071Y-94743761D01*
X182900738Y-94985666D01*
X182810023Y-94985666D01*
X182749547Y-95015904D01*
X182719309Y-95046142D01*
X182689071Y-95106619D01*
X182689071Y-95257809D01*
X182719309Y-95318285D01*
X182749547Y-95348523D01*
X182810023Y-95378761D01*
X182991452Y-95378761D01*
X183051928Y-95348523D01*
X183082166Y-95318285D01*
X185579833Y-95378761D02*
X185791500Y-95076380D01*
X185942690Y-95378761D02*
X185942690Y-94743761D01*
X185700785Y-94743761D01*
X185640309Y-94774000D01*
X185610071Y-94804238D01*
X185579833Y-94864714D01*
X185579833Y-94955428D01*
X185610071Y-95015904D01*
X185640309Y-95046142D01*
X185700785Y-95076380D01*
X185942690Y-95076380D01*
X185005309Y-94743761D02*
X185307690Y-94743761D01*
X185337928Y-95046142D01*
X185307690Y-95015904D01*
X185247214Y-94985666D01*
X185096023Y-94985666D01*
X185035547Y-95015904D01*
X185005309Y-95046142D01*
X184975071Y-95106619D01*
X184975071Y-95257809D01*
X185005309Y-95318285D01*
X185035547Y-95348523D01*
X185096023Y-95378761D01*
X185247214Y-95378761D01*
X185307690Y-95348523D01*
X185337928Y-95318285D01*
X187609833Y-95378761D02*
X187821500Y-95076380D01*
X187972690Y-95378761D02*
X187972690Y-94743761D01*
X187730785Y-94743761D01*
X187670309Y-94774000D01*
X187640071Y-94804238D01*
X187609833Y-94864714D01*
X187609833Y-94955428D01*
X187640071Y-95015904D01*
X187670309Y-95046142D01*
X187730785Y-95076380D01*
X187972690Y-95076380D01*
X187398166Y-94743761D02*
X186974833Y-94743761D01*
X187246976Y-95378761D01*
X157888214Y-110523261D02*
X158099880Y-110220880D01*
X158251071Y-110523261D02*
X158251071Y-109888261D01*
X158009166Y-109888261D01*
X157948690Y-109918500D01*
X157918452Y-109948738D01*
X157888214Y-110009214D01*
X157888214Y-110099928D01*
X157918452Y-110160404D01*
X157948690Y-110190642D01*
X158009166Y-110220880D01*
X158251071Y-110220880D01*
X157283452Y-110523261D02*
X157646309Y-110523261D01*
X157464880Y-110523261D02*
X157464880Y-109888261D01*
X157525357Y-109978976D01*
X157585833Y-110039452D01*
X157646309Y-110069690D01*
X156739166Y-110099928D02*
X156739166Y-110523261D01*
X156890357Y-109858023D02*
X157041547Y-110311595D01*
X156648452Y-110311595D01*
X127662214Y-120556261D02*
X127873880Y-120253880D01*
X128025071Y-120556261D02*
X128025071Y-119921261D01*
X127783166Y-119921261D01*
X127722690Y-119951500D01*
X127692452Y-119981738D01*
X127662214Y-120042214D01*
X127662214Y-120132928D01*
X127692452Y-120193404D01*
X127722690Y-120223642D01*
X127783166Y-120253880D01*
X128025071Y-120253880D01*
X127057452Y-120556261D02*
X127420309Y-120556261D01*
X127238880Y-120556261D02*
X127238880Y-119921261D01*
X127299357Y-120011976D01*
X127359833Y-120072452D01*
X127420309Y-120102690D01*
X126482928Y-119921261D02*
X126785309Y-119921261D01*
X126815547Y-120223642D01*
X126785309Y-120193404D01*
X126724833Y-120163166D01*
X126573642Y-120163166D01*
X126513166Y-120193404D01*
X126482928Y-120223642D01*
X126452690Y-120284119D01*
X126452690Y-120435309D01*
X126482928Y-120495785D01*
X126513166Y-120526023D01*
X126573642Y-120556261D01*
X126724833Y-120556261D01*
X126785309Y-120526023D01*
X126815547Y-120495785D01*
X157888214Y-108618261D02*
X158099880Y-108315880D01*
X158251071Y-108618261D02*
X158251071Y-107983261D01*
X158009166Y-107983261D01*
X157948690Y-108013500D01*
X157918452Y-108043738D01*
X157888214Y-108104214D01*
X157888214Y-108194928D01*
X157918452Y-108255404D01*
X157948690Y-108285642D01*
X158009166Y-108315880D01*
X158251071Y-108315880D01*
X157283452Y-108618261D02*
X157646309Y-108618261D01*
X157464880Y-108618261D02*
X157464880Y-107983261D01*
X157525357Y-108073976D01*
X157585833Y-108134452D01*
X157646309Y-108164690D01*
X157071785Y-107983261D02*
X156648452Y-107983261D01*
X156920595Y-108618261D01*
X127281214Y-125890261D02*
X127492880Y-125587880D01*
X127644071Y-125890261D02*
X127644071Y-125255261D01*
X127402166Y-125255261D01*
X127341690Y-125285500D01*
X127311452Y-125315738D01*
X127281214Y-125376214D01*
X127281214Y-125466928D01*
X127311452Y-125527404D01*
X127341690Y-125557642D01*
X127402166Y-125587880D01*
X127644071Y-125587880D01*
X127039309Y-125315738D02*
X127009071Y-125285500D01*
X126948595Y-125255261D01*
X126797404Y-125255261D01*
X126736928Y-125285500D01*
X126706690Y-125315738D01*
X126676452Y-125376214D01*
X126676452Y-125436690D01*
X126706690Y-125527404D01*
X127069547Y-125890261D01*
X126676452Y-125890261D01*
X126434547Y-125315738D02*
X126404309Y-125285500D01*
X126343833Y-125255261D01*
X126192642Y-125255261D01*
X126132166Y-125285500D01*
X126101928Y-125315738D01*
X126071690Y-125376214D01*
X126071690Y-125436690D01*
X126101928Y-125527404D01*
X126464785Y-125890261D01*
X126071690Y-125890261D01*
X195226214Y-100744261D02*
X195437880Y-100441880D01*
X195589071Y-100744261D02*
X195589071Y-100109261D01*
X195347166Y-100109261D01*
X195286690Y-100139500D01*
X195256452Y-100169738D01*
X195226214Y-100230214D01*
X195226214Y-100320928D01*
X195256452Y-100381404D01*
X195286690Y-100411642D01*
X195347166Y-100441880D01*
X195589071Y-100441880D01*
X194984309Y-100169738D02*
X194954071Y-100139500D01*
X194893595Y-100109261D01*
X194742404Y-100109261D01*
X194681928Y-100139500D01*
X194651690Y-100169738D01*
X194621452Y-100230214D01*
X194621452Y-100290690D01*
X194651690Y-100381404D01*
X195014547Y-100744261D01*
X194621452Y-100744261D01*
X194258595Y-100381404D02*
X194319071Y-100351166D01*
X194349309Y-100320928D01*
X194379547Y-100260452D01*
X194379547Y-100230214D01*
X194349309Y-100169738D01*
X194319071Y-100139500D01*
X194258595Y-100109261D01*
X194137642Y-100109261D01*
X194077166Y-100139500D01*
X194046928Y-100169738D01*
X194016690Y-100230214D01*
X194016690Y-100260452D01*
X194046928Y-100320928D01*
X194077166Y-100351166D01*
X194137642Y-100381404D01*
X194258595Y-100381404D01*
X194319071Y-100411642D01*
X194349309Y-100441880D01*
X194379547Y-100502357D01*
X194379547Y-100623309D01*
X194349309Y-100683785D01*
X194319071Y-100714023D01*
X194258595Y-100744261D01*
X194137642Y-100744261D01*
X194077166Y-100714023D01*
X194046928Y-100683785D01*
X194016690Y-100623309D01*
X194016690Y-100502357D01*
X194046928Y-100441880D01*
X194077166Y-100411642D01*
X194137642Y-100381404D01*
X163222214Y-120996261D02*
X163433880Y-120693880D01*
X163585071Y-120996261D02*
X163585071Y-120361261D01*
X163343166Y-120361261D01*
X163282690Y-120391500D01*
X163252452Y-120421738D01*
X163222214Y-120482214D01*
X163222214Y-120572928D01*
X163252452Y-120633404D01*
X163282690Y-120663642D01*
X163343166Y-120693880D01*
X163585071Y-120693880D01*
X162980309Y-120421738D02*
X162950071Y-120391500D01*
X162889595Y-120361261D01*
X162738404Y-120361261D01*
X162677928Y-120391500D01*
X162647690Y-120421738D01*
X162617452Y-120482214D01*
X162617452Y-120542690D01*
X162647690Y-120633404D01*
X163010547Y-120996261D01*
X162617452Y-120996261D01*
X162315071Y-120996261D02*
X162194119Y-120996261D01*
X162133642Y-120966023D01*
X162103404Y-120935785D01*
X162042928Y-120845071D01*
X162012690Y-120724119D01*
X162012690Y-120482214D01*
X162042928Y-120421738D01*
X162073166Y-120391500D01*
X162133642Y-120361261D01*
X162254595Y-120361261D01*
X162315071Y-120391500D01*
X162345309Y-120421738D01*
X162375547Y-120482214D01*
X162375547Y-120633404D01*
X162345309Y-120693880D01*
X162315071Y-120724119D01*
X162254595Y-120754357D01*
X162133642Y-120754357D01*
X162073166Y-120724119D01*
X162042928Y-120693880D01*
X162012690Y-120633404D01*
X163222214Y-118905261D02*
X163433880Y-118602880D01*
X163585071Y-118905261D02*
X163585071Y-118270261D01*
X163343166Y-118270261D01*
X163282690Y-118300500D01*
X163252452Y-118330738D01*
X163222214Y-118391214D01*
X163222214Y-118481928D01*
X163252452Y-118542404D01*
X163282690Y-118572642D01*
X163343166Y-118602880D01*
X163585071Y-118602880D01*
X163010547Y-118270261D02*
X162617452Y-118270261D01*
X162829119Y-118512166D01*
X162738404Y-118512166D01*
X162677928Y-118542404D01*
X162647690Y-118572642D01*
X162617452Y-118633119D01*
X162617452Y-118784309D01*
X162647690Y-118844785D01*
X162677928Y-118875023D01*
X162738404Y-118905261D01*
X162919833Y-118905261D01*
X162980309Y-118875023D01*
X163010547Y-118844785D01*
X162224357Y-118270261D02*
X162163880Y-118270261D01*
X162103404Y-118300500D01*
X162073166Y-118330738D01*
X162042928Y-118391214D01*
X162012690Y-118512166D01*
X162012690Y-118663357D01*
X162042928Y-118784309D01*
X162073166Y-118844785D01*
X162103404Y-118875023D01*
X162163880Y-118905261D01*
X162224357Y-118905261D01*
X162284833Y-118875023D01*
X162315071Y-118844785D01*
X162345309Y-118784309D01*
X162375547Y-118663357D01*
X162375547Y-118512166D01*
X162345309Y-118391214D01*
X162315071Y-118330738D01*
X162284833Y-118300500D01*
X162224357Y-118270261D01*
X170461214Y-117254261D02*
X170672880Y-116951880D01*
X170824071Y-117254261D02*
X170824071Y-116619261D01*
X170582166Y-116619261D01*
X170521690Y-116649500D01*
X170491452Y-116679738D01*
X170461214Y-116740214D01*
X170461214Y-116830928D01*
X170491452Y-116891404D01*
X170521690Y-116921642D01*
X170582166Y-116951880D01*
X170824071Y-116951880D01*
X170219309Y-116679738D02*
X170189071Y-116649500D01*
X170128595Y-116619261D01*
X169977404Y-116619261D01*
X169916928Y-116649500D01*
X169886690Y-116679738D01*
X169856452Y-116740214D01*
X169856452Y-116800690D01*
X169886690Y-116891404D01*
X170249547Y-117254261D01*
X169856452Y-117254261D01*
X169312166Y-116830928D02*
X169312166Y-117254261D01*
X169463357Y-116589023D02*
X169614547Y-117042595D01*
X169221452Y-117042595D01*
X191035214Y-114587261D02*
X191246880Y-114284880D01*
X191398071Y-114587261D02*
X191398071Y-113952261D01*
X191156166Y-113952261D01*
X191095690Y-113982500D01*
X191065452Y-114012738D01*
X191035214Y-114073214D01*
X191035214Y-114163928D01*
X191065452Y-114224404D01*
X191095690Y-114254642D01*
X191156166Y-114284880D01*
X191398071Y-114284880D01*
X190793309Y-114012738D02*
X190763071Y-113982500D01*
X190702595Y-113952261D01*
X190551404Y-113952261D01*
X190490928Y-113982500D01*
X190460690Y-114012738D01*
X190430452Y-114073214D01*
X190430452Y-114133690D01*
X190460690Y-114224404D01*
X190823547Y-114587261D01*
X190430452Y-114587261D01*
X189886166Y-113952261D02*
X190007119Y-113952261D01*
X190067595Y-113982500D01*
X190097833Y-114012738D01*
X190158309Y-114103452D01*
X190188547Y-114224404D01*
X190188547Y-114466309D01*
X190158309Y-114526785D01*
X190128071Y-114557023D01*
X190067595Y-114587261D01*
X189946642Y-114587261D01*
X189886166Y-114557023D01*
X189855928Y-114526785D01*
X189825690Y-114466309D01*
X189825690Y-114315119D01*
X189855928Y-114254642D01*
X189886166Y-114224404D01*
X189946642Y-114194166D01*
X190067595Y-114194166D01*
X190128071Y-114224404D01*
X190158309Y-114254642D01*
X190188547Y-114315119D01*
X191035214Y-116746261D02*
X191246880Y-116443880D01*
X191398071Y-116746261D02*
X191398071Y-116111261D01*
X191156166Y-116111261D01*
X191095690Y-116141500D01*
X191065452Y-116171738D01*
X191035214Y-116232214D01*
X191035214Y-116322928D01*
X191065452Y-116383404D01*
X191095690Y-116413642D01*
X191156166Y-116443880D01*
X191398071Y-116443880D01*
X190793309Y-116171738D02*
X190763071Y-116141500D01*
X190702595Y-116111261D01*
X190551404Y-116111261D01*
X190490928Y-116141500D01*
X190460690Y-116171738D01*
X190430452Y-116232214D01*
X190430452Y-116292690D01*
X190460690Y-116383404D01*
X190823547Y-116746261D01*
X190430452Y-116746261D01*
X190218785Y-116111261D02*
X189795452Y-116111261D01*
X190067595Y-116746261D01*
X127535214Y-102903261D02*
X127746880Y-102600880D01*
X127898071Y-102903261D02*
X127898071Y-102268261D01*
X127656166Y-102268261D01*
X127595690Y-102298500D01*
X127565452Y-102328738D01*
X127535214Y-102389214D01*
X127535214Y-102479928D01*
X127565452Y-102540404D01*
X127595690Y-102570642D01*
X127656166Y-102600880D01*
X127898071Y-102600880D01*
X126930452Y-102903261D02*
X127293309Y-102903261D01*
X127111880Y-102903261D02*
X127111880Y-102268261D01*
X127172357Y-102358976D01*
X127232833Y-102419452D01*
X127293309Y-102449690D01*
X126628071Y-102903261D02*
X126507119Y-102903261D01*
X126446642Y-102873023D01*
X126416404Y-102842785D01*
X126355928Y-102752071D01*
X126325690Y-102631119D01*
X126325690Y-102389214D01*
X126355928Y-102328738D01*
X126386166Y-102298500D01*
X126446642Y-102268261D01*
X126567595Y-102268261D01*
X126628071Y-102298500D01*
X126658309Y-102328738D01*
X126688547Y-102389214D01*
X126688547Y-102540404D01*
X126658309Y-102600880D01*
X126628071Y-102631119D01*
X126567595Y-102661357D01*
X126446642Y-102661357D01*
X126386166Y-102631119D01*
X126355928Y-102600880D01*
X126325690Y-102540404D01*
X127535214Y-100617261D02*
X127746880Y-100314880D01*
X127898071Y-100617261D02*
X127898071Y-99982261D01*
X127656166Y-99982261D01*
X127595690Y-100012500D01*
X127565452Y-100042738D01*
X127535214Y-100103214D01*
X127535214Y-100193928D01*
X127565452Y-100254404D01*
X127595690Y-100284642D01*
X127656166Y-100314880D01*
X127898071Y-100314880D01*
X127293309Y-100042738D02*
X127263071Y-100012500D01*
X127202595Y-99982261D01*
X127051404Y-99982261D01*
X126990928Y-100012500D01*
X126960690Y-100042738D01*
X126930452Y-100103214D01*
X126930452Y-100163690D01*
X126960690Y-100254404D01*
X127323547Y-100617261D01*
X126930452Y-100617261D01*
X126537357Y-99982261D02*
X126476880Y-99982261D01*
X126416404Y-100012500D01*
X126386166Y-100042738D01*
X126355928Y-100103214D01*
X126325690Y-100224166D01*
X126325690Y-100375357D01*
X126355928Y-100496309D01*
X126386166Y-100556785D01*
X126416404Y-100587023D01*
X126476880Y-100617261D01*
X126537357Y-100617261D01*
X126597833Y-100587023D01*
X126628071Y-100556785D01*
X126658309Y-100496309D01*
X126688547Y-100375357D01*
X126688547Y-100224166D01*
X126658309Y-100103214D01*
X126628071Y-100042738D01*
X126597833Y-100012500D01*
X126537357Y-99982261D01*
X127535214Y-98839261D02*
X127746880Y-98536880D01*
X127898071Y-98839261D02*
X127898071Y-98204261D01*
X127656166Y-98204261D01*
X127595690Y-98234500D01*
X127565452Y-98264738D01*
X127535214Y-98325214D01*
X127535214Y-98415928D01*
X127565452Y-98476404D01*
X127595690Y-98506642D01*
X127656166Y-98536880D01*
X127898071Y-98536880D01*
X127293309Y-98264738D02*
X127263071Y-98234500D01*
X127202595Y-98204261D01*
X127051404Y-98204261D01*
X126990928Y-98234500D01*
X126960690Y-98264738D01*
X126930452Y-98325214D01*
X126930452Y-98385690D01*
X126960690Y-98476404D01*
X127323547Y-98839261D01*
X126930452Y-98839261D01*
X126325690Y-98839261D02*
X126688547Y-98839261D01*
X126507119Y-98839261D02*
X126507119Y-98204261D01*
X126567595Y-98294976D01*
X126628071Y-98355452D01*
X126688547Y-98385690D01*
X168175214Y-117254261D02*
X168386880Y-116951880D01*
X168538071Y-117254261D02*
X168538071Y-116619261D01*
X168296166Y-116619261D01*
X168235690Y-116649500D01*
X168205452Y-116679738D01*
X168175214Y-116740214D01*
X168175214Y-116830928D01*
X168205452Y-116891404D01*
X168235690Y-116921642D01*
X168296166Y-116951880D01*
X168538071Y-116951880D01*
X167963547Y-116619261D02*
X167570452Y-116619261D01*
X167782119Y-116861166D01*
X167691404Y-116861166D01*
X167630928Y-116891404D01*
X167600690Y-116921642D01*
X167570452Y-116982119D01*
X167570452Y-117133309D01*
X167600690Y-117193785D01*
X167630928Y-117224023D01*
X167691404Y-117254261D01*
X167872833Y-117254261D01*
X167933309Y-117224023D01*
X167963547Y-117193785D01*
X166965690Y-117254261D02*
X167328547Y-117254261D01*
X167147119Y-117254261D02*
X167147119Y-116619261D01*
X167207595Y-116709976D01*
X167268071Y-116770452D01*
X167328547Y-116800690D01*
X129567214Y-125890261D02*
X129778880Y-125587880D01*
X129930071Y-125890261D02*
X129930071Y-125255261D01*
X129688166Y-125255261D01*
X129627690Y-125285500D01*
X129597452Y-125315738D01*
X129567214Y-125376214D01*
X129567214Y-125466928D01*
X129597452Y-125527404D01*
X129627690Y-125557642D01*
X129688166Y-125587880D01*
X129930071Y-125587880D01*
X129355547Y-125255261D02*
X128962452Y-125255261D01*
X129174119Y-125497166D01*
X129083404Y-125497166D01*
X129022928Y-125527404D01*
X128992690Y-125557642D01*
X128962452Y-125618119D01*
X128962452Y-125769309D01*
X128992690Y-125829785D01*
X129022928Y-125860023D01*
X129083404Y-125890261D01*
X129264833Y-125890261D01*
X129325309Y-125860023D01*
X129355547Y-125829785D01*
X128720547Y-125315738D02*
X128690309Y-125285500D01*
X128629833Y-125255261D01*
X128478642Y-125255261D01*
X128418166Y-125285500D01*
X128387928Y-125315738D01*
X128357690Y-125376214D01*
X128357690Y-125436690D01*
X128387928Y-125527404D01*
X128750785Y-125890261D01*
X128357690Y-125890261D01*
X159539214Y-131732261D02*
X159750880Y-131429880D01*
X159902071Y-131732261D02*
X159902071Y-131097261D01*
X159660166Y-131097261D01*
X159599690Y-131127500D01*
X159569452Y-131157738D01*
X159539214Y-131218214D01*
X159539214Y-131308928D01*
X159569452Y-131369404D01*
X159599690Y-131399642D01*
X159660166Y-131429880D01*
X159902071Y-131429880D01*
X159327547Y-131097261D02*
X158934452Y-131097261D01*
X159146119Y-131339166D01*
X159055404Y-131339166D01*
X158994928Y-131369404D01*
X158964690Y-131399642D01*
X158934452Y-131460119D01*
X158934452Y-131611309D01*
X158964690Y-131671785D01*
X158994928Y-131702023D01*
X159055404Y-131732261D01*
X159236833Y-131732261D01*
X159297309Y-131702023D01*
X159327547Y-131671785D01*
X158722785Y-131097261D02*
X158329690Y-131097261D01*
X158541357Y-131339166D01*
X158450642Y-131339166D01*
X158390166Y-131369404D01*
X158359928Y-131399642D01*
X158329690Y-131460119D01*
X158329690Y-131611309D01*
X158359928Y-131671785D01*
X158390166Y-131702023D01*
X158450642Y-131732261D01*
X158632071Y-131732261D01*
X158692547Y-131702023D01*
X158722785Y-131671785D01*
X168048214Y-131732261D02*
X168259880Y-131429880D01*
X168411071Y-131732261D02*
X168411071Y-131097261D01*
X168169166Y-131097261D01*
X168108690Y-131127500D01*
X168078452Y-131157738D01*
X168048214Y-131218214D01*
X168048214Y-131308928D01*
X168078452Y-131369404D01*
X168108690Y-131399642D01*
X168169166Y-131429880D01*
X168411071Y-131429880D01*
X167836547Y-131097261D02*
X167443452Y-131097261D01*
X167655119Y-131339166D01*
X167564404Y-131339166D01*
X167503928Y-131369404D01*
X167473690Y-131399642D01*
X167443452Y-131460119D01*
X167443452Y-131611309D01*
X167473690Y-131671785D01*
X167503928Y-131702023D01*
X167564404Y-131732261D01*
X167745833Y-131732261D01*
X167806309Y-131702023D01*
X167836547Y-131671785D01*
X166899166Y-131308928D02*
X166899166Y-131732261D01*
X167050357Y-131067023D02*
X167201547Y-131520595D01*
X166808452Y-131520595D01*
X191799809Y-102871761D02*
X191799809Y-103385809D01*
X191769571Y-103446285D01*
X191739333Y-103476523D01*
X191678857Y-103506761D01*
X191557904Y-103506761D01*
X191497428Y-103476523D01*
X191467190Y-103446285D01*
X191436952Y-103385809D01*
X191436952Y-102871761D01*
X190801952Y-103506761D02*
X191164809Y-103506761D01*
X190983380Y-103506761D02*
X190983380Y-102871761D01*
X191043857Y-102962476D01*
X191104333Y-103022952D01*
X191164809Y-103053190D01*
X180569809Y-101125261D02*
X180569809Y-101639309D01*
X180539571Y-101699785D01*
X180509333Y-101730023D01*
X180448857Y-101760261D01*
X180327904Y-101760261D01*
X180267428Y-101730023D01*
X180237190Y-101699785D01*
X180206952Y-101639309D01*
X180206952Y-101125261D01*
X179934809Y-101185738D02*
X179904571Y-101155500D01*
X179844095Y-101125261D01*
X179692904Y-101125261D01*
X179632428Y-101155500D01*
X179602190Y-101185738D01*
X179571952Y-101246214D01*
X179571952Y-101306690D01*
X179602190Y-101397404D01*
X179965047Y-101760261D01*
X179571952Y-101760261D01*
X130404809Y-120302261D02*
X130404809Y-120816309D01*
X130374571Y-120876785D01*
X130344333Y-120907023D01*
X130283857Y-120937261D01*
X130162904Y-120937261D01*
X130102428Y-120907023D01*
X130072190Y-120876785D01*
X130041952Y-120816309D01*
X130041952Y-120302261D01*
X129467428Y-120302261D02*
X129588380Y-120302261D01*
X129648857Y-120332500D01*
X129679095Y-120362738D01*
X129739571Y-120453452D01*
X129769809Y-120574404D01*
X129769809Y-120816309D01*
X129739571Y-120876785D01*
X129709333Y-120907023D01*
X129648857Y-120937261D01*
X129527904Y-120937261D01*
X129467428Y-120907023D01*
X129437190Y-120876785D01*
X129406952Y-120816309D01*
X129406952Y-120665119D01*
X129437190Y-120604642D01*
X129467428Y-120574404D01*
X129527904Y-120544166D01*
X129648857Y-120544166D01*
X129709333Y-120574404D01*
X129739571Y-120604642D01*
X129769809Y-120665119D01*
X195326309Y-126906261D02*
X195326309Y-127420309D01*
X195296071Y-127480785D01*
X195265833Y-127511023D01*
X195205357Y-127541261D01*
X195084404Y-127541261D01*
X195023928Y-127511023D01*
X194993690Y-127480785D01*
X194963452Y-127420309D01*
X194963452Y-126906261D01*
X194570357Y-127178404D02*
X194630833Y-127148166D01*
X194661071Y-127117928D01*
X194691309Y-127057452D01*
X194691309Y-127027214D01*
X194661071Y-126966738D01*
X194630833Y-126936500D01*
X194570357Y-126906261D01*
X194449404Y-126906261D01*
X194388928Y-126936500D01*
X194358690Y-126966738D01*
X194328452Y-127027214D01*
X194328452Y-127057452D01*
X194358690Y-127117928D01*
X194388928Y-127148166D01*
X194449404Y-127178404D01*
X194570357Y-127178404D01*
X194630833Y-127208642D01*
X194661071Y-127238880D01*
X194691309Y-127299357D01*
X194691309Y-127420309D01*
X194661071Y-127480785D01*
X194630833Y-127511023D01*
X194570357Y-127541261D01*
X194449404Y-127541261D01*
X194388928Y-127511023D01*
X194358690Y-127480785D01*
X194328452Y-127420309D01*
X194328452Y-127299357D01*
X194358690Y-127238880D01*
X194388928Y-127208642D01*
X194449404Y-127178404D01*
X126851833Y-112367785D02*
X126882071Y-112398023D01*
X126972785Y-112428261D01*
X127033261Y-112428261D01*
X127123976Y-112398023D01*
X127184452Y-112337547D01*
X127214690Y-112277071D01*
X127244928Y-112156119D01*
X127244928Y-112065404D01*
X127214690Y-111944452D01*
X127184452Y-111883976D01*
X127123976Y-111823500D01*
X127033261Y-111793261D01*
X126972785Y-111793261D01*
X126882071Y-111823500D01*
X126851833Y-111853738D01*
X126609928Y-111853738D02*
X126579690Y-111823500D01*
X126519214Y-111793261D01*
X126368023Y-111793261D01*
X126307547Y-111823500D01*
X126277309Y-111853738D01*
X126247071Y-111914214D01*
X126247071Y-111974690D01*
X126277309Y-112065404D01*
X126640166Y-112428261D01*
X126247071Y-112428261D01*
X126851833Y-115923785D02*
X126882071Y-115954023D01*
X126972785Y-115984261D01*
X127033261Y-115984261D01*
X127123976Y-115954023D01*
X127184452Y-115893547D01*
X127214690Y-115833071D01*
X127244928Y-115712119D01*
X127244928Y-115621404D01*
X127214690Y-115500452D01*
X127184452Y-115439976D01*
X127123976Y-115379500D01*
X127033261Y-115349261D01*
X126972785Y-115349261D01*
X126882071Y-115379500D01*
X126851833Y-115409738D01*
X126640166Y-115349261D02*
X126247071Y-115349261D01*
X126458738Y-115591166D01*
X126368023Y-115591166D01*
X126307547Y-115621404D01*
X126277309Y-115651642D01*
X126247071Y-115712119D01*
X126247071Y-115863309D01*
X126277309Y-115923785D01*
X126307547Y-115954023D01*
X126368023Y-115984261D01*
X126549452Y-115984261D01*
X126609928Y-115954023D01*
X126640166Y-115923785D01*
X184763833Y-107414785D02*
X184794071Y-107445023D01*
X184884785Y-107475261D01*
X184945261Y-107475261D01*
X185035976Y-107445023D01*
X185096452Y-107384547D01*
X185126690Y-107324071D01*
X185156928Y-107203119D01*
X185156928Y-107112404D01*
X185126690Y-106991452D01*
X185096452Y-106930976D01*
X185035976Y-106870500D01*
X184945261Y-106840261D01*
X184884785Y-106840261D01*
X184794071Y-106870500D01*
X184763833Y-106900738D01*
X184219547Y-107051928D02*
X184219547Y-107475261D01*
X184370738Y-106810023D02*
X184521928Y-107263595D01*
X184128833Y-107263595D01*
X173968833Y-112113785D02*
X173999071Y-112144023D01*
X174089785Y-112174261D01*
X174150261Y-112174261D01*
X174240976Y-112144023D01*
X174301452Y-112083547D01*
X174331690Y-112023071D01*
X174361928Y-111902119D01*
X174361928Y-111811404D01*
X174331690Y-111690452D01*
X174301452Y-111629976D01*
X174240976Y-111569500D01*
X174150261Y-111539261D01*
X174089785Y-111539261D01*
X173999071Y-111569500D01*
X173968833Y-111599738D01*
X173394309Y-111539261D02*
X173696690Y-111539261D01*
X173726928Y-111841642D01*
X173696690Y-111811404D01*
X173636214Y-111781166D01*
X173485023Y-111781166D01*
X173424547Y-111811404D01*
X173394309Y-111841642D01*
X173364071Y-111902119D01*
X173364071Y-112053309D01*
X173394309Y-112113785D01*
X173424547Y-112144023D01*
X173485023Y-112174261D01*
X173636214Y-112174261D01*
X173696690Y-112144023D01*
X173726928Y-112113785D01*
X170232833Y-101572785D02*
X170263071Y-101603023D01*
X170353785Y-101633261D01*
X170414261Y-101633261D01*
X170504976Y-101603023D01*
X170565452Y-101542547D01*
X170595690Y-101482071D01*
X170625928Y-101361119D01*
X170625928Y-101270404D01*
X170595690Y-101149452D01*
X170565452Y-101088976D01*
X170504976Y-101028500D01*
X170414261Y-100998261D01*
X170353785Y-100998261D01*
X170263071Y-101028500D01*
X170232833Y-101058738D01*
X169869976Y-101270404D02*
X169930452Y-101240166D01*
X169960690Y-101209928D01*
X169990928Y-101149452D01*
X169990928Y-101119214D01*
X169960690Y-101058738D01*
X169930452Y-101028500D01*
X169869976Y-100998261D01*
X169749023Y-100998261D01*
X169688547Y-101028500D01*
X169658309Y-101058738D01*
X169628071Y-101119214D01*
X169628071Y-101149452D01*
X169658309Y-101209928D01*
X169688547Y-101240166D01*
X169749023Y-101270404D01*
X169869976Y-101270404D01*
X169930452Y-101300642D01*
X169960690Y-101330880D01*
X169990928Y-101391357D01*
X169990928Y-101512309D01*
X169960690Y-101572785D01*
X169930452Y-101603023D01*
X169869976Y-101633261D01*
X169749023Y-101633261D01*
X169688547Y-101603023D01*
X169658309Y-101572785D01*
X169628071Y-101512309D01*
X169628071Y-101391357D01*
X169658309Y-101330880D01*
X169688547Y-101300642D01*
X169749023Y-101270404D01*
X190654214Y-107287785D02*
X190684452Y-107318023D01*
X190775166Y-107348261D01*
X190835642Y-107348261D01*
X190926357Y-107318023D01*
X190986833Y-107257547D01*
X191017071Y-107197071D01*
X191047309Y-107076119D01*
X191047309Y-106985404D01*
X191017071Y-106864452D01*
X190986833Y-106803976D01*
X190926357Y-106743500D01*
X190835642Y-106713261D01*
X190775166Y-106713261D01*
X190684452Y-106743500D01*
X190654214Y-106773738D01*
X190049452Y-107348261D02*
X190412309Y-107348261D01*
X190230880Y-107348261D02*
X190230880Y-106713261D01*
X190291357Y-106803976D01*
X190351833Y-106864452D01*
X190412309Y-106894690D01*
X189807547Y-106773738D02*
X189777309Y-106743500D01*
X189716833Y-106713261D01*
X189565642Y-106713261D01*
X189505166Y-106743500D01*
X189474928Y-106773738D01*
X189444690Y-106834214D01*
X189444690Y-106894690D01*
X189474928Y-106985404D01*
X189837785Y-107348261D01*
X189444690Y-107348261D01*
X159031214Y-147927785D02*
X159061452Y-147958023D01*
X159152166Y-147988261D01*
X159212642Y-147988261D01*
X159303357Y-147958023D01*
X159363833Y-147897547D01*
X159394071Y-147837071D01*
X159424309Y-147716119D01*
X159424309Y-147625404D01*
X159394071Y-147504452D01*
X159363833Y-147443976D01*
X159303357Y-147383500D01*
X159212642Y-147353261D01*
X159152166Y-147353261D01*
X159061452Y-147383500D01*
X159031214Y-147413738D01*
X158789309Y-147413738D02*
X158759071Y-147383500D01*
X158698595Y-147353261D01*
X158547404Y-147353261D01*
X158486928Y-147383500D01*
X158456690Y-147413738D01*
X158426452Y-147474214D01*
X158426452Y-147534690D01*
X158456690Y-147625404D01*
X158819547Y-147988261D01*
X158426452Y-147988261D01*
X158214785Y-147353261D02*
X157791452Y-147353261D01*
X158063595Y-147988261D01*
X125503214Y-120495785D02*
X125533452Y-120526023D01*
X125624166Y-120556261D01*
X125684642Y-120556261D01*
X125775357Y-120526023D01*
X125835833Y-120465547D01*
X125866071Y-120405071D01*
X125896309Y-120284119D01*
X125896309Y-120193404D01*
X125866071Y-120072452D01*
X125835833Y-120011976D01*
X125775357Y-119951500D01*
X125684642Y-119921261D01*
X125624166Y-119921261D01*
X125533452Y-119951500D01*
X125503214Y-119981738D01*
X124898452Y-120556261D02*
X125261309Y-120556261D01*
X125079880Y-120556261D02*
X125079880Y-119921261D01*
X125140357Y-120011976D01*
X125200833Y-120072452D01*
X125261309Y-120102690D01*
X124535595Y-120193404D02*
X124596071Y-120163166D01*
X124626309Y-120132928D01*
X124656547Y-120072452D01*
X124656547Y-120042214D01*
X124626309Y-119981738D01*
X124596071Y-119951500D01*
X124535595Y-119921261D01*
X124414642Y-119921261D01*
X124354166Y-119951500D01*
X124323928Y-119981738D01*
X124293690Y-120042214D01*
X124293690Y-120072452D01*
X124323928Y-120132928D01*
X124354166Y-120163166D01*
X124414642Y-120193404D01*
X124535595Y-120193404D01*
X124596071Y-120223642D01*
X124626309Y-120253880D01*
X124656547Y-120314357D01*
X124656547Y-120435309D01*
X124626309Y-120495785D01*
X124596071Y-120526023D01*
X124535595Y-120556261D01*
X124414642Y-120556261D01*
X124354166Y-120526023D01*
X124323928Y-120495785D01*
X124293690Y-120435309D01*
X124293690Y-120314357D01*
X124323928Y-120253880D01*
X124354166Y-120223642D01*
X124414642Y-120193404D01*
X156358166Y-147020642D02*
X156569833Y-147020642D01*
X156569833Y-147353261D02*
X156569833Y-146718261D01*
X156267452Y-146718261D01*
X155813880Y-147020642D02*
X155723166Y-147050880D01*
X155692928Y-147081119D01*
X155662690Y-147141595D01*
X155662690Y-147232309D01*
X155692928Y-147292785D01*
X155723166Y-147323023D01*
X155783642Y-147353261D01*
X156025547Y-147353261D01*
X156025547Y-146718261D01*
X155813880Y-146718261D01*
X155753404Y-146748500D01*
X155723166Y-146778738D01*
X155692928Y-146839214D01*
X155692928Y-146899690D01*
X155723166Y-146960166D01*
X155753404Y-146990404D01*
X155813880Y-147020642D01*
X156025547Y-147020642D01*
X155118404Y-146929928D02*
X155118404Y-147353261D01*
X155269595Y-146688023D02*
X155420785Y-147141595D01*
X155027690Y-147141595D01*
X157888214Y-112494785D02*
X157918452Y-112525023D01*
X158009166Y-112555261D01*
X158069642Y-112555261D01*
X158160357Y-112525023D01*
X158220833Y-112464547D01*
X158251071Y-112404071D01*
X158281309Y-112283119D01*
X158281309Y-112192404D01*
X158251071Y-112071452D01*
X158220833Y-112010976D01*
X158160357Y-111950500D01*
X158069642Y-111920261D01*
X158009166Y-111920261D01*
X157918452Y-111950500D01*
X157888214Y-111980738D01*
X157646309Y-111980738D02*
X157616071Y-111950500D01*
X157555595Y-111920261D01*
X157404404Y-111920261D01*
X157343928Y-111950500D01*
X157313690Y-111980738D01*
X157283452Y-112041214D01*
X157283452Y-112101690D01*
X157313690Y-112192404D01*
X157676547Y-112555261D01*
X157283452Y-112555261D01*
X156890357Y-111920261D02*
X156829880Y-111920261D01*
X156769404Y-111950500D01*
X156739166Y-111980738D01*
X156708928Y-112041214D01*
X156678690Y-112162166D01*
X156678690Y-112313357D01*
X156708928Y-112434309D01*
X156739166Y-112494785D01*
X156769404Y-112525023D01*
X156829880Y-112555261D01*
X156890357Y-112555261D01*
X156950833Y-112525023D01*
X156981071Y-112494785D01*
X157011309Y-112434309D01*
X157041547Y-112313357D01*
X157041547Y-112162166D01*
X157011309Y-112041214D01*
X156981071Y-111980738D01*
X156950833Y-111950500D01*
X156890357Y-111920261D01*
X161698214Y-131671785D02*
X161728452Y-131702023D01*
X161819166Y-131732261D01*
X161879642Y-131732261D01*
X161970357Y-131702023D01*
X162030833Y-131641547D01*
X162061071Y-131581071D01*
X162091309Y-131460119D01*
X162091309Y-131369404D01*
X162061071Y-131248452D01*
X162030833Y-131187976D01*
X161970357Y-131127500D01*
X161879642Y-131097261D01*
X161819166Y-131097261D01*
X161728452Y-131127500D01*
X161698214Y-131157738D01*
X161486547Y-131097261D02*
X161093452Y-131097261D01*
X161305119Y-131339166D01*
X161214404Y-131339166D01*
X161153928Y-131369404D01*
X161123690Y-131399642D01*
X161093452Y-131460119D01*
X161093452Y-131611309D01*
X161123690Y-131671785D01*
X161153928Y-131702023D01*
X161214404Y-131732261D01*
X161395833Y-131732261D01*
X161456309Y-131702023D01*
X161486547Y-131671785D01*
X160549166Y-131308928D02*
X160549166Y-131732261D01*
X160700357Y-131067023D02*
X160851547Y-131520595D01*
X160458452Y-131520595D01*
X163857214Y-131732261D02*
X164068880Y-131429880D01*
X164220071Y-131732261D02*
X164220071Y-131097261D01*
X163978166Y-131097261D01*
X163917690Y-131127500D01*
X163887452Y-131157738D01*
X163857214Y-131218214D01*
X163857214Y-131308928D01*
X163887452Y-131369404D01*
X163917690Y-131399642D01*
X163978166Y-131429880D01*
X164220071Y-131429880D01*
X163645547Y-131097261D02*
X163252452Y-131097261D01*
X163464119Y-131339166D01*
X163373404Y-131339166D01*
X163312928Y-131369404D01*
X163282690Y-131399642D01*
X163252452Y-131460119D01*
X163252452Y-131611309D01*
X163282690Y-131671785D01*
X163312928Y-131702023D01*
X163373404Y-131732261D01*
X163554833Y-131732261D01*
X163615309Y-131702023D01*
X163645547Y-131671785D01*
X162677928Y-131097261D02*
X162980309Y-131097261D01*
X163010547Y-131399642D01*
X162980309Y-131369404D01*
X162919833Y-131339166D01*
X162768642Y-131339166D01*
X162708166Y-131369404D01*
X162677928Y-131399642D01*
X162647690Y-131460119D01*
X162647690Y-131611309D01*
X162677928Y-131671785D01*
X162708166Y-131702023D01*
X162768642Y-131732261D01*
X162919833Y-131732261D01*
X162980309Y-131702023D01*
X163010547Y-131671785D01*
M02*
