G04 #@! TF.GenerationSoftware,KiCad,Pcbnew,(5.1.4)-1*
G04 #@! TF.CreationDate,2021-03-24T15:31:26+01:00*
G04 #@! TF.ProjectId,HRM,48524d2e-6b69-4636-9164-5f7063625858,rev?*
G04 #@! TF.SameCoordinates,Original*
G04 #@! TF.FileFunction,Soldermask,Top*
G04 #@! TF.FilePolarity,Negative*
%FSLAX46Y46*%
G04 Gerber Fmt 4.6, Leading zero omitted, Abs format (unit mm)*
G04 Created by KiCad (PCBNEW (5.1.4)-1) date 2021-03-24 15:31:26*
%MOMM*%
%LPD*%
G04 APERTURE LIST*
%ADD10R,2.432000X1.797000*%
%ADD11C,3.400000*%
%ADD12C,1.924000*%
%ADD13R,2.500000X1.800000*%
%ADD14R,1.670000X1.797000*%
%ADD15R,1.797000X1.670000*%
%ADD16R,2.400000X2.400000*%
%ADD17R,3.400000X3.900000*%
%ADD18R,2.300000X1.900000*%
%ADD19C,1.850000*%
%ADD20R,1.750000X0.800000*%
%ADD21O,2.300000X1.600000*%
%ADD22R,2.300000X1.600000*%
%ADD23C,0.100000*%
%ADD24C,2.100000*%
%ADD25O,2.400000X2.100000*%
%ADD26C,2.200000*%
%ADD27R,2.200000X2.200000*%
%ADD28C,1.000000*%
%ADD29R,1.300000X1.200000*%
%ADD30C,2.500000*%
%ADD31R,2.100000X2.100000*%
%ADD32O,2.100000X2.100000*%
%ADD33R,1.550000X0.750000*%
%ADD34R,1.300000X2.900000*%
%ADD35R,2.900000X1.300000*%
%ADD36R,6.400000X6.400000*%
%ADD37O,1.670000X1.670000*%
%ADD38R,1.797000X2.432000*%
%ADD39R,1.700000X0.720000*%
%ADD40R,1.300000X0.720000*%
%ADD41C,15.400000*%
%ADD42C,2.400000*%
G04 APERTURE END LIST*
D10*
X201250000Y-104374400D03*
X201250000Y-107625600D03*
D11*
X179650000Y-125000000D03*
X149250000Y-125000000D03*
X149250000Y-96500000D03*
X179650000Y-96500000D03*
D12*
X159370000Y-96000000D03*
X161910000Y-96000000D03*
X164450000Y-96000000D03*
X166990000Y-96000000D03*
X169530000Y-96000000D03*
X172070000Y-96000000D03*
X156830000Y-96000000D03*
D13*
X116750000Y-127135000D03*
X126750000Y-122135000D03*
X116750000Y-122135000D03*
X126750000Y-127135000D03*
X140000000Y-127135000D03*
X130000000Y-122135000D03*
X140000000Y-122135000D03*
X130000000Y-127135000D03*
X154225000Y-134453000D03*
X144225000Y-129453000D03*
X154225000Y-129453000D03*
X144225000Y-134453000D03*
X170895000Y-134453000D03*
X180895000Y-129453000D03*
X170895000Y-129453000D03*
X180895000Y-134453000D03*
D14*
X120777000Y-119761000D03*
X123063000Y-119761000D03*
D15*
X205510500Y-120702500D03*
X205510500Y-118416500D03*
D14*
X195000000Y-107696000D03*
X197286000Y-107696000D03*
D15*
X149694500Y-144979000D03*
X149694500Y-142693000D03*
X168564000Y-147827000D03*
X168564000Y-145541000D03*
X168564000Y-143763000D03*
X168564000Y-141477000D03*
D14*
X163344000Y-147916000D03*
X165630000Y-147916000D03*
D15*
X160553000Y-146122000D03*
X160553000Y-148408000D03*
X160553000Y-142058000D03*
X160553000Y-144344000D03*
D16*
X196000000Y-116750000D03*
X200000000Y-116750000D03*
D17*
X201000000Y-112000000D03*
X208000000Y-112000000D03*
D15*
X203478500Y-118416500D03*
X203478500Y-120702500D03*
D14*
X207669500Y-116511500D03*
X205383500Y-116511500D03*
D18*
X213237500Y-118115000D03*
D19*
X210537500Y-121615000D03*
D20*
X210537500Y-119765000D03*
X210537500Y-120415000D03*
X210537500Y-117815000D03*
X210537500Y-118465000D03*
X210537500Y-119115000D03*
D19*
X210537500Y-116615000D03*
D18*
X213237500Y-120115000D03*
D21*
X213237500Y-122615000D03*
X213237500Y-115615000D03*
D22*
X213237500Y-116215000D03*
X213237500Y-122015000D03*
D23*
G36*
X212083447Y-111208487D02*
G01*
X212113425Y-111212934D01*
X212142824Y-111220298D01*
X212171358Y-111230508D01*
X212198755Y-111243465D01*
X212224750Y-111259046D01*
X212249092Y-111277100D01*
X212271548Y-111297452D01*
X212291900Y-111319908D01*
X212309954Y-111344250D01*
X212325535Y-111370245D01*
X212338492Y-111397642D01*
X212348702Y-111426176D01*
X212356066Y-111455575D01*
X212360513Y-111485553D01*
X212362000Y-111515823D01*
X212362000Y-112998177D01*
X212360513Y-113028447D01*
X212356066Y-113058425D01*
X212348702Y-113087824D01*
X212338492Y-113116358D01*
X212325535Y-113143755D01*
X212309954Y-113169750D01*
X212291900Y-113194092D01*
X212271548Y-113216548D01*
X212249092Y-113236900D01*
X212224750Y-113254954D01*
X212198755Y-113270535D01*
X212171358Y-113283492D01*
X212142824Y-113293702D01*
X212113425Y-113301066D01*
X212083447Y-113305513D01*
X212053177Y-113307000D01*
X210270823Y-113307000D01*
X210240553Y-113305513D01*
X210210575Y-113301066D01*
X210181176Y-113293702D01*
X210152642Y-113283492D01*
X210125245Y-113270535D01*
X210099250Y-113254954D01*
X210074908Y-113236900D01*
X210052452Y-113216548D01*
X210032100Y-113194092D01*
X210014046Y-113169750D01*
X209998465Y-113143755D01*
X209985508Y-113116358D01*
X209975298Y-113087824D01*
X209967934Y-113058425D01*
X209963487Y-113028447D01*
X209962000Y-112998177D01*
X209962000Y-111515823D01*
X209963487Y-111485553D01*
X209967934Y-111455575D01*
X209975298Y-111426176D01*
X209985508Y-111397642D01*
X209998465Y-111370245D01*
X210014046Y-111344250D01*
X210032100Y-111319908D01*
X210052452Y-111297452D01*
X210074908Y-111277100D01*
X210099250Y-111259046D01*
X210125245Y-111243465D01*
X210152642Y-111230508D01*
X210181176Y-111220298D01*
X210210575Y-111212934D01*
X210240553Y-111208487D01*
X210270823Y-111207000D01*
X212053177Y-111207000D01*
X212083447Y-111208487D01*
X212083447Y-111208487D01*
G37*
D24*
X211162000Y-112257000D03*
D25*
X211162000Y-109757000D03*
D11*
X212493000Y-151478000D03*
X116493000Y-95478000D03*
X116493000Y-151478000D03*
X212493000Y-95478000D03*
D26*
X209040000Y-96000000D03*
D27*
X206500000Y-96000000D03*
X201500000Y-96000000D03*
D26*
X204040000Y-96000000D03*
D27*
X189103000Y-119253000D03*
D26*
X189103000Y-121793000D03*
X184658000Y-121790000D03*
D27*
X184658000Y-119250000D03*
D26*
X198790000Y-96000000D03*
D27*
X196250000Y-96000000D03*
D26*
X189103000Y-126365000D03*
D27*
X189103000Y-128905000D03*
X184658000Y-128905000D03*
D26*
X184658000Y-126365000D03*
D23*
G36*
X197674504Y-104656204D02*
G01*
X197698773Y-104659804D01*
X197722571Y-104665765D01*
X197745671Y-104674030D01*
X197767849Y-104684520D01*
X197788893Y-104697133D01*
X197808598Y-104711747D01*
X197826777Y-104728223D01*
X197843253Y-104746402D01*
X197857867Y-104766107D01*
X197870480Y-104787151D01*
X197880970Y-104809329D01*
X197889235Y-104832429D01*
X197895196Y-104856227D01*
X197898796Y-104880496D01*
X197900000Y-104905000D01*
X197900000Y-105405000D01*
X197898796Y-105429504D01*
X197895196Y-105453773D01*
X197889235Y-105477571D01*
X197880970Y-105500671D01*
X197870480Y-105522849D01*
X197857867Y-105543893D01*
X197843253Y-105563598D01*
X197826777Y-105581777D01*
X197808598Y-105598253D01*
X197788893Y-105612867D01*
X197767849Y-105625480D01*
X197745671Y-105635970D01*
X197722571Y-105644235D01*
X197698773Y-105650196D01*
X197674504Y-105653796D01*
X197650000Y-105655000D01*
X196000000Y-105655000D01*
X195975496Y-105653796D01*
X195951227Y-105650196D01*
X195927429Y-105644235D01*
X195904329Y-105635970D01*
X195882151Y-105625480D01*
X195861107Y-105612867D01*
X195841402Y-105598253D01*
X195823223Y-105581777D01*
X195806747Y-105563598D01*
X195792133Y-105543893D01*
X195779520Y-105522849D01*
X195769030Y-105500671D01*
X195760765Y-105477571D01*
X195754804Y-105453773D01*
X195751204Y-105429504D01*
X195750000Y-105405000D01*
X195750000Y-104905000D01*
X195751204Y-104880496D01*
X195754804Y-104856227D01*
X195760765Y-104832429D01*
X195769030Y-104809329D01*
X195779520Y-104787151D01*
X195792133Y-104766107D01*
X195806747Y-104746402D01*
X195823223Y-104728223D01*
X195841402Y-104711747D01*
X195861107Y-104697133D01*
X195882151Y-104684520D01*
X195904329Y-104674030D01*
X195927429Y-104665765D01*
X195951227Y-104659804D01*
X195975496Y-104656204D01*
X196000000Y-104655000D01*
X197650000Y-104655000D01*
X197674504Y-104656204D01*
X197674504Y-104656204D01*
G37*
D28*
X196825000Y-105155000D03*
D23*
G36*
X197674504Y-103386204D02*
G01*
X197698773Y-103389804D01*
X197722571Y-103395765D01*
X197745671Y-103404030D01*
X197767849Y-103414520D01*
X197788893Y-103427133D01*
X197808598Y-103441747D01*
X197826777Y-103458223D01*
X197843253Y-103476402D01*
X197857867Y-103496107D01*
X197870480Y-103517151D01*
X197880970Y-103539329D01*
X197889235Y-103562429D01*
X197895196Y-103586227D01*
X197898796Y-103610496D01*
X197900000Y-103635000D01*
X197900000Y-104135000D01*
X197898796Y-104159504D01*
X197895196Y-104183773D01*
X197889235Y-104207571D01*
X197880970Y-104230671D01*
X197870480Y-104252849D01*
X197857867Y-104273893D01*
X197843253Y-104293598D01*
X197826777Y-104311777D01*
X197808598Y-104328253D01*
X197788893Y-104342867D01*
X197767849Y-104355480D01*
X197745671Y-104365970D01*
X197722571Y-104374235D01*
X197698773Y-104380196D01*
X197674504Y-104383796D01*
X197650000Y-104385000D01*
X196000000Y-104385000D01*
X195975496Y-104383796D01*
X195951227Y-104380196D01*
X195927429Y-104374235D01*
X195904329Y-104365970D01*
X195882151Y-104355480D01*
X195861107Y-104342867D01*
X195841402Y-104328253D01*
X195823223Y-104311777D01*
X195806747Y-104293598D01*
X195792133Y-104273893D01*
X195779520Y-104252849D01*
X195769030Y-104230671D01*
X195760765Y-104207571D01*
X195754804Y-104183773D01*
X195751204Y-104159504D01*
X195750000Y-104135000D01*
X195750000Y-103635000D01*
X195751204Y-103610496D01*
X195754804Y-103586227D01*
X195760765Y-103562429D01*
X195769030Y-103539329D01*
X195779520Y-103517151D01*
X195792133Y-103496107D01*
X195806747Y-103476402D01*
X195823223Y-103458223D01*
X195841402Y-103441747D01*
X195861107Y-103427133D01*
X195882151Y-103414520D01*
X195904329Y-103404030D01*
X195927429Y-103395765D01*
X195951227Y-103389804D01*
X195975496Y-103386204D01*
X196000000Y-103385000D01*
X197650000Y-103385000D01*
X197674504Y-103386204D01*
X197674504Y-103386204D01*
G37*
D28*
X196825000Y-103885000D03*
D23*
G36*
X197674504Y-102116204D02*
G01*
X197698773Y-102119804D01*
X197722571Y-102125765D01*
X197745671Y-102134030D01*
X197767849Y-102144520D01*
X197788893Y-102157133D01*
X197808598Y-102171747D01*
X197826777Y-102188223D01*
X197843253Y-102206402D01*
X197857867Y-102226107D01*
X197870480Y-102247151D01*
X197880970Y-102269329D01*
X197889235Y-102292429D01*
X197895196Y-102316227D01*
X197898796Y-102340496D01*
X197900000Y-102365000D01*
X197900000Y-102865000D01*
X197898796Y-102889504D01*
X197895196Y-102913773D01*
X197889235Y-102937571D01*
X197880970Y-102960671D01*
X197870480Y-102982849D01*
X197857867Y-103003893D01*
X197843253Y-103023598D01*
X197826777Y-103041777D01*
X197808598Y-103058253D01*
X197788893Y-103072867D01*
X197767849Y-103085480D01*
X197745671Y-103095970D01*
X197722571Y-103104235D01*
X197698773Y-103110196D01*
X197674504Y-103113796D01*
X197650000Y-103115000D01*
X196000000Y-103115000D01*
X195975496Y-103113796D01*
X195951227Y-103110196D01*
X195927429Y-103104235D01*
X195904329Y-103095970D01*
X195882151Y-103085480D01*
X195861107Y-103072867D01*
X195841402Y-103058253D01*
X195823223Y-103041777D01*
X195806747Y-103023598D01*
X195792133Y-103003893D01*
X195779520Y-102982849D01*
X195769030Y-102960671D01*
X195760765Y-102937571D01*
X195754804Y-102913773D01*
X195751204Y-102889504D01*
X195750000Y-102865000D01*
X195750000Y-102365000D01*
X195751204Y-102340496D01*
X195754804Y-102316227D01*
X195760765Y-102292429D01*
X195769030Y-102269329D01*
X195779520Y-102247151D01*
X195792133Y-102226107D01*
X195806747Y-102206402D01*
X195823223Y-102188223D01*
X195841402Y-102171747D01*
X195861107Y-102157133D01*
X195882151Y-102144520D01*
X195904329Y-102134030D01*
X195927429Y-102125765D01*
X195951227Y-102119804D01*
X195975496Y-102116204D01*
X196000000Y-102115000D01*
X197650000Y-102115000D01*
X197674504Y-102116204D01*
X197674504Y-102116204D01*
G37*
D28*
X196825000Y-102615000D03*
D23*
G36*
X197674504Y-100846204D02*
G01*
X197698773Y-100849804D01*
X197722571Y-100855765D01*
X197745671Y-100864030D01*
X197767849Y-100874520D01*
X197788893Y-100887133D01*
X197808598Y-100901747D01*
X197826777Y-100918223D01*
X197843253Y-100936402D01*
X197857867Y-100956107D01*
X197870480Y-100977151D01*
X197880970Y-100999329D01*
X197889235Y-101022429D01*
X197895196Y-101046227D01*
X197898796Y-101070496D01*
X197900000Y-101095000D01*
X197900000Y-101595000D01*
X197898796Y-101619504D01*
X197895196Y-101643773D01*
X197889235Y-101667571D01*
X197880970Y-101690671D01*
X197870480Y-101712849D01*
X197857867Y-101733893D01*
X197843253Y-101753598D01*
X197826777Y-101771777D01*
X197808598Y-101788253D01*
X197788893Y-101802867D01*
X197767849Y-101815480D01*
X197745671Y-101825970D01*
X197722571Y-101834235D01*
X197698773Y-101840196D01*
X197674504Y-101843796D01*
X197650000Y-101845000D01*
X196000000Y-101845000D01*
X195975496Y-101843796D01*
X195951227Y-101840196D01*
X195927429Y-101834235D01*
X195904329Y-101825970D01*
X195882151Y-101815480D01*
X195861107Y-101802867D01*
X195841402Y-101788253D01*
X195823223Y-101771777D01*
X195806747Y-101753598D01*
X195792133Y-101733893D01*
X195779520Y-101712849D01*
X195769030Y-101690671D01*
X195760765Y-101667571D01*
X195754804Y-101643773D01*
X195751204Y-101619504D01*
X195750000Y-101595000D01*
X195750000Y-101095000D01*
X195751204Y-101070496D01*
X195754804Y-101046227D01*
X195760765Y-101022429D01*
X195769030Y-100999329D01*
X195779520Y-100977151D01*
X195792133Y-100956107D01*
X195806747Y-100936402D01*
X195823223Y-100918223D01*
X195841402Y-100901747D01*
X195861107Y-100887133D01*
X195882151Y-100874520D01*
X195904329Y-100864030D01*
X195927429Y-100855765D01*
X195951227Y-100849804D01*
X195975496Y-100846204D01*
X196000000Y-100845000D01*
X197650000Y-100845000D01*
X197674504Y-100846204D01*
X197674504Y-100846204D01*
G37*
D28*
X196825000Y-101345000D03*
D23*
G36*
X192524504Y-100846204D02*
G01*
X192548773Y-100849804D01*
X192572571Y-100855765D01*
X192595671Y-100864030D01*
X192617849Y-100874520D01*
X192638893Y-100887133D01*
X192658598Y-100901747D01*
X192676777Y-100918223D01*
X192693253Y-100936402D01*
X192707867Y-100956107D01*
X192720480Y-100977151D01*
X192730970Y-100999329D01*
X192739235Y-101022429D01*
X192745196Y-101046227D01*
X192748796Y-101070496D01*
X192750000Y-101095000D01*
X192750000Y-101595000D01*
X192748796Y-101619504D01*
X192745196Y-101643773D01*
X192739235Y-101667571D01*
X192730970Y-101690671D01*
X192720480Y-101712849D01*
X192707867Y-101733893D01*
X192693253Y-101753598D01*
X192676777Y-101771777D01*
X192658598Y-101788253D01*
X192638893Y-101802867D01*
X192617849Y-101815480D01*
X192595671Y-101825970D01*
X192572571Y-101834235D01*
X192548773Y-101840196D01*
X192524504Y-101843796D01*
X192500000Y-101845000D01*
X190850000Y-101845000D01*
X190825496Y-101843796D01*
X190801227Y-101840196D01*
X190777429Y-101834235D01*
X190754329Y-101825970D01*
X190732151Y-101815480D01*
X190711107Y-101802867D01*
X190691402Y-101788253D01*
X190673223Y-101771777D01*
X190656747Y-101753598D01*
X190642133Y-101733893D01*
X190629520Y-101712849D01*
X190619030Y-101690671D01*
X190610765Y-101667571D01*
X190604804Y-101643773D01*
X190601204Y-101619504D01*
X190600000Y-101595000D01*
X190600000Y-101095000D01*
X190601204Y-101070496D01*
X190604804Y-101046227D01*
X190610765Y-101022429D01*
X190619030Y-100999329D01*
X190629520Y-100977151D01*
X190642133Y-100956107D01*
X190656747Y-100936402D01*
X190673223Y-100918223D01*
X190691402Y-100901747D01*
X190711107Y-100887133D01*
X190732151Y-100874520D01*
X190754329Y-100864030D01*
X190777429Y-100855765D01*
X190801227Y-100849804D01*
X190825496Y-100846204D01*
X190850000Y-100845000D01*
X192500000Y-100845000D01*
X192524504Y-100846204D01*
X192524504Y-100846204D01*
G37*
D28*
X191675000Y-101345000D03*
D23*
G36*
X192524504Y-102116204D02*
G01*
X192548773Y-102119804D01*
X192572571Y-102125765D01*
X192595671Y-102134030D01*
X192617849Y-102144520D01*
X192638893Y-102157133D01*
X192658598Y-102171747D01*
X192676777Y-102188223D01*
X192693253Y-102206402D01*
X192707867Y-102226107D01*
X192720480Y-102247151D01*
X192730970Y-102269329D01*
X192739235Y-102292429D01*
X192745196Y-102316227D01*
X192748796Y-102340496D01*
X192750000Y-102365000D01*
X192750000Y-102865000D01*
X192748796Y-102889504D01*
X192745196Y-102913773D01*
X192739235Y-102937571D01*
X192730970Y-102960671D01*
X192720480Y-102982849D01*
X192707867Y-103003893D01*
X192693253Y-103023598D01*
X192676777Y-103041777D01*
X192658598Y-103058253D01*
X192638893Y-103072867D01*
X192617849Y-103085480D01*
X192595671Y-103095970D01*
X192572571Y-103104235D01*
X192548773Y-103110196D01*
X192524504Y-103113796D01*
X192500000Y-103115000D01*
X190850000Y-103115000D01*
X190825496Y-103113796D01*
X190801227Y-103110196D01*
X190777429Y-103104235D01*
X190754329Y-103095970D01*
X190732151Y-103085480D01*
X190711107Y-103072867D01*
X190691402Y-103058253D01*
X190673223Y-103041777D01*
X190656747Y-103023598D01*
X190642133Y-103003893D01*
X190629520Y-102982849D01*
X190619030Y-102960671D01*
X190610765Y-102937571D01*
X190604804Y-102913773D01*
X190601204Y-102889504D01*
X190600000Y-102865000D01*
X190600000Y-102365000D01*
X190601204Y-102340496D01*
X190604804Y-102316227D01*
X190610765Y-102292429D01*
X190619030Y-102269329D01*
X190629520Y-102247151D01*
X190642133Y-102226107D01*
X190656747Y-102206402D01*
X190673223Y-102188223D01*
X190691402Y-102171747D01*
X190711107Y-102157133D01*
X190732151Y-102144520D01*
X190754329Y-102134030D01*
X190777429Y-102125765D01*
X190801227Y-102119804D01*
X190825496Y-102116204D01*
X190850000Y-102115000D01*
X192500000Y-102115000D01*
X192524504Y-102116204D01*
X192524504Y-102116204D01*
G37*
D28*
X191675000Y-102615000D03*
D23*
G36*
X192524504Y-103386204D02*
G01*
X192548773Y-103389804D01*
X192572571Y-103395765D01*
X192595671Y-103404030D01*
X192617849Y-103414520D01*
X192638893Y-103427133D01*
X192658598Y-103441747D01*
X192676777Y-103458223D01*
X192693253Y-103476402D01*
X192707867Y-103496107D01*
X192720480Y-103517151D01*
X192730970Y-103539329D01*
X192739235Y-103562429D01*
X192745196Y-103586227D01*
X192748796Y-103610496D01*
X192750000Y-103635000D01*
X192750000Y-104135000D01*
X192748796Y-104159504D01*
X192745196Y-104183773D01*
X192739235Y-104207571D01*
X192730970Y-104230671D01*
X192720480Y-104252849D01*
X192707867Y-104273893D01*
X192693253Y-104293598D01*
X192676777Y-104311777D01*
X192658598Y-104328253D01*
X192638893Y-104342867D01*
X192617849Y-104355480D01*
X192595671Y-104365970D01*
X192572571Y-104374235D01*
X192548773Y-104380196D01*
X192524504Y-104383796D01*
X192500000Y-104385000D01*
X190850000Y-104385000D01*
X190825496Y-104383796D01*
X190801227Y-104380196D01*
X190777429Y-104374235D01*
X190754329Y-104365970D01*
X190732151Y-104355480D01*
X190711107Y-104342867D01*
X190691402Y-104328253D01*
X190673223Y-104311777D01*
X190656747Y-104293598D01*
X190642133Y-104273893D01*
X190629520Y-104252849D01*
X190619030Y-104230671D01*
X190610765Y-104207571D01*
X190604804Y-104183773D01*
X190601204Y-104159504D01*
X190600000Y-104135000D01*
X190600000Y-103635000D01*
X190601204Y-103610496D01*
X190604804Y-103586227D01*
X190610765Y-103562429D01*
X190619030Y-103539329D01*
X190629520Y-103517151D01*
X190642133Y-103496107D01*
X190656747Y-103476402D01*
X190673223Y-103458223D01*
X190691402Y-103441747D01*
X190711107Y-103427133D01*
X190732151Y-103414520D01*
X190754329Y-103404030D01*
X190777429Y-103395765D01*
X190801227Y-103389804D01*
X190825496Y-103386204D01*
X190850000Y-103385000D01*
X192500000Y-103385000D01*
X192524504Y-103386204D01*
X192524504Y-103386204D01*
G37*
D28*
X191675000Y-103885000D03*
D23*
G36*
X192524504Y-104656204D02*
G01*
X192548773Y-104659804D01*
X192572571Y-104665765D01*
X192595671Y-104674030D01*
X192617849Y-104684520D01*
X192638893Y-104697133D01*
X192658598Y-104711747D01*
X192676777Y-104728223D01*
X192693253Y-104746402D01*
X192707867Y-104766107D01*
X192720480Y-104787151D01*
X192730970Y-104809329D01*
X192739235Y-104832429D01*
X192745196Y-104856227D01*
X192748796Y-104880496D01*
X192750000Y-104905000D01*
X192750000Y-105405000D01*
X192748796Y-105429504D01*
X192745196Y-105453773D01*
X192739235Y-105477571D01*
X192730970Y-105500671D01*
X192720480Y-105522849D01*
X192707867Y-105543893D01*
X192693253Y-105563598D01*
X192676777Y-105581777D01*
X192658598Y-105598253D01*
X192638893Y-105612867D01*
X192617849Y-105625480D01*
X192595671Y-105635970D01*
X192572571Y-105644235D01*
X192548773Y-105650196D01*
X192524504Y-105653796D01*
X192500000Y-105655000D01*
X190850000Y-105655000D01*
X190825496Y-105653796D01*
X190801227Y-105650196D01*
X190777429Y-105644235D01*
X190754329Y-105635970D01*
X190732151Y-105625480D01*
X190711107Y-105612867D01*
X190691402Y-105598253D01*
X190673223Y-105581777D01*
X190656747Y-105563598D01*
X190642133Y-105543893D01*
X190629520Y-105522849D01*
X190619030Y-105500671D01*
X190610765Y-105477571D01*
X190604804Y-105453773D01*
X190601204Y-105429504D01*
X190600000Y-105405000D01*
X190600000Y-104905000D01*
X190601204Y-104880496D01*
X190604804Y-104856227D01*
X190610765Y-104832429D01*
X190619030Y-104809329D01*
X190629520Y-104787151D01*
X190642133Y-104766107D01*
X190656747Y-104746402D01*
X190673223Y-104728223D01*
X190691402Y-104711747D01*
X190711107Y-104697133D01*
X190732151Y-104684520D01*
X190754329Y-104674030D01*
X190777429Y-104665765D01*
X190801227Y-104659804D01*
X190825496Y-104656204D01*
X190850000Y-104655000D01*
X192500000Y-104655000D01*
X192524504Y-104656204D01*
X192524504Y-104656204D01*
G37*
D28*
X191675000Y-105155000D03*
D29*
X190170500Y-110637000D03*
X192170500Y-109687000D03*
X192170500Y-111587000D03*
D15*
X187377000Y-96393000D03*
X187377000Y-98679000D03*
X185293000Y-98679000D03*
X185293000Y-96393000D03*
D14*
X190881000Y-107696000D03*
X193167000Y-107696000D03*
D15*
X188976000Y-107823000D03*
X188976000Y-105537000D03*
X194091500Y-111887000D03*
X194091500Y-109601000D03*
D14*
X172755000Y-145668000D03*
X170469000Y-145668000D03*
X153797000Y-146365000D03*
X156083000Y-146365000D03*
X196049000Y-123179000D03*
X193763000Y-123179000D03*
X172755000Y-143636000D03*
X170469000Y-143636000D03*
X196049000Y-125211000D03*
X193763000Y-125211000D03*
D30*
X209638000Y-100827000D03*
X209638000Y-105907000D03*
X204558000Y-100827000D03*
X204558000Y-103367000D03*
X204558000Y-105907000D03*
D31*
X190119000Y-96012000D03*
D32*
X192659000Y-96012000D03*
D29*
X198012500Y-110637000D03*
X196012500Y-111587000D03*
X196012500Y-109687000D03*
D33*
X151908000Y-143313000D03*
X151908000Y-143963000D03*
X151908000Y-144613000D03*
X153958000Y-144613000D03*
X153958000Y-143313000D03*
D34*
X122130000Y-98885000D03*
X123400000Y-98885000D03*
X124670000Y-98885000D03*
X125940000Y-98885000D03*
X127210000Y-98885000D03*
X128480000Y-98885000D03*
X129750000Y-98885000D03*
X131020000Y-98885000D03*
X132290000Y-98885000D03*
X133560000Y-98885000D03*
X134830000Y-98885000D03*
X136100000Y-98885000D03*
X137370000Y-98885000D03*
X138640000Y-98885000D03*
D35*
X140130000Y-102170000D03*
X140130000Y-103440000D03*
X140130000Y-104710000D03*
X140130000Y-105980000D03*
X140130000Y-107250000D03*
X140130000Y-108520000D03*
X140130000Y-109790000D03*
X140130000Y-111060000D03*
X140130000Y-112330000D03*
X140130000Y-113600000D03*
D34*
X138640000Y-116885000D03*
X137370000Y-116885000D03*
X136100000Y-116885000D03*
X134830000Y-116885000D03*
X133560000Y-116885000D03*
X132290000Y-116885000D03*
X131020000Y-116885000D03*
X129750000Y-116885000D03*
X128480000Y-116885000D03*
X127210000Y-116885000D03*
X125940000Y-116885000D03*
X124670000Y-116885000D03*
X123400000Y-116885000D03*
X122130000Y-116885000D03*
D36*
X129750000Y-108185000D03*
D37*
X129750000Y-107885000D03*
X127845000Y-109790000D03*
X127845000Y-106615000D03*
X131655000Y-106615000D03*
X131655000Y-109790000D03*
D38*
X196468100Y-120829500D03*
X193216900Y-120829500D03*
D10*
X158275000Y-142734400D03*
X158275000Y-145985600D03*
D15*
X147662500Y-142693000D03*
X147662500Y-144979000D03*
D39*
X163187000Y-144565000D03*
X163187000Y-143565000D03*
X163187000Y-142565000D03*
X163187000Y-143065000D03*
X163187000Y-146115000D03*
X163187000Y-141115000D03*
X163187000Y-145065000D03*
X163187000Y-144065000D03*
X163187000Y-145565000D03*
X163187000Y-142065000D03*
X165787000Y-142065000D03*
X165787000Y-142565000D03*
X165787000Y-143065000D03*
X165787000Y-143565000D03*
X165787000Y-144065000D03*
X165787000Y-145065000D03*
X165787000Y-141115000D03*
X165787000Y-146115000D03*
X165787000Y-144565000D03*
X165787000Y-145565000D03*
D40*
X164487000Y-141115000D03*
X164487000Y-146115000D03*
D23*
G36*
X207755473Y-131903708D02*
G01*
X207830220Y-131914795D01*
X207903519Y-131933156D01*
X207974666Y-131958613D01*
X208042975Y-131990921D01*
X208107789Y-132029768D01*
X208168483Y-132074782D01*
X208224472Y-132125528D01*
X208275218Y-132181517D01*
X208320232Y-132242211D01*
X208359079Y-132307025D01*
X208391387Y-132375334D01*
X208416844Y-132446481D01*
X208435205Y-132519780D01*
X208446292Y-132594527D01*
X208450000Y-132670000D01*
X208450000Y-151530000D01*
X208446292Y-151605473D01*
X208435205Y-151680220D01*
X208416844Y-151753519D01*
X208391387Y-151824666D01*
X208359079Y-151892975D01*
X208320232Y-151957789D01*
X208275218Y-152018483D01*
X208224472Y-152074472D01*
X208168483Y-152125218D01*
X208107789Y-152170232D01*
X208042975Y-152209079D01*
X207974666Y-152241387D01*
X207903519Y-152266844D01*
X207830220Y-152285205D01*
X207755473Y-152296292D01*
X207680000Y-152300000D01*
X193820000Y-152300000D01*
X193744527Y-152296292D01*
X193669780Y-152285205D01*
X193596481Y-152266844D01*
X193525334Y-152241387D01*
X193457025Y-152209079D01*
X193392211Y-152170232D01*
X193331517Y-152125218D01*
X193275528Y-152074472D01*
X193224782Y-152018483D01*
X193179768Y-151957789D01*
X193140921Y-151892975D01*
X193108613Y-151824666D01*
X193083156Y-151753519D01*
X193064795Y-151680220D01*
X193053708Y-151605473D01*
X193050000Y-151530000D01*
X193050000Y-132670000D01*
X193053708Y-132594527D01*
X193064795Y-132519780D01*
X193083156Y-132446481D01*
X193108613Y-132375334D01*
X193140921Y-132307025D01*
X193179768Y-132242211D01*
X193224782Y-132181517D01*
X193275528Y-132125528D01*
X193331517Y-132074782D01*
X193392211Y-132029768D01*
X193457025Y-131990921D01*
X193525334Y-131958613D01*
X193596481Y-131933156D01*
X193669780Y-131914795D01*
X193744527Y-131903708D01*
X193820000Y-131900000D01*
X207680000Y-131900000D01*
X207755473Y-131903708D01*
X207755473Y-131903708D01*
G37*
D41*
X200750000Y-142100000D03*
D23*
G36*
X135005473Y-131903708D02*
G01*
X135080220Y-131914795D01*
X135153519Y-131933156D01*
X135224666Y-131958613D01*
X135292975Y-131990921D01*
X135357789Y-132029768D01*
X135418483Y-132074782D01*
X135474472Y-132125528D01*
X135525218Y-132181517D01*
X135570232Y-132242211D01*
X135609079Y-132307025D01*
X135641387Y-132375334D01*
X135666844Y-132446481D01*
X135685205Y-132519780D01*
X135696292Y-132594527D01*
X135700000Y-132670000D01*
X135700000Y-151530000D01*
X135696292Y-151605473D01*
X135685205Y-151680220D01*
X135666844Y-151753519D01*
X135641387Y-151824666D01*
X135609079Y-151892975D01*
X135570232Y-151957789D01*
X135525218Y-152018483D01*
X135474472Y-152074472D01*
X135418483Y-152125218D01*
X135357789Y-152170232D01*
X135292975Y-152209079D01*
X135224666Y-152241387D01*
X135153519Y-152266844D01*
X135080220Y-152285205D01*
X135005473Y-152296292D01*
X134930000Y-152300000D01*
X121070000Y-152300000D01*
X120994527Y-152296292D01*
X120919780Y-152285205D01*
X120846481Y-152266844D01*
X120775334Y-152241387D01*
X120707025Y-152209079D01*
X120642211Y-152170232D01*
X120581517Y-152125218D01*
X120525528Y-152074472D01*
X120474782Y-152018483D01*
X120429768Y-151957789D01*
X120390921Y-151892975D01*
X120358613Y-151824666D01*
X120333156Y-151753519D01*
X120314795Y-151680220D01*
X120303708Y-151605473D01*
X120300000Y-151530000D01*
X120300000Y-132670000D01*
X120303708Y-132594527D01*
X120314795Y-132519780D01*
X120333156Y-132446481D01*
X120358613Y-132375334D01*
X120390921Y-132307025D01*
X120429768Y-132242211D01*
X120474782Y-132181517D01*
X120525528Y-132125528D01*
X120581517Y-132074782D01*
X120642211Y-132029768D01*
X120707025Y-131990921D01*
X120775334Y-131958613D01*
X120846481Y-131933156D01*
X120919780Y-131914795D01*
X120994527Y-131903708D01*
X121070000Y-131900000D01*
X134930000Y-131900000D01*
X135005473Y-131903708D01*
X135005473Y-131903708D01*
G37*
D41*
X128000000Y-142100000D03*
D31*
X136398000Y-95377000D03*
D32*
X133858000Y-95377000D03*
X131318000Y-95377000D03*
X128778000Y-95377000D03*
X126238000Y-95377000D03*
D31*
X180843000Y-150878000D03*
D32*
X178303000Y-150878000D03*
D13*
X157560000Y-134453000D03*
X167560000Y-129453000D03*
X157560000Y-129453000D03*
X167560000Y-134453000D03*
D42*
X171987000Y-140315000D03*
X156987000Y-140315000D03*
X171987000Y-148792000D03*
X156987000Y-148792000D03*
M02*
