G04 #@! TF.GenerationSoftware,KiCad,Pcbnew,(5.1.4)-1*
G04 #@! TF.CreationDate,2021-03-24T15:31:26+01:00*
G04 #@! TF.ProjectId,HRM,48524d2e-6b69-4636-9164-5f7063625858,rev?*
G04 #@! TF.SameCoordinates,Original*
G04 #@! TF.FileFunction,Soldermask,Bot*
G04 #@! TF.FilePolarity,Negative*
%FSLAX46Y46*%
G04 Gerber Fmt 4.6, Leading zero omitted, Abs format (unit mm)*
G04 Created by KiCad (PCBNEW (5.1.4)-1) date 2021-03-24 15:31:26*
%MOMM*%
%LPD*%
G04 APERTURE LIST*
%ADD10R,1.797000X1.670000*%
%ADD11C,3.400000*%
%ADD12C,1.924000*%
%ADD13R,1.670000X1.797000*%
%ADD14C,1.850000*%
%ADD15O,2.300000X1.600000*%
%ADD16C,0.100000*%
%ADD17C,2.100000*%
%ADD18O,2.400000X2.100000*%
%ADD19C,2.200000*%
%ADD20R,2.200000X2.200000*%
%ADD21R,1.300000X1.200000*%
%ADD22C,2.500000*%
%ADD23R,2.100000X2.100000*%
%ADD24O,2.100000X2.100000*%
%ADD25R,1.800000X0.700000*%
%ADD26R,1.000000X2.600000*%
%ADD27R,3.850000X2.550000*%
%ADD28O,1.670000X1.670000*%
%ADD29R,6.400000X6.400000*%
%ADD30R,1.600000X0.800000*%
%ADD31R,1.797000X2.432000*%
%ADD32R,2.432000X1.797000*%
%ADD33C,2.400000*%
G04 APERTURE END LIST*
D10*
X160497500Y-142875000D03*
X160497500Y-145161000D03*
D11*
X179650000Y-125000000D03*
X149250000Y-125000000D03*
X149250000Y-96500000D03*
X179650000Y-96500000D03*
D12*
X159370000Y-96000000D03*
X161910000Y-96000000D03*
X164450000Y-96000000D03*
X166990000Y-96000000D03*
X169530000Y-96000000D03*
X172070000Y-96000000D03*
X156830000Y-96000000D03*
D13*
X178893000Y-109745000D03*
X176607000Y-109745000D03*
D10*
X172250000Y-105143000D03*
X172250000Y-102857000D03*
D13*
X204304000Y-116384500D03*
X206590000Y-116384500D03*
X206590000Y-122480500D03*
X204304000Y-122480500D03*
X195922000Y-116448000D03*
X193636000Y-116448000D03*
D10*
X124968000Y-129286000D03*
X124968000Y-127000000D03*
X199478000Y-122925000D03*
X199478000Y-125211000D03*
X201510000Y-125211000D03*
X201510000Y-122925000D03*
X157226000Y-127508000D03*
X157226000Y-129794000D03*
X165354000Y-129794000D03*
X165354000Y-127508000D03*
X131064000Y-129286000D03*
X131064000Y-127000000D03*
D14*
X210537500Y-121615000D03*
X210537500Y-116615000D03*
D15*
X213237500Y-122615000D03*
X213237500Y-115615000D03*
D16*
G36*
X212083447Y-111208487D02*
G01*
X212113425Y-111212934D01*
X212142824Y-111220298D01*
X212171358Y-111230508D01*
X212198755Y-111243465D01*
X212224750Y-111259046D01*
X212249092Y-111277100D01*
X212271548Y-111297452D01*
X212291900Y-111319908D01*
X212309954Y-111344250D01*
X212325535Y-111370245D01*
X212338492Y-111397642D01*
X212348702Y-111426176D01*
X212356066Y-111455575D01*
X212360513Y-111485553D01*
X212362000Y-111515823D01*
X212362000Y-112998177D01*
X212360513Y-113028447D01*
X212356066Y-113058425D01*
X212348702Y-113087824D01*
X212338492Y-113116358D01*
X212325535Y-113143755D01*
X212309954Y-113169750D01*
X212291900Y-113194092D01*
X212271548Y-113216548D01*
X212249092Y-113236900D01*
X212224750Y-113254954D01*
X212198755Y-113270535D01*
X212171358Y-113283492D01*
X212142824Y-113293702D01*
X212113425Y-113301066D01*
X212083447Y-113305513D01*
X212053177Y-113307000D01*
X210270823Y-113307000D01*
X210240553Y-113305513D01*
X210210575Y-113301066D01*
X210181176Y-113293702D01*
X210152642Y-113283492D01*
X210125245Y-113270535D01*
X210099250Y-113254954D01*
X210074908Y-113236900D01*
X210052452Y-113216548D01*
X210032100Y-113194092D01*
X210014046Y-113169750D01*
X209998465Y-113143755D01*
X209985508Y-113116358D01*
X209975298Y-113087824D01*
X209967934Y-113058425D01*
X209963487Y-113028447D01*
X209962000Y-112998177D01*
X209962000Y-111515823D01*
X209963487Y-111485553D01*
X209967934Y-111455575D01*
X209975298Y-111426176D01*
X209985508Y-111397642D01*
X209998465Y-111370245D01*
X210014046Y-111344250D01*
X210032100Y-111319908D01*
X210052452Y-111297452D01*
X210074908Y-111277100D01*
X210099250Y-111259046D01*
X210125245Y-111243465D01*
X210152642Y-111230508D01*
X210181176Y-111220298D01*
X210210575Y-111212934D01*
X210240553Y-111208487D01*
X210270823Y-111207000D01*
X212053177Y-111207000D01*
X212083447Y-111208487D01*
X212083447Y-111208487D01*
G37*
D17*
X211162000Y-112257000D03*
D18*
X211162000Y-109757000D03*
D11*
X212493000Y-151478000D03*
X116493000Y-95478000D03*
X116493000Y-151478000D03*
X212493000Y-95478000D03*
D19*
X209040000Y-96000000D03*
D20*
X206500000Y-96000000D03*
X201500000Y-96000000D03*
D19*
X204040000Y-96000000D03*
D20*
X189103000Y-119253000D03*
D19*
X189103000Y-121793000D03*
X184658000Y-121790000D03*
D20*
X184658000Y-119250000D03*
D19*
X198790000Y-96000000D03*
D20*
X196250000Y-96000000D03*
D19*
X189103000Y-126365000D03*
D20*
X189103000Y-128905000D03*
X184658000Y-128905000D03*
D19*
X184658000Y-126365000D03*
D21*
X172482000Y-118933000D03*
X172482000Y-117033000D03*
X174482000Y-117983000D03*
X172482000Y-122235000D03*
X172482000Y-120335000D03*
X174482000Y-121285000D03*
D13*
X206590000Y-118416500D03*
X204304000Y-118416500D03*
X204304000Y-120448500D03*
X206590000Y-120448500D03*
D10*
X183315000Y-96488500D03*
X183315000Y-98774500D03*
X185347000Y-98774500D03*
X185347000Y-96488500D03*
X187377000Y-96488500D03*
X187377000Y-98774500D03*
D13*
X159512000Y-110363000D03*
X161798000Y-110363000D03*
D10*
X127254000Y-123952000D03*
X127254000Y-121666000D03*
D13*
X159512000Y-108331000D03*
X161798000Y-108331000D03*
D10*
X127000000Y-129286000D03*
X127000000Y-127000000D03*
D13*
X195961000Y-98933000D03*
X193675000Y-98933000D03*
X160890000Y-120709000D03*
X158604000Y-120709000D03*
X160890000Y-118677000D03*
X158604000Y-118677000D03*
D10*
X169926000Y-118364000D03*
X169926000Y-120650000D03*
D13*
X188595000Y-114300000D03*
X186309000Y-114300000D03*
X186309000Y-116332000D03*
X188595000Y-116332000D03*
X122936000Y-102489000D03*
X125222000Y-102489000D03*
X125222000Y-100457000D03*
X122936000Y-100457000D03*
X125222000Y-98425000D03*
X122936000Y-98425000D03*
D10*
X167894000Y-118364000D03*
X167894000Y-120650000D03*
X129032000Y-127000000D03*
X129032000Y-129286000D03*
X159258000Y-127508000D03*
X159258000Y-129794000D03*
X167386000Y-127508000D03*
X167386000Y-129794000D03*
D22*
X209638000Y-100827000D03*
X209638000Y-105907000D03*
X204558000Y-100827000D03*
X204558000Y-103367000D03*
X204558000Y-105907000D03*
D23*
X190119000Y-96012000D03*
D24*
X192659000Y-96012000D03*
D25*
X185306000Y-102949500D03*
X185306000Y-102449500D03*
X185306000Y-101949500D03*
X185306000Y-101449500D03*
X185306000Y-100949500D03*
X189706000Y-100949500D03*
X189706000Y-101449500D03*
X189706000Y-101949500D03*
X189706000Y-102449500D03*
X189706000Y-102949500D03*
D26*
X175704000Y-107040500D03*
X178244000Y-107040500D03*
D27*
X176974000Y-100740500D03*
D26*
X176974000Y-107040500D03*
X174434000Y-107040500D03*
X179514000Y-107040500D03*
D28*
X129750000Y-107885000D03*
X127845000Y-109790000D03*
X127845000Y-106615000D03*
X131655000Y-106615000D03*
X131655000Y-109790000D03*
D29*
X129750000Y-108185000D03*
D21*
X129048000Y-123759000D03*
X129048000Y-121859000D03*
X131048000Y-122809000D03*
D30*
X192242500Y-125020500D03*
X192242500Y-124385500D03*
X192242500Y-123750500D03*
X192242500Y-123115500D03*
X192242500Y-122480500D03*
X192242500Y-121845500D03*
X192242500Y-121210500D03*
X192242500Y-120575500D03*
X192242500Y-119940500D03*
X192242500Y-119305500D03*
X197442500Y-119305500D03*
X197442500Y-119940500D03*
X197442500Y-120575500D03*
X197442500Y-121210500D03*
X197442500Y-121845500D03*
X197442500Y-122480500D03*
X197442500Y-123115500D03*
X197442500Y-123750500D03*
X197442500Y-124385500D03*
X197442500Y-125020500D03*
D31*
X125044200Y-113030000D03*
X121793000Y-113030000D03*
X125044200Y-115570000D03*
X121793000Y-115570000D03*
X183111800Y-105378500D03*
X186363000Y-105378500D03*
X178875600Y-112031000D03*
X175624400Y-112031000D03*
D32*
X170000000Y-106146600D03*
X170000000Y-102895400D03*
D31*
X188547400Y-105378500D03*
X191798600Y-105378500D03*
D32*
X158211500Y-146160100D03*
X158211500Y-142908900D03*
D10*
X125222000Y-123952000D03*
X125222000Y-121666000D03*
X155925500Y-143264500D03*
X155925500Y-145550500D03*
D23*
X136398000Y-95377000D03*
D24*
X133858000Y-95377000D03*
X131318000Y-95377000D03*
X128778000Y-95377000D03*
X126238000Y-95377000D03*
D13*
X159512000Y-112395000D03*
X161798000Y-112395000D03*
D23*
X180843000Y-150878000D03*
D24*
X178303000Y-150878000D03*
D10*
X161290000Y-129794000D03*
X161290000Y-127508000D03*
X163322000Y-129794000D03*
X163322000Y-127508000D03*
D33*
X171987000Y-140315000D03*
X156987000Y-140315000D03*
X171987000Y-148792000D03*
X156987000Y-148792000D03*
M02*
